<svg width="1440" height="884" viewBox="0 0 1440 884" fill="none" xmlns="http://www.w3.org/2000/svg">
<path opacity="0.2" fill-rule="evenodd" clip-rule="evenodd" d="M0 0H1440V868.429C664.809 940.511 727.5 736 0 788V0Z" fill="url(#paint0_linear)"/>
<path fill-rule="evenodd" clip-rule="evenodd" d="M0 0H1440V868.429C664.809 940.511 801 668.878 0 668.878V0Z" fill="url(#paint1_linear)"/>
<mask id="mask0" mask-type="alpha" maskUnits="userSpaceOnUse" x="0" y="0" width="1440" height="881">
<path fill-rule="evenodd" clip-rule="evenodd" d="M0 0H1440V868.429C664.809 940.511 801 668.878 0 668.878V0Z" fill="white"/>
</mask>
<g mask="url(#mask0)">
<path opacity="0.5" fill-rule="evenodd" clip-rule="evenodd" d="M1106.7 371.6C1108.63 371.6 1110.2 370.033 1110.2 368.1C1110.2 366.167 1108.63 364.6 1106.7 364.6C1104.77 364.6 1103.2 366.167 1103.2 368.1C1103.2 370.033 1104.77 371.6 1106.7 371.6Z" fill="white"/>
<path opacity="0.5" fill-rule="evenodd" clip-rule="evenodd" d="M1316.7 329.6C1318.63 329.6 1320.2 328.033 1320.2 326.1C1320.2 324.167 1318.63 322.6 1316.7 322.6C1314.77 322.6 1313.2 324.167 1313.2 326.1C1313.2 328.033 1314.77 329.6 1316.7 329.6Z" fill="white"/>
<path opacity="0.5" fill-rule="evenodd" clip-rule="evenodd" d="M1208.81 772.982C1210.74 772.982 1212.31 771.415 1212.31 769.482C1212.31 767.549 1210.74 765.982 1208.81 765.982C1206.88 765.982 1205.31 767.549 1205.31 769.482C1205.31 771.415 1206.88 772.982 1208.81 772.982Z" fill="white"/>
<path opacity="0.3" fill-rule="evenodd" clip-rule="evenodd" d="M882.7 462.6C884.633 462.6 886.2 461.033 886.2 459.1C886.2 457.167 884.633 455.6 882.7 455.6C880.767 455.6 879.2 457.167 879.2 459.1C879.2 461.033 880.767 462.6 882.7 462.6Z" fill="white"/>
<path opacity="0.3" fill-rule="evenodd" clip-rule="evenodd" d="M756.7 490.6C758.633 490.6 760.2 489.033 760.2 487.1C760.2 485.167 758.633 483.6 756.7 483.6C754.767 483.6 753.2 485.167 753.2 487.1C753.2 489.033 754.767 490.6 756.7 490.6Z" fill="white"/>
<path opacity="0.3" fill-rule="evenodd" clip-rule="evenodd" d="M476.7 560.6C478.633 560.6 480.2 559.033 480.2 557.1C480.2 555.167 478.633 553.6 476.7 553.6C474.767 553.6 473.2 555.167 473.2 557.1C473.2 559.033 474.767 560.6 476.7 560.6Z" fill="white"/>
<path opacity="0.3" fill-rule="evenodd" clip-rule="evenodd" d="M553.7 609.6C555.633 609.6 557.2 608.033 557.2 606.1C557.2 604.167 555.633 602.6 553.7 602.6C551.767 602.6 550.2 604.167 550.2 606.1C550.2 608.033 551.767 609.6 553.7 609.6Z" fill="white"/>
<path opacity="0.3" fill-rule="evenodd" clip-rule="evenodd" d="M455.7 434.6C457.633 434.6 459.2 433.033 459.2 431.1C459.2 429.167 457.633 427.6 455.7 427.6C453.767 427.6 452.2 429.167 452.2 431.1C452.2 433.033 453.767 434.6 455.7 434.6Z" fill="white"/>
<path opacity="0.3" fill-rule="evenodd" clip-rule="evenodd" d="M455.7 329.6C457.633 329.6 459.2 328.033 459.2 326.1C459.2 324.167 457.633 322.6 455.7 322.6C453.767 322.6 452.2 324.167 452.2 326.1C452.2 328.033 453.767 329.6 455.7 329.6Z" fill="white"/>
<path opacity="0.3" fill-rule="evenodd" clip-rule="evenodd" d="M616.7 329.6C618.633 329.6 620.2 328.033 620.2 326.1C620.2 324.167 618.633 322.6 616.7 322.6C614.767 322.6 613.2 324.167 613.2 326.1C613.2 328.033 614.767 329.6 616.7 329.6Z" fill="white"/>
<path opacity="0.3" fill-rule="evenodd" clip-rule="evenodd" d="M777.7 259.6C779.633 259.6 781.2 258.033 781.2 256.1C781.2 254.167 779.633 252.6 777.7 252.6C775.767 252.6 774.2 254.167 774.2 256.1C774.2 258.033 775.767 259.6 777.7 259.6Z" fill="white"/>
<path opacity="0.3" fill-rule="evenodd" clip-rule="evenodd" d="M1029.7 406.6C1031.63 406.6 1033.2 405.033 1033.2 403.1C1033.2 401.167 1031.63 399.6 1029.7 399.6C1027.77 399.6 1026.2 401.167 1026.2 403.1C1026.2 405.033 1027.77 406.6 1029.7 406.6Z" fill="white"/>
<path opacity="0.3" fill-rule="evenodd" clip-rule="evenodd" d="M973.7 497.6C975.633 497.6 977.2 496.033 977.2 494.1C977.2 492.167 975.633 490.6 973.7 490.6C971.767 490.6 970.2 492.167 970.2 494.1C970.2 496.033 971.767 497.6 973.7 497.6Z" fill="white"/>
<path opacity="0.3" fill-rule="evenodd" clip-rule="evenodd" d="M1183.7 518.6C1185.63 518.6 1187.2 517.033 1187.2 515.1C1187.2 513.167 1185.63 511.6 1183.7 511.6C1181.77 511.6 1180.2 513.167 1180.2 515.1C1180.2 517.033 1181.77 518.6 1183.7 518.6Z" fill="white"/>
<path opacity="0.3" fill-rule="evenodd" clip-rule="evenodd" d="M1225.7 245.6C1227.63 245.6 1229.2 244.033 1229.2 242.1C1229.2 240.167 1227.63 238.6 1225.7 238.6C1223.77 238.6 1222.2 240.167 1222.2 242.1C1222.2 244.033 1223.77 245.6 1225.7 245.6Z" fill="white"/>
<path fill-rule="evenodd" clip-rule="evenodd" d="M454.618 163.19L729.997 381.393C750.986 398.023 778.044 404.969 804.448 400.502L1491.85 284.22C1509 281.318 1520.55 265.061 1517.65 247.907C1514.75 230.754 1498.49 219.201 1481.34 222.103L793.94 338.385C785.139 339.874 776.119 337.558 769.123 332.015L493.744 113.812C480.109 103.008 460.297 105.303 449.492 118.938C438.688 132.574 440.983 152.386 454.618 163.19Z" fill="url(#paint2_linear)"/>
<mask id="mask1" mask-type="alpha" maskUnits="userSpaceOnUse" x="442" y="107" width="1077" height="295">
<path fill-rule="evenodd" clip-rule="evenodd" d="M454.618 163.19L729.997 381.393C750.986 398.023 778.044 404.969 804.448 400.502L1491.85 284.22C1509 281.318 1520.55 265.061 1517.65 247.907C1514.75 230.754 1498.49 219.201 1481.34 222.103L793.94 338.385C785.139 339.874 776.119 337.558 769.123 332.015L493.744 113.812C480.109 103.008 460.297 105.303 449.492 118.938C438.688 132.574 440.983 152.386 454.618 163.19Z" fill="white"/>
</mask>
<g mask="url(#mask1)">
<path d="M783.51 338.21C783.51 338.21 752.01 363.41 769.65 401.84" stroke="#BB3493" stroke-width="1.26" stroke-linecap="round" stroke-linejoin="round"/>
<g style="mix-blend-mode:screen" opacity="0.4">
<path fill-rule="evenodd" clip-rule="evenodd" d="M458.398 137.36L733.777 355.563C754.766 372.193 781.824 379.139 808.228 374.672L1495.63 258.39C1512.78 255.488 1524.33 239.231 1521.43 222.077C1518.53 204.924 1502.27 193.371 1485.12 196.272L797.72 312.555C788.919 314.044 779.899 311.728 772.903 306.185L497.524 87.9823C483.889 77.178 464.077 79.473 453.272 93.1084C442.468 106.744 444.763 126.556 458.398 137.36Z" fill="url(#paint3_linear)"/>
</g>
<g style="mix-blend-mode:screen" opacity="0.4">
<path fill-rule="evenodd" clip-rule="evenodd" d="M1383.84 282.297C1403.67 279.157 1418.64 269.694 1417.29 261.159C1415.94 252.625 1398.77 248.253 1378.95 251.393C1359.12 254.533 1344.15 263.996 1345.5 272.531C1346.85 281.065 1364.02 285.437 1383.84 282.297Z" fill="url(#paint4_linear)"/>
</g>
<g style="mix-blend-mode:screen" opacity="0.4">
<path fill-rule="evenodd" clip-rule="evenodd" d="M1092.21 329.918C1099.17 329.918 1104.81 324.277 1104.81 317.318C1104.81 310.359 1099.17 304.718 1092.21 304.718C1085.25 304.718 1079.61 310.359 1079.61 317.318C1079.61 324.277 1085.25 329.918 1092.21 329.918Z" fill="url(#paint5_linear)"/>
</g>
<g style="mix-blend-mode:screen" opacity="0.4">
<path fill-rule="evenodd" clip-rule="evenodd" d="M1027.09 346.801C1043.41 343.332 1055.05 332.992 1053.07 323.706C1051.1 314.421 1036.27 309.706 1019.94 313.176C1003.62 316.645 991.987 326.985 993.96 336.271C995.934 345.556 1010.77 350.271 1027.09 346.801Z" fill="url(#paint6_linear)"/>
</g>
<g style="mix-blend-mode:screen" opacity="0.4">
<path fill-rule="evenodd" clip-rule="evenodd" d="M727.669 326.115C733.033 319.491 728.395 306.842 717.309 297.865C706.222 288.887 692.886 286.98 687.521 293.605C682.157 300.229 686.795 312.878 697.881 321.855C708.968 330.833 722.304 332.74 727.669 326.115Z" fill="url(#paint7_linear)"/>
</g>
</g>
<path fill-rule="evenodd" clip-rule="evenodd" d="M1098.85 376.682C1131.39 376.682 1157.77 350.3 1157.77 317.756C1157.77 285.212 1131.39 258.83 1098.85 258.83C1066.3 258.83 1039.92 285.212 1039.92 317.756C1039.92 350.3 1066.3 376.682 1098.85 376.682ZM1098.85 348.332C1081.96 348.332 1068.27 334.642 1068.27 317.756C1068.27 300.869 1081.96 287.18 1098.85 287.18C1115.73 287.18 1129.42 300.869 1129.42 317.756C1129.42 334.642 1115.73 348.332 1098.85 348.332Z" fill="url(#paint8_linear)"/>
<mask id="mask2" mask-type="alpha" maskUnits="userSpaceOnUse" x="1039" y="258" width="119" height="119">
<path fill-rule="evenodd" clip-rule="evenodd" d="M1098.85 376.682C1131.39 376.682 1157.77 350.3 1157.77 317.756C1157.77 285.212 1131.39 258.83 1098.85 258.83C1066.3 258.83 1039.92 285.212 1039.92 317.756C1039.92 350.3 1066.3 376.682 1098.85 376.682ZM1098.85 348.332C1081.96 348.332 1068.27 334.642 1068.27 317.756C1068.27 300.869 1081.96 287.18 1098.85 287.18C1115.73 287.18 1129.42 300.869 1129.42 317.756C1129.42 334.642 1115.73 348.332 1098.85 348.332Z" fill="white"/>
</mask>
<g mask="url(#mask2)">
<g style="mix-blend-mode:screen" opacity="0.4">
<path fill-rule="evenodd" clip-rule="evenodd" d="M1083.07 365.93C1108.65 365.93 1129.38 345.199 1129.38 319.625C1129.38 294.051 1108.65 273.32 1083.07 273.32C1057.5 273.32 1036.77 294.051 1036.77 319.625C1036.77 345.199 1057.5 365.93 1083.07 365.93Z" fill="#BC1C79"/>
</g>
<mask id="mask3" mask-type="alpha" maskUnits="userSpaceOnUse" x="1036" y="273" width="94" height="93">
<g style="mix-blend-mode:screen">
<path fill-rule="evenodd" clip-rule="evenodd" d="M1083.07 365.93C1108.65 365.93 1129.38 345.199 1129.38 319.625C1129.38 294.051 1108.65 273.32 1083.07 273.32C1057.5 273.32 1036.77 294.051 1036.77 319.625C1036.77 345.199 1057.5 365.93 1083.07 365.93Z" fill="white"/>
<path fill-rule="evenodd" clip-rule="evenodd" d="M1083.07 365.93C1108.65 365.93 1129.38 345.199 1129.38 319.625C1129.38 294.051 1108.65 273.32 1083.07 273.32C1057.5 273.32 1036.77 294.051 1036.77 319.625C1036.77 345.199 1057.5 365.93 1083.07 365.93Z" stroke="white"/>
</g>
</mask>
<g mask="url(#mask3)">
<g style="mix-blend-mode:screen" opacity="0.4">
<path fill-rule="evenodd" clip-rule="evenodd" d="M1054.2 359L1157.8 340.1L1156.4 315.6L1040.2 335.9L1054.2 359Z" fill="url(#paint9_linear)"/>
</g>
<g style="mix-blend-mode:screen" opacity="0.4">
<path fill-rule="evenodd" clip-rule="evenodd" d="M1032.99 336.95L1129.38 320.57L1122.45 282.14L1030.47 298.52L1032.99 336.95Z" fill="url(#paint10_linear)"/>
</g>
<g style="mix-blend-mode:screen" opacity="0.4">
<path fill-rule="evenodd" clip-rule="evenodd" d="M1027.33 346.592C1043.66 343.123 1055.29 332.783 1053.32 323.497C1051.34 314.212 1036.51 309.497 1020.19 312.967C1003.86 316.436 992.232 326.776 994.205 336.062C996.179 345.347 1011.01 350.062 1027.33 346.592Z" fill="url(#paint11_linear)"/>
</g>
</g>
</g>
<g opacity="0.7">
<path fill-rule="evenodd" clip-rule="evenodd" d="M914.886 408.812C947.43 408.812 973.812 382.43 973.812 349.886C973.812 317.342 947.43 290.96 914.886 290.96C882.342 290.96 855.96 317.342 855.96 349.886C855.96 382.43 882.342 408.812 914.886 408.812ZM914.886 380.462C897.999 380.462 884.31 366.772 884.31 349.886C884.31 332.999 897.999 319.31 914.886 319.31C931.772 319.31 945.462 332.999 945.462 349.886C945.462 366.772 931.772 380.462 914.886 380.462Z" fill="url(#paint12_linear)"/>
<mask id="mask4" mask-type="alpha" maskUnits="userSpaceOnUse" x="855" y="290" width="119" height="119">
<path fill-rule="evenodd" clip-rule="evenodd" d="M914.886 408.812C947.43 408.812 973.812 382.43 973.812 349.886C973.812 317.342 947.43 290.96 914.886 290.96C882.342 290.96 855.96 317.342 855.96 349.886C855.96 382.43 882.342 408.812 914.886 408.812ZM914.886 380.462C897.999 380.462 884.31 366.772 884.31 349.886C884.31 332.999 897.999 319.31 914.886 319.31C931.772 319.31 945.462 332.999 945.462 349.886C945.462 366.772 931.772 380.462 914.886 380.462Z" fill="white"/>
</mask>
<g mask="url(#mask4)">
<g style="mix-blend-mode:screen" opacity="0.4">
<path fill-rule="evenodd" clip-rule="evenodd" d="M899.115 398.06C924.689 398.06 945.42 377.329 945.42 351.755C945.42 326.181 924.689 305.45 899.115 305.45C873.541 305.45 852.81 326.181 852.81 351.755C852.81 377.329 873.541 398.06 899.115 398.06Z" fill="#BC1C79"/>
</g>
<mask id="mask5" mask-type="alpha" maskUnits="userSpaceOnUse" x="852" y="305" width="94" height="94">
<g style="mix-blend-mode:screen">
<path fill-rule="evenodd" clip-rule="evenodd" d="M899.115 398.06C924.689 398.06 945.42 377.329 945.42 351.755C945.42 326.181 924.689 305.45 899.115 305.45C873.541 305.45 852.81 326.181 852.81 351.755C852.81 377.329 873.541 398.06 899.115 398.06Z" fill="white"/>
<path fill-rule="evenodd" clip-rule="evenodd" d="M899.115 398.06C924.689 398.06 945.42 377.329 945.42 351.755C945.42 326.181 924.689 305.45 899.115 305.45C873.541 305.45 852.81 326.181 852.81 351.755C852.81 377.329 873.541 398.06 899.115 398.06Z" stroke="white"/>
</g>
</mask>
<g mask="url(#mask5)">
<g style="mix-blend-mode:screen" opacity="0.4">
<path fill-rule="evenodd" clip-rule="evenodd" d="M865.2 390.5L954.1 375.1L946.4 349.9L853.3 367.4L865.2 390.5Z" fill="url(#paint13_linear)"/>
</g>
<g style="mix-blend-mode:screen" opacity="0.4">
<path fill-rule="evenodd" clip-rule="evenodd" d="M857.85 366.56L888.09 360.89L946.68 351.44L942.9 314.27L849.66 328.76L857.85 366.56Z" fill="url(#paint14_linear)"/>
</g>
</g>
</g>
</g>
<path fill-rule="evenodd" clip-rule="evenodd" d="M1278.4 346.442C1310.94 346.442 1337.32 320.06 1337.32 287.516C1337.32 254.972 1310.94 228.59 1278.4 228.59C1245.85 228.59 1219.47 254.972 1219.47 287.516C1219.47 320.06 1245.85 346.442 1278.4 346.442ZM1278.4 318.092C1261.51 318.092 1247.82 304.402 1247.82 287.516C1247.82 270.629 1261.51 256.94 1278.4 256.94C1295.28 256.94 1308.97 270.629 1308.97 287.516C1308.97 304.402 1295.28 318.092 1278.4 318.092Z" fill="url(#paint15_linear)"/>
<mask id="mask6" mask-type="alpha" maskUnits="userSpaceOnUse" x="1219" y="228" width="119" height="119">
<path fill-rule="evenodd" clip-rule="evenodd" d="M1278.4 346.442C1310.94 346.442 1337.32 320.06 1337.32 287.516C1337.32 254.972 1310.94 228.59 1278.4 228.59C1245.85 228.59 1219.47 254.972 1219.47 287.516C1219.47 320.06 1245.85 346.442 1278.4 346.442ZM1278.4 318.092C1261.51 318.092 1247.82 304.402 1247.82 287.516C1247.82 270.629 1261.51 256.94 1278.4 256.94C1295.28 256.94 1308.97 270.629 1308.97 287.516C1308.97 304.402 1295.28 318.092 1278.4 318.092Z" fill="white"/>
</mask>
<g mask="url(#mask6)">
<g style="mix-blend-mode:screen" opacity="0.4">
<path fill-rule="evenodd" clip-rule="evenodd" d="M1262.62 335.69C1288.2 335.69 1308.93 314.959 1308.93 289.385C1308.93 263.811 1288.2 243.08 1262.62 243.08C1237.05 243.08 1216.32 263.811 1216.32 289.385C1216.32 314.959 1237.05 335.69 1262.62 335.69Z" fill="#BC1C79"/>
</g>
<mask id="mask7" mask-type="alpha" maskUnits="userSpaceOnUse" x="1216" y="243" width="93" height="93">
<g style="mix-blend-mode:screen">
<path fill-rule="evenodd" clip-rule="evenodd" d="M1262.62 335.69C1288.2 335.69 1308.93 314.959 1308.93 289.385C1308.93 263.811 1288.2 243.08 1262.62 243.08C1237.05 243.08 1216.32 263.811 1216.32 289.385C1216.32 314.959 1237.05 335.69 1262.62 335.69Z" fill="white"/>
<path fill-rule="evenodd" clip-rule="evenodd" d="M1262.62 335.69C1288.2 335.69 1308.93 314.959 1308.93 289.385C1308.93 263.811 1288.2 243.08 1262.62 243.08C1237.05 243.08 1216.32 263.811 1216.32 289.385C1216.32 314.959 1237.05 335.69 1262.62 335.69Z" stroke="white"/>
</g>
</mask>
<g mask="url(#mask7)">
<g style="mix-blend-mode:screen" opacity="0.4">
<path fill-rule="evenodd" clip-rule="evenodd" d="M1230.6 328.2L1344 309.3L1343.3 284.8L1218 305.8L1230.6 328.2Z" fill="url(#paint16_linear)"/>
</g>
<g style="mix-blend-mode:screen" opacity="0.4">
<path fill-rule="evenodd" clip-rule="evenodd" d="M1213.17 306.71L1344.21 284.03L1337.28 246.86L1208.13 268.28L1213.17 306.71Z" fill="url(#paint17_linear)"/>
</g>
</g>
</g>
<path fill-rule="evenodd" clip-rule="evenodd" d="M1453.4 316.342C1485.94 316.342 1512.32 289.96 1512.32 257.416C1512.32 224.872 1485.94 198.49 1453.4 198.49C1420.85 198.49 1394.47 224.872 1394.47 257.416C1394.47 289.96 1420.85 316.342 1453.4 316.342ZM1453.4 287.992C1436.51 287.992 1422.82 274.302 1422.82 257.416C1422.82 240.529 1436.51 226.84 1453.4 226.84C1470.28 226.84 1483.97 240.529 1483.97 257.416C1483.97 274.302 1470.28 287.992 1453.4 287.992Z" fill="url(#paint18_linear)"/>
<mask id="mask8" mask-type="alpha" maskUnits="userSpaceOnUse" x="1394" y="198" width="119" height="119">
<path fill-rule="evenodd" clip-rule="evenodd" d="M1453.4 316.342C1485.94 316.342 1512.32 289.96 1512.32 257.416C1512.32 224.872 1485.94 198.49 1453.4 198.49C1420.85 198.49 1394.47 224.872 1394.47 257.416C1394.47 289.96 1420.85 316.342 1453.4 316.342ZM1453.4 287.992C1436.51 287.992 1422.82 274.302 1422.82 257.416C1422.82 240.529 1436.51 226.84 1453.4 226.84C1470.28 226.84 1483.97 240.529 1483.97 257.416C1483.97 274.302 1470.28 287.992 1453.4 287.992Z" fill="white"/>
</mask>
<g mask="url(#mask8)">
<g style="mix-blend-mode:screen" opacity="0.4">
<path fill-rule="evenodd" clip-rule="evenodd" d="M1437.62 305.59C1463.2 305.59 1483.93 284.859 1483.93 259.285C1483.93 233.711 1463.2 212.98 1437.62 212.98C1412.05 212.98 1391.32 233.711 1391.32 259.285C1391.32 284.859 1412.05 305.59 1437.62 305.59Z" fill="url(#paint19_linear)"/>
</g>
<mask id="mask9" mask-type="alpha" maskUnits="userSpaceOnUse" x="1391" y="212" width="93" height="94">
<g style="mix-blend-mode:screen">
<path fill-rule="evenodd" clip-rule="evenodd" d="M1437.62 305.59C1463.2 305.59 1483.93 284.859 1483.93 259.285C1483.93 233.711 1463.2 212.98 1437.62 212.98C1412.05 212.98 1391.32 233.711 1391.32 259.285C1391.32 284.859 1412.05 305.59 1437.62 305.59Z" fill="white"/>
<path fill-rule="evenodd" clip-rule="evenodd" d="M1437.62 305.59C1463.2 305.59 1483.93 284.859 1483.93 259.285C1483.93 233.711 1463.2 212.98 1437.62 212.98C1412.05 212.98 1391.32 233.711 1391.32 259.285C1391.32 284.859 1412.05 305.59 1437.62 305.59Z" stroke="white"/>
</g>
</mask>
<g mask="url(#mask9)">
<g style="mix-blend-mode:screen" opacity="0.4">
<path fill-rule="evenodd" clip-rule="evenodd" d="M1388.17 276.61L1519.21 253.93L1512.28 216.76L1383.13 238.18L1388.17 276.61Z" fill="url(#paint20_linear)"/>
</g>
<g style="mix-blend-mode:screen" opacity="0.4">
<path fill-rule="evenodd" clip-rule="evenodd" d="M1383.84 282.297C1403.67 279.157 1418.64 269.694 1417.29 261.159C1415.94 252.625 1398.77 248.253 1378.95 251.393C1359.12 254.533 1344.15 263.996 1345.5 272.531C1346.85 281.065 1364.02 285.437 1383.84 282.297Z" fill="url(#paint21_linear)"/>
</g>
</g>
</g>
<g opacity="0.5">
<path fill-rule="evenodd" clip-rule="evenodd" d="M662.848 365.298C635.298 349.575 626.834 313.373 643.941 284.44C661.049 255.506 697.25 244.797 724.8 260.521C752.349 276.244 760.814 312.445 743.706 341.379C726.598 370.313 690.397 381.022 662.848 365.298ZM677.751 340.093C692.046 348.252 710.83 342.695 719.707 327.682C728.584 312.669 724.192 293.884 709.897 285.725C695.602 277.567 676.817 283.124 667.94 298.137C659.063 313.15 663.456 331.935 677.751 340.093Z" fill="url(#paint22_linear)"/>
<mask id="mask10" mask-type="alpha" maskUnits="userSpaceOnUse" x="635" y="253" width="118" height="120">
<path fill-rule="evenodd" clip-rule="evenodd" d="M662.848 365.298C635.298 349.575 626.834 313.373 643.941 284.44C661.049 255.506 697.25 244.797 724.8 260.521C752.349 276.244 760.814 312.445 743.706 341.379C726.598 370.313 690.397 381.022 662.848 365.298ZM677.751 340.093C692.046 348.252 710.83 342.695 719.707 327.682C728.584 312.669 724.192 293.884 709.897 285.725C695.602 277.567 676.817 283.124 667.94 298.137C659.063 313.15 663.456 331.935 677.751 340.093Z" fill="white"/>
</mask>
<g mask="url(#mask10)">
<g style="mix-blend-mode:screen" opacity="0.4">
<path fill-rule="evenodd" clip-rule="evenodd" d="M682.038 363.802C660.389 351.447 653.737 322.999 667.181 300.262C680.624 277.526 709.072 269.11 730.721 281.466C752.369 293.822 759.021 322.27 745.578 345.006C732.134 367.743 703.687 376.158 682.038 363.802Z" fill="url(#paint23_linear)"/>
</g>
<mask id="mask11" mask-type="alpha" maskUnits="userSpaceOnUse" x="660" y="275" width="93" height="95">
<g style="mix-blend-mode:screen">
<path fill-rule="evenodd" clip-rule="evenodd" d="M682.038 363.802C660.389 351.447 653.737 322.999 667.181 300.262C680.624 277.526 709.072 269.11 730.721 281.466C752.369 293.822 759.021 322.27 745.578 345.006C732.134 367.743 703.687 376.158 682.038 363.802Z" fill="white"/>
<path fill-rule="evenodd" clip-rule="evenodd" d="M682.038 363.802C660.389 351.447 653.737 322.999 667.181 300.262C680.624 277.526 709.072 269.11 730.721 281.466C752.369 293.822 759.021 322.27 745.578 345.006C732.134 367.743 703.687 376.158 682.038 363.802Z" stroke="white"/>
</g>
</mask>
<g mask="url(#mask11)">
<g style="mix-blend-mode:screen" opacity="0.3">
<path fill-rule="evenodd" clip-rule="evenodd" d="M720.439 374.159L633.353 310.786L664.065 298.745L733.826 354.81L726.544 376.292L720.439 374.159Z" fill="url(#paint24_linear)"/>
</g>
<g style="mix-blend-mode:screen" opacity="0.4">
<path fill-rule="evenodd" clip-rule="evenodd" d="M693.408 300.619C697.697 293.845 709.846 293.776 720.543 300.466C731.241 307.155 736.436 318.07 732.146 324.843C727.857 331.617 715.708 331.686 705.011 324.996C694.313 318.306 689.118 307.392 693.408 300.619Z" fill="url(#paint25_linear)"/>
</g>
<g style="mix-blend-mode:screen" opacity="0.3">
<path fill-rule="evenodd" clip-rule="evenodd" d="M734.458 354.162L661.032 300.409L689.464 269.747L757.372 320.101L734.458 354.162Z" fill="url(#paint26_linear)"/>
</g>
</g>
</g>
</g>
<g opacity="0.3">
<path fill-rule="evenodd" clip-rule="evenodd" d="M521.72 251.268C494.17 235.545 485.706 199.343 502.813 170.41C519.921 141.476 556.122 130.767 583.672 146.491C611.221 162.214 619.686 198.415 602.578 227.349C585.471 256.283 549.269 266.992 521.72 251.268ZM536.623 226.063C550.918 234.222 569.702 228.665 578.579 213.652C587.456 198.639 583.064 179.854 568.769 171.695C554.474 163.537 535.689 169.094 526.812 184.107C517.935 199.12 522.328 217.905 536.623 226.063Z" fill="url(#paint27_linear)"/>
<mask id="mask12" mask-type="alpha" maskUnits="userSpaceOnUse" x="493" y="139" width="119" height="120">
<path fill-rule="evenodd" clip-rule="evenodd" d="M521.72 251.268C494.17 235.545 485.706 199.343 502.813 170.41C519.921 141.476 556.122 130.767 583.672 146.491C611.221 162.214 619.686 198.415 602.578 227.349C585.471 256.283 549.269 266.992 521.72 251.268ZM536.623 226.063C550.918 234.222 569.702 228.665 578.579 213.652C587.456 198.639 583.064 179.854 568.769 171.695C554.474 163.537 535.689 169.094 526.812 184.107C517.935 199.12 522.328 217.905 536.623 226.063Z" fill="white"/>
</mask>
<g mask="url(#mask12)">
<g style="mix-blend-mode:screen" opacity="0.4">
<path fill-rule="evenodd" clip-rule="evenodd" d="M540.91 249.772C519.261 237.417 512.609 208.969 526.053 186.232C539.496 163.496 567.944 155.08 589.593 167.436C611.241 179.792 617.893 208.24 604.45 230.976C591.006 253.713 562.559 262.128 540.91 249.772Z" fill="url(#paint28_linear)"/>
</g>
<mask id="mask13" mask-type="alpha" maskUnits="userSpaceOnUse" x="519" y="161" width="93" height="95">
<g style="mix-blend-mode:screen">
<path fill-rule="evenodd" clip-rule="evenodd" d="M540.91 249.772C519.261 237.417 512.609 208.969 526.053 186.232C539.496 163.496 567.944 155.08 589.593 167.436C611.241 179.792 617.893 208.24 604.45 230.976C591.006 253.713 562.559 262.128 540.91 249.772Z" fill="white"/>
<path fill-rule="evenodd" clip-rule="evenodd" d="M540.91 249.772C519.261 237.417 512.609 208.969 526.053 186.232C539.496 163.496 567.944 155.08 589.593 167.436C611.241 179.792 617.893 208.24 604.45 230.976C591.006 253.713 562.559 262.128 540.91 249.772Z" stroke="white"/>
</g>
</mask>
<g mask="url(#mask13)">
<g style="mix-blend-mode:screen" opacity="0.3">
<path fill-rule="evenodd" clip-rule="evenodd" d="M593.132 242.534L570.794 254.03L524.682 220.52L542.833 205.795L593.132 242.534Z" fill="url(#paint29_linear)"/>
</g>
<g style="mix-blend-mode:screen" opacity="0.3">
<path fill-rule="evenodd" clip-rule="evenodd" d="M599.026 248.102L567.226 224.614L593.154 194.613L625.584 217.472L599.026 248.102Z" fill="url(#paint30_linear)"/>
</g>
</g>
</g>
</g>
<path fill-rule="evenodd" clip-rule="evenodd" d="M921.809 730.982C923.742 730.982 925.309 729.415 925.309 727.482C925.309 725.549 923.742 723.982 921.809 723.982C919.876 723.982 918.309 725.549 918.309 727.482C918.309 729.415 919.876 730.982 921.809 730.982Z" fill="white"/>
<path fill-rule="evenodd" clip-rule="evenodd" d="M388.472 695.995L1507.02 618.586C1522.45 617.518 1534.43 603.442 1533.78 587.148C1533.13 570.853 1520.1 558.51 1504.66 559.578L386.117 636.987C370.684 638.055 358.7 652.13 359.351 668.425C360.002 684.719 373.04 697.063 388.472 695.995Z" fill="url(#paint31_linear)"/>
<mask id="mask14" mask-type="alpha" maskUnits="userSpaceOnUse" x="359" y="559" width="1175" height="138">
<path fill-rule="evenodd" clip-rule="evenodd" d="M388.472 695.995L1507.02 618.586C1522.45 617.518 1534.43 603.442 1533.78 587.148C1533.13 570.853 1520.1 558.51 1504.66 559.578L386.117 636.987C370.684 638.055 358.7 652.13 359.351 668.425C360.002 684.719 373.04 697.063 388.472 695.995Z" fill="white"/>
</mask>
<g mask="url(#mask14)">
<g style="mix-blend-mode:screen" opacity="0.4">
<path fill-rule="evenodd" clip-rule="evenodd" d="M638.324 661.174C645.561 661.496 651.82 655.759 652.304 648.36C652.788 640.961 647.314 634.702 640.076 634.38C632.839 634.058 626.58 639.795 626.096 647.194C625.612 654.593 631.086 660.852 638.324 661.174Z" fill="url(#paint32_linear)"/>
</g>
<g style="mix-blend-mode:screen" opacity="0.4">
<path fill-rule="evenodd" clip-rule="evenodd" d="M734.267 650.157C768.735 647.58 796.028 633.447 795.227 618.592C794.426 603.736 765.834 593.782 731.366 596.36C696.898 598.937 669.606 613.07 670.407 627.926C671.208 642.781 699.799 652.735 734.267 650.157Z" fill="url(#paint33_linear)"/>
</g>
<g style="mix-blend-mode:screen" opacity="0.4">
<path fill-rule="evenodd" clip-rule="evenodd" d="M1015.24 664.893C1052.74 662.741 1082.7 648.978 1082.17 634.153C1081.63 619.328 1050.81 609.054 1013.31 611.207C975.815 613.359 945.851 627.122 946.383 641.947C946.916 656.772 977.745 667.046 1015.24 664.893Z" fill="url(#paint34_linear)"/>
</g>
<g style="mix-blend-mode:screen" opacity="0.4">
<path fill-rule="evenodd" clip-rule="evenodd" d="M383.646 667.703L1502.19 590.294C1517.63 589.226 1529.61 575.151 1528.96 558.856C1528.31 542.562 1515.27 530.218 1499.84 531.286L381.291 608.695C365.858 609.763 353.875 623.839 354.525 640.133C355.176 656.428 368.214 668.771 383.646 667.703Z" fill="url(#paint35_linear)"/>
</g>
</g>
<rect width="21.4592" height="76.9315" rx="10.7296" transform="matrix(0.999061 0.0440191 -0.0642367 0.997936 590.168 608.639)" fill="url(#paint36_linear)"/>
<rect width="21.4592" height="76.9315" rx="10.7296" transform="matrix(0.999061 0.0440191 -0.0642367 0.997936 739.144 598.852)" fill="url(#paint37_linear)"/>
<rect width="21.4592" height="76.9315" rx="10.7296" transform="matrix(0.999061 0.0440191 -0.0642367 0.997936 888.12 589.066)" fill="#4832A6"/>
<rect width="21.4592" height="76.9315" rx="10.7296" transform="matrix(0.999061 0.0440191 -0.0642367 0.997936 1037.1 579.279)" fill="#4832A6"/>
<path fill-rule="evenodd" clip-rule="evenodd" d="M1129.28 526.633C1151.02 526.633 1168.65 509.008 1168.65 487.266C1168.65 465.525 1151.02 447.9 1129.28 447.9C1107.54 447.9 1089.92 465.525 1089.92 487.266C1089.92 509.008 1107.54 526.633 1129.28 526.633Z" fill="url(#paint38_linear)"/>
<mask id="mask15" mask-type="alpha" maskUnits="userSpaceOnUse" x="1089" y="447" width="80" height="80">
<path fill-rule="evenodd" clip-rule="evenodd" d="M1129.28 526.633C1151.02 526.633 1168.65 509.008 1168.65 487.266C1168.65 465.525 1151.02 447.9 1129.28 447.9C1107.54 447.9 1089.92 465.525 1089.92 487.266C1089.92 509.008 1107.54 526.633 1129.28 526.633Z" fill="white"/>
</mask>
<g mask="url(#mask15)">
<path opacity="0.705473" fill-rule="evenodd" clip-rule="evenodd" d="M1136.9 531.341C1148.76 529.673 1157.56 522.442 1156.54 515.19C1155.52 507.938 1145.07 503.411 1133.2 505.079C1121.34 506.747 1112.54 513.978 1113.56 521.23C1114.58 528.482 1125.03 533.009 1136.9 531.341Z" fill="url(#paint39_linear)"/>
<path d="M1091.79 509.591C1112.9 486.229 1139.46 479.941 1172.81 490.648C1176.49 491.83 1180.43 489.804 1181.61 486.123C1182.8 482.443 1180.77 478.5 1177.09 477.319C1138.65 464.977 1106.31 472.632 1081.4 500.205C1078.81 503.073 1079.03 507.5 1081.9 510.091C1084.77 512.683 1089.19 512.459 1091.79 509.591Z" fill="#583FB3"/>
<path fill-rule="evenodd" clip-rule="evenodd" d="M1099.87 499.35C1103.64 499.35 1106.7 496.294 1106.7 492.525C1106.7 488.756 1103.64 485.7 1099.87 485.7C1096.11 485.7 1093.05 488.756 1093.05 492.525C1093.05 496.294 1096.11 499.35 1099.87 499.35Z" fill="#FFBD60"/>
<path fill-rule="evenodd" clip-rule="evenodd" d="M1128.64 486.725C1132.41 486.725 1135.46 483.67 1135.46 479.9C1135.46 476.131 1132.41 473.075 1128.64 473.075C1124.87 473.075 1121.81 476.131 1121.81 479.9C1121.81 483.67 1124.87 486.725 1128.64 486.725Z" fill="#FFBD60"/>
<path fill-rule="evenodd" clip-rule="evenodd" d="M1158.69 486.725C1162.46 486.725 1165.52 483.67 1165.52 479.9C1165.52 476.131 1162.46 473.075 1158.69 473.075C1154.92 473.075 1151.87 476.131 1151.87 479.9C1151.87 483.67 1154.92 486.725 1158.69 486.725Z" fill="#FFBD60"/>
</g>
<path d="M1135.5 524.49C1140.48 523.611 1144.2 521.046 1143.8 518.76C1143.39 516.475 1139.03 515.335 1134.04 516.214C1129.05 517.093 1125.34 519.659 1125.74 521.944C1126.14 524.23 1130.51 525.37 1135.5 524.49Z" fill="#583FB3"/>
<path d="M1134.04 533.57L1133.34 522.37L1137.54 521.67L1141.04 532.87L1134.04 533.57Z" fill="#583FB3"/>
<path fill-rule="evenodd" clip-rule="evenodd" d="M1227.65 910.55L1159.83 542.363C1158.49 535.102 1151.74 530.127 1144.41 530.997L1129.34 532.785C1121.95 533.662 1116.53 540.174 1117.02 547.605L1140.85 910.55H1227.65Z" fill="url(#paint40_linear)"/>
<mask id="mask16" mask-type="alpha" maskUnits="userSpaceOnUse" x="1116" y="530" width="112" height="381">
<path fill-rule="evenodd" clip-rule="evenodd" d="M1227.65 910.55L1159.83 542.363C1158.49 535.102 1151.74 530.127 1144.41 530.997L1129.34 532.785C1121.95 533.662 1116.53 540.174 1117.02 547.605L1140.85 910.55H1227.65Z" fill="white"/>
</mask>
<g mask="url(#mask16)">
<rect x="1145.14" y="548.648" width="12.6" height="49.7" rx="6.3" transform="rotate(-7.99998 1145.14 548.648)" fill="url(#paint41_linear)"/>
<path fill-rule="evenodd" clip-rule="evenodd" d="M1135.74 572.379C1138.73 572.379 1141.15 569.957 1141.15 566.969C1141.15 563.98 1138.73 561.558 1135.74 561.558C1132.76 561.558 1130.33 563.98 1130.33 566.969C1130.33 569.957 1132.76 572.379 1135.74 572.379Z" fill="#F6F8FB"/>
<path fill-rule="evenodd" clip-rule="evenodd" d="M1138.19 587.877C1140.29 587.877 1141.98 586.182 1141.98 584.09C1141.98 581.998 1140.29 580.302 1138.19 580.302C1136.1 580.302 1134.41 581.998 1134.41 584.09C1134.41 586.182 1136.1 587.877 1138.19 587.877Z" fill="#FF6CBB"/>
<rect x="1160.15" y="645.579" width="12.6" height="49.7" rx="6.3" transform="rotate(-8 1160.15 645.579)" fill="url(#paint42_linear)"/>
<path fill-rule="evenodd" clip-rule="evenodd" d="M1150.76 669.311C1153.74 669.311 1156.17 666.888 1156.17 663.9C1156.17 660.912 1153.74 658.489 1150.76 658.489C1147.77 658.489 1145.35 660.912 1145.35 663.9C1145.35 666.888 1147.77 669.311 1150.76 669.311Z" fill="#F6F8FB"/>
<path fill-rule="evenodd" clip-rule="evenodd" d="M1153.21 684.809C1155.3 684.809 1156.99 683.113 1156.99 681.021C1156.99 678.93 1155.3 677.234 1153.21 677.234C1151.11 677.234 1149.42 678.93 1149.42 681.021C1149.42 683.113 1151.11 684.809 1153.21 684.809Z" fill="#FF6CBB"/>
<rect x="1175.16" y="742.511" width="12.6" height="49.7" rx="6.3" transform="rotate(-7.99998 1175.16 742.511)" fill="url(#paint43_linear)"/>
<path fill-rule="evenodd" clip-rule="evenodd" d="M1165.77 766.242C1168.76 766.242 1171.18 763.82 1171.18 760.831C1171.18 757.843 1168.76 755.421 1165.77 755.421C1162.78 755.421 1160.36 757.843 1160.36 760.831C1160.36 763.82 1162.78 766.242 1165.77 766.242Z" fill="#F6F8FB"/>
<path fill-rule="evenodd" clip-rule="evenodd" d="M1168.22 781.74C1170.31 781.74 1172.01 780.044 1172.01 777.953C1172.01 775.861 1170.31 774.165 1168.22 774.165C1166.13 774.165 1164.43 775.861 1164.43 777.953C1164.43 780.044 1166.13 781.74 1168.22 781.74Z" fill="#FFBD60"/>
<path opacity="0.548875" fill-rule="evenodd" clip-rule="evenodd" d="M1111.85 756.25C1111.85 756.25 1098.55 682.75 1132.15 682.75C1165.75 682.75 1154.55 836.05 1215.45 801.75C1276.35 767.45 1252.55 865.45 1250.45 866.15C1248.35 866.85 1218.95 896.25 1215.45 896.25C1211.95 896.25 1108.35 900.45 1101.35 896.25C1094.35 892.05 1111.85 756.25 1111.85 756.25Z" fill="url(#paint44_linear)"/>
<path opacity="0.548875" fill-rule="evenodd" clip-rule="evenodd" d="M1197 713.9C1197 713.9 1182.3 830.1 1128.4 836.4C1074.5 842.7 1235.5 864.4 1236.9 864.4C1238.3 864.4 1248.1 779 1246.7 770.6C1245.3 762.2 1197 713.9 1197 713.9Z" fill="url(#paint45_linear)"/>
</g>
<path fill-rule="evenodd" clip-rule="evenodd" d="M1039.85 903.845L1032.09 686.446C1031.93 681.927 1028.22 678.346 1023.69 678.346H943.458C938.875 678.346 935.137 682.02 935.059 686.603L931.35 903.845H1039.85Z" fill="url(#paint46_linear)"/>
<mask id="mask17" mask-type="alpha" maskUnits="userSpaceOnUse" x="931" y="678" width="109" height="226">
<path fill-rule="evenodd" clip-rule="evenodd" d="M1039.85 903.845L1032.09 686.446C1031.93 681.927 1028.22 678.346 1023.69 678.346H943.458C938.875 678.346 935.137 682.02 935.059 686.603L931.35 903.845H1039.85Z" fill="white"/>
</mask>
<g mask="url(#mask17)">
<path fill-rule="evenodd" clip-rule="evenodd" d="M929.95 702.146H1047.2V732.946H929.95V702.146Z" stroke="#FFBD60" stroke-width="1.4" stroke-linejoin="round"/>
<rect x="930.3" y="709.428" width="120.728" height="16.2352" fill="#F6F8FB"/>
<path fill-rule="evenodd" clip-rule="evenodd" d="M924 762.346H1041.25V793.146H924V762.346Z" stroke="#FFBD60" stroke-width="1.4" stroke-linejoin="round"/>
<rect x="924.35" y="769.628" width="120.728" height="16.2352" fill="#F6F8FB"/>
</g>
<path fill-rule="evenodd" clip-rule="evenodd" d="M951.025 646.072C953.213 646.072 954.986 644.298 954.986 642.11C954.986 639.922 953.213 638.149 951.025 638.149C948.837 638.149 947.063 639.922 947.063 642.11C947.063 644.298 948.837 646.072 951.025 646.072Z" stroke="#FFBD60" stroke-width="2.1"/>
<path d="M950.556 678.316L951.118 646.121" stroke="#FFBD60" stroke-width="2.1"/>
<path d="M946.863 675.577C946.863 673.644 948.43 672.077 950.363 672.077H951.763C953.696 672.077 955.263 673.644 955.263 675.577V678.481H946.863V675.577Z" fill="url(#paint47_linear)"/>
<path d="M967.469 678.267L968.031 611.072" stroke="#583FB3" stroke-width="2.1"/>
<path fill-rule="evenodd" clip-rule="evenodd" d="M963.55 665.641C963.55 664.481 964.49 663.541 965.65 663.541H969.85C971.01 663.541 971.95 664.481 971.95 665.641V678.346H963.55V665.641Z" fill="url(#paint48_linear)"/>
<path fill-rule="evenodd" clip-rule="evenodd" d="M964.6 629.405C964.6 628.246 965.54 627.305 966.7 627.305H968.8C969.96 627.305 970.9 628.246 970.9 629.405V633.01C970.9 634.17 969.96 635.11 968.8 635.11H966.7C965.54 635.11 964.6 634.17 964.6 633.01V629.405Z" fill="url(#paint49_linear)"/>
<path fill-rule="evenodd" clip-rule="evenodd" d="M968.031 612.194C970.737 612.194 972.931 610 972.931 607.294C972.931 604.587 970.737 602.394 968.031 602.394C965.325 602.394 963.131 604.587 963.131 607.294C963.131 610 965.325 612.194 968.031 612.194Z" fill="#FFBD60"/>
<path d="M1016.77 617.568L1019.41 648.336" stroke="#563EB2" stroke-width="4.2"/>
<path fill-rule="evenodd" clip-rule="evenodd" d="M1016.89 623.606C1021.25 623.539 1024.71 619.94 1024.62 615.567C1024.54 611.195 1020.94 607.704 1016.58 607.771C1012.23 607.839 1008.77 611.438 1008.86 615.81C1008.94 620.183 1012.54 623.674 1016.89 623.606Z" fill="#FF6CBB"/>
<path fill-rule="evenodd" clip-rule="evenodd" d="M1001.52 657.305C1006.28 650.032 1014.1 645.338 1022.76 644.567L1070.79 640.287C1076.67 639.763 1082.58 640.735 1087.99 643.113L1104.56 650.407C1110.94 653.21 1115.5 658.987 1116.76 665.833L1160.6 904.388H989.8L996.906 671.97C997.066 666.75 998.662 661.676 1001.52 657.305V657.305Z" fill="url(#paint50_linear)"/>
<path opacity="0.415341" fill-rule="evenodd" clip-rule="evenodd" d="M1013.95 718.386C1013.95 712.579 1018.53 707.806 1024.34 707.571L1072.94 705.598C1079.08 705.348 1084.2 710.24 1084.24 716.386V716.386C1084.27 722.244 1079.66 727.074 1073.8 727.302L1025.2 729.202C1019.06 729.442 1013.95 724.53 1013.95 718.386V718.386Z" fill="#253554"/>
<path opacity="0.415341" fill-rule="evenodd" clip-rule="evenodd" d="M1011.15 678.486C1011.15 672.679 1015.73 667.906 1021.54 667.671L1070.14 665.698C1076.28 665.448 1081.4 670.34 1081.44 676.486V676.486C1081.47 682.344 1076.85 687.174 1071 687.402L1022.4 689.302C1016.26 689.542 1011.15 684.63 1011.15 678.486V678.486Z" fill="#253554"/>
<path opacity="0.415341" fill-rule="evenodd" clip-rule="evenodd" d="M1076.72 743.3C1082.5 743.3 1087.26 747.842 1087.53 753.616L1089.37 792.781C1089.66 798.948 1084.75 804.115 1078.58 804.147V804.147C1072.75 804.176 1067.94 799.601 1067.68 793.78L1065.91 754.611C1065.63 748.448 1070.55 743.3 1076.72 743.3V743.3Z" fill="#253554"/>
<path opacity="0.415341" fill-rule="evenodd" clip-rule="evenodd" d="M1027.02 745.4C1032.8 745.4 1037.56 749.942 1037.83 755.716L1039.67 794.881C1039.96 801.048 1035.05 806.215 1028.88 806.247V806.247C1023.05 806.276 1018.24 801.701 1017.98 795.88L1016.21 756.711C1015.93 750.548 1020.85 745.4 1027.02 745.4V745.4Z" fill="#253554"/>
<mask id="mask18" mask-type="alpha" maskUnits="userSpaceOnUse" x="1016" y="745" width="24" height="62">
<path fill-rule="evenodd" clip-rule="evenodd" d="M1027.02 745.4C1032.8 745.4 1037.56 749.942 1037.83 755.716L1039.67 794.881C1039.96 801.048 1035.05 806.215 1028.88 806.247V806.247C1023.05 806.276 1018.24 801.701 1017.98 795.88L1016.21 756.711C1015.93 750.548 1020.85 745.4 1027.02 745.4V745.4Z" fill="white"/>
</mask>
<g mask="url(#mask18)">
</g>
<path fill-rule="evenodd" clip-rule="evenodd" d="M1009.48 675.419C1009.83 669.916 1014.28 665.569 1019.79 665.347L1070.34 663.305C1075.56 663.094 1080.15 666.709 1081.18 671.829V671.829C1082.45 678.201 1077.76 684.212 1071.26 684.515L1020.73 686.876C1014.31 687.176 1009.06 681.83 1009.48 675.419V675.419Z" fill="#FFBD60"/>
<mask id="mask19" mask-type="alpha" maskUnits="userSpaceOnUse" x="1009" y="663" width="73" height="24">
<path fill-rule="evenodd" clip-rule="evenodd" d="M1009.48 675.419C1009.83 669.916 1014.28 665.569 1019.79 665.347L1070.34 663.305C1075.56 663.094 1080.15 666.709 1081.18 671.829V671.829C1082.45 678.201 1077.76 684.212 1071.26 684.515L1020.73 686.876C1014.31 687.176 1009.06 681.83 1009.48 675.419V675.419Z" fill="white"/>
</mask>
<g mask="url(#mask19)">
<path d="M1029.89 662.544L1032.21 689.043" stroke="#FF9666" stroke-width="3.5" stroke-linecap="round" stroke-linejoin="round"/>
<path d="M1055.57 660.94L1057.89 687.438" stroke="#FF9666" stroke-width="3.5" stroke-linecap="round" stroke-linejoin="round"/>
</g>
<path fill-rule="evenodd" clip-rule="evenodd" d="M1012.28 714.919C1012.63 709.416 1017.08 705.069 1022.59 704.846L1073.14 702.804C1078.36 702.593 1082.95 706.208 1083.98 711.329V711.329C1085.25 717.7 1080.55 723.711 1074.06 724.014L1023.53 726.376C1017.11 726.676 1011.86 721.329 1012.28 714.919V714.919Z" fill="#FFBD60"/>
<mask id="mask20" mask-type="alpha" maskUnits="userSpaceOnUse" x="1012" y="702" width="73" height="25">
<path fill-rule="evenodd" clip-rule="evenodd" d="M1012.28 714.919C1012.63 709.416 1017.08 705.069 1022.59 704.846L1073.14 702.804C1078.36 702.593 1082.95 706.208 1083.98 711.329V711.329C1085.25 717.7 1080.55 723.711 1074.06 724.014L1023.53 726.376C1017.11 726.676 1011.86 721.329 1012.28 714.919V714.919Z" fill="white"/>
</mask>
<g mask="url(#mask20)">
<path d="M1032.69 702.044L1035.01 728.543" stroke="#FF9666" stroke-width="3.5" stroke-linecap="round" stroke-linejoin="round"/>
<path d="M1058.37 700.439L1060.69 726.938" stroke="#FF9666" stroke-width="3.5" stroke-linecap="round" stroke-linejoin="round"/>
</g>
<path fill-rule="evenodd" clip-rule="evenodd" d="M1022.8 829.707C1023.26 824.175 1027.83 819.869 1033.37 819.729L1083.77 818.457C1089.03 818.324 1093.59 822.041 1094.51 827.216V827.216C1095.66 833.641 1090.82 839.604 1084.29 839.811L1033.9 841.402C1027.44 841.607 1022.26 836.149 1022.8 829.707V829.707Z" fill="#FFBD60"/>
<mask id="mask21" mask-type="alpha" maskUnits="userSpaceOnUse" x="1022" y="818" width="73" height="24">
<path fill-rule="evenodd" clip-rule="evenodd" d="M1022.8 829.707C1023.26 824.175 1027.83 819.869 1033.37 819.729L1083.77 818.457C1089.03 818.324 1093.59 822.041 1094.51 827.216V827.216C1095.66 833.641 1090.82 839.604 1084.29 839.811L1033.9 841.402C1027.44 841.607 1022.26 836.149 1022.8 829.707V829.707Z" fill="white"/>
</mask>
<g mask="url(#mask21)">
<path d="M1043.43 817.113L1045.23 843.647" stroke="#FF9666" stroke-width="3.5" stroke-linecap="round" stroke-linejoin="round"/>
<path d="M1069.14 815.957L1070.94 842.491" stroke="#FF9666" stroke-width="3.5" stroke-linecap="round" stroke-linejoin="round"/>
</g>
<path fill-rule="evenodd" clip-rule="evenodd" d="M1028.48 802.188C1022.7 802.188 1017.94 797.646 1017.67 791.872L1015.83 752.707C1015.54 746.539 1020.45 741.373 1026.62 741.341V741.341C1032.45 741.311 1037.26 745.887 1037.52 751.708L1039.29 790.877C1039.57 797.04 1034.65 802.188 1028.48 802.188V802.188Z" fill="#FFBD60"/>
<mask id="mask22" mask-type="alpha" maskUnits="userSpaceOnUse" x="1015" y="741" width="25" height="62">
<path fill-rule="evenodd" clip-rule="evenodd" d="M1028.48 802.188C1022.7 802.188 1017.94 797.646 1017.67 791.872L1015.83 752.707C1015.54 746.539 1020.45 741.373 1026.62 741.341V741.341C1032.45 741.311 1037.26 745.887 1037.52 751.708L1039.29 790.877C1039.57 797.04 1034.65 802.188 1028.48 802.188V802.188Z" fill="white"/>
</mask>
<g mask="url(#mask22)">
<path d="M1012.6 771.497L1039.85 770.688" stroke="#FF9666" stroke-width="3.5" stroke-linecap="round" stroke-linejoin="round"/>
</g>
<path fill-rule="evenodd" clip-rule="evenodd" d="M1078.53 799.788C1072.75 799.788 1067.99 795.247 1067.72 789.473L1065.88 750.307C1065.59 744.14 1070.5 738.973 1076.67 738.942V738.942C1082.5 738.912 1087.31 743.488 1087.57 749.309L1089.34 788.478C1089.62 794.64 1084.7 799.788 1078.53 799.788V799.788Z" fill="#FFBD60"/>
<mask id="mask23" mask-type="alpha" maskUnits="userSpaceOnUse" x="1065" y="738" width="25" height="62">
<path fill-rule="evenodd" clip-rule="evenodd" d="M1078.53 799.788C1072.75 799.788 1067.99 795.247 1067.72 789.473L1065.88 750.307C1065.59 744.14 1070.5 738.973 1076.67 738.942V738.942C1082.5 738.912 1087.31 743.488 1087.57 749.309L1089.34 788.478C1089.62 794.64 1084.7 799.788 1078.53 799.788V799.788Z" fill="white"/>
</mask>
<g mask="url(#mask23)">
<path d="M1062.65 769.098L1089.9 768.288" stroke="#FF9666" stroke-width="3.5" stroke-linecap="round" stroke-linejoin="round"/>
</g>
<path fill-rule="evenodd" clip-rule="evenodd" d="M1356 333.45L1384 292.85L1413.6 299.681C1417.72 300.632 1420.87 303.959 1421.59 308.125L1519.8 876.65H1440.7L1356 333.45Z" fill="url(#paint51_linear)"/>
<mask id="mask24" mask-type="alpha" maskUnits="userSpaceOnUse" x="1355" y="292" width="165" height="585">
<path fill-rule="evenodd" clip-rule="evenodd" d="M1356 333.45L1384 292.85L1413.6 299.681C1417.72 300.632 1420.87 303.959 1421.59 308.125L1519.8 876.65H1440.7L1356 333.45Z" fill="white"/>
</mask>
<g mask="url(#mask24)">
<path opacity="0.415341" fill-rule="evenodd" clip-rule="evenodd" d="M1440.7 399.95C1440.7 399.95 1444.2 417.45 1413.4 427.25C1382.6 437.05 1237 453.85 1237 453.85L1236.3 479.75C1236.3 479.75 1473.6 453.85 1471.5 453.85C1469.4 453.85 1440.7 399.95 1440.7 399.95Z" fill="#253554"/>
</g>
<path fill-rule="evenodd" clip-rule="evenodd" d="M1257.3 876.65L1238.65 317.956C1238.51 313.639 1241.66 309.917 1245.94 309.349L1378.31 291.783C1382.7 291.202 1386.78 294.115 1387.65 298.448L1504.4 876.65H1257.3Z" fill="url(#paint52_linear)"/>
<rect opacity="0.415341" x="1252.3" y="339.399" width="34.4548" height="107.8" rx="10.5" transform="rotate(-7.00001 1252.3 339.399)" fill="#253554"/>
<rect opacity="0.415341" x="1333.5" y="330.299" width="34.4548" height="107.8" rx="10.5" transform="rotate(-7.00001 1333.5 330.299)" fill="#253554"/>
<path opacity="0.415341" fill-rule="evenodd" clip-rule="evenodd" d="M1294.12 688.664C1293.4 681.113 1298.82 674.361 1306.35 673.436L1312.64 672.664C1320.5 671.699 1327.6 677.442 1328.29 685.332L1342.41 845.752C1343.09 853.47 1337.37 860.272 1329.65 860.929L1324.55 861.363C1316.9 862.014 1310.15 856.386 1309.42 848.746L1294.12 688.664Z" fill="#253554"/>
<path opacity="0.415341" fill-rule="evenodd" clip-rule="evenodd" d="M1392.12 674.664C1391.4 667.113 1396.82 660.361 1404.35 659.436L1410.64 658.664C1418.5 657.699 1425.6 663.442 1426.29 671.332L1440.41 831.752C1441.09 839.47 1435.37 846.272 1427.65 846.929L1422.55 847.363C1414.9 848.014 1408.15 842.386 1407.42 834.746L1392.12 674.664Z" fill="#253554"/>
<path opacity="0.415341" fill-rule="evenodd" clip-rule="evenodd" d="M1399.12 674.664C1398.4 667.113 1403.82 660.361 1411.35 659.436L1417.64 658.664C1425.5 657.699 1432.6 663.442 1433.29 671.332L1447.41 831.752C1448.09 839.47 1442.37 846.272 1434.65 846.929L1429.55 847.363C1421.9 848.014 1415.15 842.386 1414.42 834.746L1399.12 674.664Z" fill="#253554"/>
<mask id="mask25" mask-type="alpha" maskUnits="userSpaceOnUse" x="1393" y="656" width="62" height="194">
<path fill-rule="evenodd" clip-rule="evenodd" d="M1399.12 674.664C1398.4 667.113 1403.82 660.361 1411.35 659.436L1417.64 658.664C1425.5 657.699 1432.6 663.442 1433.29 671.332L1447.41 831.752C1448.09 839.47 1442.37 846.272 1434.65 846.929L1429.55 847.363C1421.9 848.014 1415.15 842.386 1414.42 834.746L1399.12 674.664Z" fill="white"/>
</mask>
<g mask="url(#mask25)">
</g>
<path opacity="0.415341" fill-rule="evenodd" clip-rule="evenodd" d="M1225.8 650.55L1471.5 640.75L1468 612.75L1222.3 627.45L1225.8 650.55Z" fill="#253554"/>
<rect x="1251.21" y="332.451" width="34.4548" height="107.8" rx="10.5" transform="rotate(-7.00001 1251.21 332.451)" fill="#FFBD60"/>
<mask id="mask26" mask-type="alpha" maskUnits="userSpaceOnUse" x="1251" y="328" width="48" height="112">
<rect x="1251.21" y="332.451" width="34.4548" height="107.8" rx="10.5" transform="rotate(-7.00001 1251.21 332.451)" fill="white"/>
</mask>
<g mask="url(#mask26)">
<path d="M1247.44 357.823L1294.46 350.377" stroke="#FF9666" stroke-width="3.5" stroke-linecap="round" stroke-linejoin="round"/>
<path d="M1250.94 387.048L1297.96 379.602" stroke="#FF9666" stroke-width="3.5" stroke-linecap="round" stroke-linejoin="round"/>
<path d="M1254.44 416.273L1301.46 408.827" stroke="#FF9666" stroke-width="3.5" stroke-linecap="round" stroke-linejoin="round"/>
</g>
<path fill-rule="evenodd" clip-rule="evenodd" d="M1381.38 672.676C1380.66 665.125 1386.08 658.373 1393.61 657.448L1399.9 656.676C1407.76 655.711 1414.85 661.454 1415.55 669.344L1429.67 829.764C1430.35 837.482 1424.63 844.284 1416.91 844.941L1411.8 845.375C1404.16 846.026 1397.41 840.398 1396.68 832.758L1381.38 672.676Z" fill="#FFBD60"/>
<mask id="mask27" mask-type="alpha" maskUnits="userSpaceOnUse" x="1375" y="654" width="62" height="194">
<path fill-rule="evenodd" clip-rule="evenodd" d="M1381.38 672.676C1380.66 665.125 1386.08 658.373 1393.61 657.448L1399.9 656.676C1407.76 655.711 1414.85 661.454 1415.55 669.344L1429.67 829.764C1430.35 837.482 1424.63 844.284 1416.91 844.941L1411.8 845.375C1404.16 846.026 1397.41 840.398 1396.68 832.758L1381.38 672.676Z" fill="white"/>
</mask>
<g mask="url(#mask27)">
<path d="M1375.38 704.138L1422.72 699.162" stroke="#FF9666" stroke-width="3.5" stroke-linecap="round" stroke-linejoin="round"/>
<path d="M1375.38 753.488L1422.72 748.512" stroke="#FF9666" stroke-width="3.5" stroke-linecap="round" stroke-linejoin="round"/>
<path d="M1381.33 802.838L1428.67 797.862" stroke="#FF9666" stroke-width="3.5" stroke-linecap="round" stroke-linejoin="round"/>
</g>
<path fill-rule="evenodd" clip-rule="evenodd" d="M1287.51 675.144C1286.78 667.593 1292.21 660.841 1299.74 659.917L1306.02 659.144C1313.89 658.179 1320.98 663.922 1321.68 671.813L1335.8 832.232C1336.48 839.95 1330.76 846.752 1323.04 847.409L1317.93 847.844C1310.28 848.494 1303.54 842.867 1302.81 835.226L1287.51 675.144Z" fill="#FFBD60"/>
<mask id="mask28" mask-type="alpha" maskUnits="userSpaceOnUse" x="1281" y="657" width="62" height="193">
<path fill-rule="evenodd" clip-rule="evenodd" d="M1287.51 675.144C1286.78 667.593 1292.21 660.841 1299.74 659.917L1306.02 659.144C1313.89 658.179 1320.98 663.922 1321.68 671.813L1335.8 832.232C1336.48 839.95 1330.76 846.752 1323.04 847.409L1317.93 847.844C1310.28 848.494 1303.54 842.867 1302.81 835.226L1287.51 675.144Z" fill="white"/>
</mask>
<g mask="url(#mask28)">
<path d="M1281.51 706.606L1328.85 701.631" stroke="#FF9666" stroke-width="3.5" stroke-linecap="round" stroke-linejoin="round"/>
<path d="M1281.51 755.956L1328.85 750.981" stroke="#FF9666" stroke-width="3.5" stroke-linecap="round" stroke-linejoin="round"/>
<path d="M1287.46 805.306L1334.8 800.331" stroke="#FF9666" stroke-width="3.5" stroke-linecap="round" stroke-linejoin="round"/>
</g>
<rect x="1332.41" y="323.351" width="34.4548" height="107.8" rx="10.5" transform="rotate(-7.00002 1332.41 323.351)" fill="#FFBD60"/>
<mask id="mask29" mask-type="alpha" maskUnits="userSpaceOnUse" x="1332" y="319" width="48" height="112">
<rect x="1332.41" y="323.351" width="34.4548" height="107.8" rx="10.5" transform="rotate(-7.00002 1332.41 323.351)" fill="white"/>
</mask>
<g mask="url(#mask29)">
<path d="M1328.64 348.723L1375.66 341.277" stroke="#FF9666" stroke-width="3.5" stroke-linecap="round" stroke-linejoin="round"/>
<path d="M1332.14 377.948L1379.16 370.502" stroke="#FF9666" stroke-width="3.5" stroke-linecap="round" stroke-linejoin="round"/>
<path d="M1335.64 407.173L1382.66 399.727" stroke="#FF9666" stroke-width="3.5" stroke-linecap="round" stroke-linejoin="round"/>
</g>
<path fill-rule="evenodd" clip-rule="evenodd" d="M1447 604.35L1416.9 437.05H1457.17C1460.59 437.05 1463.51 439.521 1464.08 442.894L1490.4 600.15L1447 604.35Z" fill="url(#paint53_linear)"/>
<path fill-rule="evenodd" clip-rule="evenodd" d="M1228.74 465.108C1228.66 461.502 1231.33 458.424 1234.91 457.998L1416.06 436.417C1419.69 435.984 1423.05 438.421 1423.76 442.009L1458.76 618.969C1459.58 623.1 1456.59 627.013 1452.39 627.31L1240.12 642.332C1236.14 642.614 1232.72 639.505 1232.63 635.509L1228.74 465.108Z" fill="url(#paint54_linear)"/>
<rect opacity="0.415341" x="1252.34" y="487.597" width="160.65" height="44.52" rx="16.8" transform="rotate(-6 1252.34 487.597)" fill="#253554"/>
<rect opacity="0.415341" x="1280.34" y="570.197" width="160.65" height="44.52" rx="16.8" transform="rotate(-6 1280.34 570.197)" fill="#253554"/>
<rect width="160.716" height="44.1047" rx="16.8" transform="matrix(0.995434 -0.107283 0.100697 0.993694 1247.01 481.158)" fill="#E2E7F4"/>
<rect width="155.203" height="36.6705" rx="14" transform="matrix(0.996593 -0.107459 0.0928364 0.993329 1250.18 484.577)" fill="#FFBD60"/>
<mask id="mask30" mask-type="alpha" maskUnits="userSpaceOnUse" x="1251" y="469" width="157" height="51">
<rect width="155.203" height="36.6705" rx="14" transform="matrix(0.996593 -0.107459 0.0928364 0.993329 1250.18 484.577)" fill="white"/>
</mask>
<g mask="url(#mask30)">
<path d="M1283.88 479.865L1287.44 520.635" stroke="#FF9666" stroke-width="3.5" stroke-linecap="round" stroke-linejoin="round"/>
<path d="M1327.44 474.065L1331.01 514.836" stroke="#FF9666" stroke-width="3.5" stroke-linecap="round" stroke-linejoin="round"/>
<path d="M1370.43 468.528L1373.99 509.299" stroke="#FF9666" stroke-width="3.5" stroke-linecap="round" stroke-linejoin="round"/>
<path opacity="0.503664" fill-rule="evenodd" clip-rule="evenodd" d="M1251.08 515.645L1410.51 497.341L1411.73 513.82L1250.9 533.567L1251.08 515.645Z" fill="#FF9666"/>
</g>
<rect width="160.716" height="44.1047" rx="16.8" transform="matrix(0.995434 -0.107283 0.100697 0.993694 1261.71 564.211)" fill="#E2E7F4"/>
<rect width="155.203" height="36.6705" rx="14" transform="matrix(0.996593 -0.107459 0.0928363 0.993329 1264.88 567.629)" fill="#FFBD60"/>
<mask id="mask31" mask-type="alpha" maskUnits="userSpaceOnUse" x="1266" y="552" width="156" height="51">
<rect width="155.203" height="36.6705" rx="14" transform="matrix(0.996593 -0.107459 0.0928363 0.993329 1264.88 567.629)" fill="white"/>
</mask>
<g mask="url(#mask31)">
<path opacity="0.503664" fill-rule="evenodd" clip-rule="evenodd" d="M1251.09 601.093L1410.19 579.885L1411.7 596.368L1251.21 619.048L1251.09 601.093Z" fill="#FF9666"/>
<path d="M1298.58 562.917L1302.14 603.688" stroke="#FF9666" stroke-width="3.5" stroke-linecap="round" stroke-linejoin="round"/>
<path d="M1342.14 557.118L1345.71 597.889" stroke="#FF9666" stroke-width="3.5" stroke-linecap="round" stroke-linejoin="round"/>
<path d="M1385.13 551.581L1388.69 592.351" stroke="#FF9666" stroke-width="3.5" stroke-linecap="round" stroke-linejoin="round"/>
</g>
<path fill-rule="evenodd" clip-rule="evenodd" d="M958.3 869.794L936.437 608.809C936.134 605.182 933.101 602.394 929.462 602.394H827.921C824.125 602.394 821.021 605.418 820.923 609.212L814.1 871.894L958.3 869.794Z" fill="url(#paint55_linear)"/>
<mask id="mask32" mask-type="alpha" maskUnits="userSpaceOnUse" x="814" y="602" width="145" height="270">
<path fill-rule="evenodd" clip-rule="evenodd" d="M958.3 869.794L936.437 608.809C936.134 605.182 933.101 602.394 929.462 602.394H827.921C824.125 602.394 821.021 605.418 820.923 609.212L814.1 871.894L958.3 869.794Z" fill="white"/>
</mask>
<g mask="url(#mask32)">
<path d="M923.06 621.603C926.02 621.603 928.419 619.204 928.419 616.244C928.419 613.284 926.02 610.884 923.06 610.884C920.1 610.884 917.7 613.284 917.7 616.244C917.7 619.204 920.1 621.603 923.06 621.603Z" fill="#583FB3"/>
<path fill-rule="evenodd" clip-rule="evenodd" d="M910.033 620.145C912.188 620.145 913.935 618.399 913.935 616.244C913.935 614.089 912.188 612.342 910.033 612.342C907.878 612.342 906.131 614.089 906.131 616.244C906.131 618.399 907.878 620.145 910.033 620.145Z" fill="#FF6CBB"/>
<path d="M930.428 726.719C933.388 726.719 935.788 724.32 935.788 721.36C935.788 718.4 933.388 716 930.428 716C927.468 716 925.069 718.4 925.069 721.36C925.069 724.32 927.468 726.719 930.428 726.719Z" fill="#583FB3"/>
<path fill-rule="evenodd" clip-rule="evenodd" d="M917.402 725.261C919.557 725.261 921.303 723.514 921.303 721.36C921.303 719.205 919.557 717.458 917.402 717.458C915.247 717.458 913.5 719.205 913.5 721.36C913.5 723.514 915.247 725.261 917.402 725.261Z" fill="#FF6CBB"/>
<rect x="805.791" y="647.179" width="146.909" height="59.0366" fill="#E2E7F4"/>
<path fill-rule="evenodd" clip-rule="evenodd" d="M800.146 761.286L962.454 761.064V820.101L800.146 820.323V761.286Z" fill="#E2E7F4"/>
<rect x="809.9" y="651.497" width="142.709" height="49.8576" fill="url(#paint56_linear)"/>
<mask id="mask33" mask-type="alpha" maskUnits="userSpaceOnUse" x="809" y="651" width="144" height="51">
<rect x="809.9" y="651.497" width="142.709" height="49.8576" fill="white"/>
</mask>
<g mask="url(#mask33)">
<path d="M881.3 643.694V707.394" stroke="#5D7CFF" stroke-width="3.5"/>
</g>
<path fill-rule="evenodd" clip-rule="evenodd" d="M781.9 765.494H973.609V815.351H781.9V765.494Z" fill="url(#paint57_linear)"/>
<mask id="mask34" mask-type="alpha" maskUnits="userSpaceOnUse" x="781" y="765" width="193" height="51">
<path fill-rule="evenodd" clip-rule="evenodd" d="M781.9 765.494H973.609V815.351H781.9V765.494Z" fill="white"/>
</mask>
<g mask="url(#mask34)">
<path d="M881.3 760.594V822.894" stroke="#5D7CFF" stroke-width="3.5"/>
</g>
</g>
</g>
<defs>
<linearGradient id="paint0_linear" x1="657.589" y1="1152.11" x2="1171.52" y2="228.566" gradientUnits="userSpaceOnUse">
<stop stop-color="#FFC5A4"/>
<stop offset="0.376046" stop-color="#FA6CBE"/>
<stop offset="1" stop-color="#8E62FF"/>
</linearGradient>
<linearGradient id="paint1_linear" x1="561.604" y1="71.5707" x2="-2.45048" y2="793.81" gradientUnits="userSpaceOnUse">
<stop stop-color="#FF87C7"/>
<stop offset="1" stop-color="#FFBD60"/>
</linearGradient>
<linearGradient id="paint2_linear" x1="346.937" y1="369.661" x2="1948.49" y2="1113.76" gradientUnits="userSpaceOnUse">
<stop stop-color="#FFA492" stop-opacity="0.01"/>
<stop offset="0.300844" stop-color="#CA3891"/>
<stop offset="1" stop-color="#3E13AF"/>
</linearGradient>
<linearGradient id="paint3_linear" x1="1627.48" y1="588.473" x2="1757.6" y2="-199.308" gradientUnits="userSpaceOnUse">
<stop stop-color="#FFA492"/>
<stop offset="0.216626" stop-color="#CA3891"/>
<stop offset="1" stop-color="#3E13AF"/>
</linearGradient>
<linearGradient id="paint4_linear" x1="1430.32" y1="297.768" x2="1438.34" y2="215.018" gradientUnits="userSpaceOnUse">
<stop stop-color="#FFA492"/>
<stop offset="0.216626" stop-color="#CA3891"/>
<stop offset="1" stop-color="#3E13AF"/>
</linearGradient>
<linearGradient id="paint5_linear" x1="1107.28" y1="348.079" x2="1137.86" y2="297.328" gradientUnits="userSpaceOnUse">
<stop stop-color="#FFA492"/>
<stop offset="0.216626" stop-color="#CA3891"/>
<stop offset="1" stop-color="#3E13AF"/>
</linearGradient>
<linearGradient id="paint6_linear" x1="1067.6" y1="363.518" x2="1078.35" y2="274.903" gradientUnits="userSpaceOnUse">
<stop stop-color="#FFA492"/>
<stop offset="0.216626" stop-color="#CA3891"/>
<stop offset="1" stop-color="#3E13AF"/>
</linearGradient>
<linearGradient id="paint7_linear" x1="768.224" y1="335.194" x2="758.19" y2="235.84" gradientUnits="userSpaceOnUse">
<stop stop-color="#FFA492"/>
<stop offset="0.216626" stop-color="#CA3891"/>
<stop offset="1" stop-color="#3E13AF"/>
</linearGradient>
<linearGradient id="paint8_linear" x1="950.139" y1="250.132" x2="1018.48" y2="410.854" gradientUnits="userSpaceOnUse">
<stop stop-color="#F393AA"/>
<stop offset="1" stop-color="#B81375"/>
</linearGradient>
<linearGradient id="paint9_linear" x1="1169.35" y1="390.278" x2="1194.59" y2="276.76" gradientUnits="userSpaceOnUse">
<stop stop-color="#FFA492"/>
<stop offset="0.216626" stop-color="#CA3891"/>
<stop offset="1" stop-color="#3E13AF"/>
</linearGradient>
<linearGradient id="paint10_linear" x1="1139.09" y1="376.451" x2="1184.28" y2="241.089" gradientUnits="userSpaceOnUse">
<stop stop-color="#FFA492"/>
<stop offset="0.216626" stop-color="#CA3891"/>
<stop offset="1" stop-color="#3E13AF"/>
</linearGradient>
<linearGradient id="paint11_linear" x1="1067.85" y1="363.309" x2="1078.6" y2="274.694" gradientUnits="userSpaceOnUse">
<stop stop-color="#FFA492"/>
<stop offset="0.216626" stop-color="#CA3891"/>
<stop offset="1" stop-color="#3E13AF"/>
</linearGradient>
<linearGradient id="paint12_linear" x1="766.179" y1="282.262" x2="834.525" y2="442.984" gradientUnits="userSpaceOnUse">
<stop stop-color="#F393AA"/>
<stop offset="1" stop-color="#B81375"/>
</linearGradient>
<linearGradient id="paint13_linear" x1="963.999" y1="419.76" x2="989.537" y2="314.514" gradientUnits="userSpaceOnUse">
<stop stop-color="#FFA492"/>
<stop offset="0.216626" stop-color="#CA3891"/>
<stop offset="1" stop-color="#3E13AF"/>
</linearGradient>
<linearGradient id="paint14_linear" x1="956.208" y1="404.244" x2="998.367" y2="274.403" gradientUnits="userSpaceOnUse">
<stop stop-color="#FFA492"/>
<stop offset="0.216626" stop-color="#CA3891"/>
<stop offset="1" stop-color="#3E13AF"/>
</linearGradient>
<linearGradient id="paint15_linear" x1="1129.69" y1="219.892" x2="1198.03" y2="380.614" gradientUnits="userSpaceOnUse">
<stop stop-color="#F393AA"/>
<stop offset="1" stop-color="#B81375"/>
</linearGradient>
<linearGradient id="paint16_linear" x1="1356.37" y1="359.478" x2="1380.07" y2="245.267" gradientUnits="userSpaceOnUse">
<stop stop-color="#FFA492"/>
<stop offset="0.216626" stop-color="#CA3891"/>
<stop offset="1" stop-color="#3E13AF"/>
</linearGradient>
<linearGradient id="paint17_linear" x1="1357.57" y1="349.843" x2="1398.25" y2="196.338" gradientUnits="userSpaceOnUse">
<stop stop-color="#FFA492"/>
<stop offset="0.216626" stop-color="#CA3891"/>
<stop offset="1" stop-color="#3E13AF"/>
</linearGradient>
<linearGradient id="paint18_linear" x1="1304.69" y1="189.792" x2="1373.03" y2="350.514" gradientUnits="userSpaceOnUse">
<stop stop-color="#F393AA"/>
<stop offset="1" stop-color="#B81375"/>
</linearGradient>
<linearGradient id="paint19_linear" x1="1493.02" y1="372.332" x2="1605.39" y2="185.821" gradientUnits="userSpaceOnUse">
<stop stop-color="#FFA492"/>
<stop offset="0.216626" stop-color="#CA3891"/>
<stop offset="1" stop-color="#3E13AF"/>
</linearGradient>
<linearGradient id="paint20_linear" x1="1532.57" y1="319.743" x2="1573.25" y2="166.238" gradientUnits="userSpaceOnUse">
<stop stop-color="#FFA492"/>
<stop offset="0.216626" stop-color="#CA3891"/>
<stop offset="1" stop-color="#3E13AF"/>
</linearGradient>
<linearGradient id="paint21_linear" x1="1430.32" y1="297.768" x2="1438.34" y2="215.018" gradientUnits="userSpaceOnUse">
<stop stop-color="#FFA492"/>
<stop offset="0.216626" stop-color="#CA3891"/>
<stop offset="1" stop-color="#3E13AF"/>
</linearGradient>
<linearGradient id="paint22_linear" x1="863.158" y1="322.903" x2="713.43" y2="435.677" gradientUnits="userSpaceOnUse">
<stop stop-color="#F393AA"/>
<stop offset="1" stop-color="#B81375"/>
</linearGradient>
<linearGradient id="paint23_linear" x1="600.056" y1="396.375" x2="590.152" y2="176.845" gradientUnits="userSpaceOnUse">
<stop stop-color="#FFA492"/>
<stop offset="0.216626" stop-color="#CA3891"/>
<stop offset="1" stop-color="#3E13AF"/>
</linearGradient>
<linearGradient id="paint24_linear" x1="806.368" y1="384.221" x2="624.807" y2="519.109" gradientUnits="userSpaceOnUse">
<stop stop-color="#FFA492"/>
<stop offset="0.216626" stop-color="#CA3891"/>
<stop offset="1" stop-color="#3E13AF"/>
</linearGradient>
<linearGradient id="paint25_linear" x1="674.781" y1="268.486" x2="764.286" y2="250.629" gradientUnits="userSpaceOnUse">
<stop stop-color="#FFA492"/>
<stop offset="0.216626" stop-color="#CA3891"/>
<stop offset="1" stop-color="#3E13AF"/>
</linearGradient>
<linearGradient id="paint26_linear" x1="765.19" y1="415.065" x2="860.993" y2="224.312" gradientUnits="userSpaceOnUse">
<stop stop-color="#FFA492"/>
<stop offset="0.216626" stop-color="#CA3891"/>
<stop offset="1" stop-color="#3E13AF"/>
</linearGradient>
<linearGradient id="paint27_linear" x1="722.03" y1="208.873" x2="572.302" y2="321.647" gradientUnits="userSpaceOnUse">
<stop stop-color="#F393AA"/>
<stop offset="1" stop-color="#B81375"/>
</linearGradient>
<linearGradient id="paint28_linear" x1="458.928" y1="282.345" x2="449.024" y2="62.815" gradientUnits="userSpaceOnUse">
<stop stop-color="#FFA492"/>
<stop offset="0.216626" stop-color="#CA3891"/>
<stop offset="1" stop-color="#3E13AF"/>
</linearGradient>
<linearGradient id="paint29_linear" x1="642.302" y1="253.132" x2="532.02" y2="352.18" gradientUnits="userSpaceOnUse">
<stop stop-color="#FFA492"/>
<stop offset="0.216626" stop-color="#CA3891"/>
<stop offset="1" stop-color="#3E13AF"/>
</linearGradient>
<linearGradient id="paint30_linear" x1="630.103" y1="285.586" x2="691.142" y2="168.483" gradientUnits="userSpaceOnUse">
<stop stop-color="#FFA492"/>
<stop offset="0.216626" stop-color="#CA3891"/>
<stop offset="1" stop-color="#3E13AF"/>
</linearGradient>
<linearGradient id="paint31_linear" x1="254.948" y1="670.011" x2="1474.61" y2="1761" gradientUnits="userSpaceOnUse">
<stop stop-color="#FFA492" stop-opacity="0.01"/>
<stop offset="0.300844" stop-color="#CA3891"/>
<stop offset="1" stop-color="#3E13AF"/>
</linearGradient>
<linearGradient id="paint32_linear" x1="652.738" y1="681.182" x2="688.632" y2="629.024" gradientUnits="userSpaceOnUse">
<stop stop-color="#FFA492"/>
<stop offset="0.216626" stop-color="#CA3891"/>
<stop offset="1" stop-color="#3E13AF"/>
</linearGradient>
<linearGradient id="paint33_linear" x1="811.025" y1="683.345" x2="836.827" y2="541.831" gradientUnits="userSpaceOnUse">
<stop stop-color="#FFA492"/>
<stop offset="0.216626" stop-color="#CA3891"/>
<stop offset="1" stop-color="#3E13AF"/>
</linearGradient>
<linearGradient id="paint34_linear" x1="1097.86" y1="698.922" x2="1123.29" y2="557.065" gradientUnits="userSpaceOnUse">
<stop stop-color="#FFA492"/>
<stop offset="0.216626" stop-color="#CA3891"/>
<stop offset="1" stop-color="#3E13AF"/>
</linearGradient>
<linearGradient id="paint35_linear" x1="1625.73" y1="856.495" x2="1696.47" y2="353.2" gradientUnits="userSpaceOnUse">
<stop stop-color="#FFA492"/>
<stop offset="0.216626" stop-color="#CA3891"/>
<stop offset="1" stop-color="#3E13AF"/>
</linearGradient>
<linearGradient id="paint36_linear" x1="0" y1="0" x2="0" y2="76.9315" gradientUnits="userSpaceOnUse">
<stop stop-color="#F393AA"/>
<stop offset="1" stop-color="#D44399"/>
</linearGradient>
<linearGradient id="paint37_linear" x1="0" y1="0" x2="0" y2="76.9315" gradientUnits="userSpaceOnUse">
<stop stop-color="#F393AA"/>
<stop offset="1" stop-color="#D44399"/>
</linearGradient>
<linearGradient id="paint38_linear" x1="1214.85" y1="663.297" x2="1363.74" y2="391.056" gradientUnits="userSpaceOnUse">
<stop stop-color="#FFA492"/>
<stop offset="0.43169" stop-color="#CA3891"/>
<stop offset="1" stop-color="#3E13AF"/>
</linearGradient>
<linearGradient id="paint39_linear" x1="1188.94" y1="561.659" x2="1205.94" y2="461.04" gradientUnits="userSpaceOnUse">
<stop stop-color="#FFA492"/>
<stop offset="0.359822" stop-color="#CA3891"/>
<stop offset="1" stop-color="#3E13AF"/>
</linearGradient>
<linearGradient id="paint40_linear" x1="1305.13" y1="1309.52" x2="1915.65" y2="964.927" gradientUnits="userSpaceOnUse">
<stop stop-color="#FFA492"/>
<stop offset="0.43169" stop-color="#CA3891"/>
<stop offset="1" stop-color="#3E13AF"/>
</linearGradient>
<linearGradient id="paint41_linear" x1="1153.9" y1="658.389" x2="1187.84" y2="651.06" gradientUnits="userSpaceOnUse">
<stop stop-color="#74C3FF"/>
<stop offset="1" stop-color="#5C79FF"/>
</linearGradient>
<linearGradient id="paint42_linear" x1="1168.91" y1="755.321" x2="1202.85" y2="747.991" gradientUnits="userSpaceOnUse">
<stop stop-color="#74C3FF"/>
<stop offset="1" stop-color="#5C79FF"/>
</linearGradient>
<linearGradient id="paint43_linear" x1="1183.93" y1="852.252" x2="1217.86" y2="844.922" gradientUnits="userSpaceOnUse">
<stop stop-color="#74C3FF"/>
<stop offset="1" stop-color="#5C79FF"/>
</linearGradient>
<linearGradient id="paint44_linear" x1="1366.16" y1="1123.58" x2="1746.48" y2="587.282" gradientUnits="userSpaceOnUse">
<stop stop-color="#FFA492"/>
<stop offset="0.43169" stop-color="#CA3891"/>
<stop offset="1" stop-color="#3E13AF"/>
</linearGradient>
<linearGradient id="paint45_linear" x1="1253.33" y1="1016.34" x2="1473.88" y2="714.456" gradientUnits="userSpaceOnUse">
<stop stop-color="#FFA492"/>
<stop offset="0.397722" stop-color="#CA3891"/>
<stop offset="1" stop-color="#3E13AF"/>
</linearGradient>
<linearGradient id="paint46_linear" x1="1115.24" y1="1139.92" x2="1536.04" y2="749.324" gradientUnits="userSpaceOnUse">
<stop stop-color="#FFA492"/>
<stop offset="0.43169" stop-color="#CA3891"/>
<stop offset="1" stop-color="#3E13AF"/>
</linearGradient>
<linearGradient id="paint47_linear" x1="969.691" y1="701.81" x2="978.582" y2="665.574" gradientUnits="userSpaceOnUse">
<stop stop-color="#FFA492"/>
<stop offset="0.536699" stop-color="#CA3891"/>
<stop offset="1" stop-color="#3E13AF"/>
</linearGradient>
<linearGradient id="paint48_linear" x1="979.2" y1="724.533" x2="1020.99" y2="674.683" gradientUnits="userSpaceOnUse">
<stop stop-color="#FFA492"/>
<stop offset="0.43169" stop-color="#CA3891"/>
<stop offset="1" stop-color="#3E13AF"/>
</linearGradient>
<linearGradient id="paint49_linear" x1="969.349" y1="645.037" x2="980.614" y2="632.597" gradientUnits="userSpaceOnUse">
<stop stop-color="#FF6CBB"/>
<stop offset="1" stop-color="#8E62FF"/>
</linearGradient>
<linearGradient id="paint50_linear" x1="1118.54" y1="1241.32" x2="1499.79" y2="905.046" gradientUnits="userSpaceOnUse">
<stop stop-color="#FF6CBB"/>
<stop offset="1" stop-color="#8E62FF"/>
</linearGradient>
<linearGradient id="paint51_linear" x1="1492.63" y1="1261.18" x2="1897.72" y2="1079.1" gradientUnits="userSpaceOnUse">
<stop stop-color="#FF6CBB"/>
<stop offset="1" stop-color="#8E62FF"/>
</linearGradient>
<linearGradient id="paint52_linear" x1="1438.9" y1="1621.87" x2="2200.71" y2="1148.72" gradientUnits="userSpaceOnUse">
<stop stop-color="#FF6CBB"/>
<stop offset="1" stop-color="#8E62FF"/>
</linearGradient>
<linearGradient id="paint53_linear" x1="1460.75" y1="692.414" x2="1549.09" y2="529.36" gradientUnits="userSpaceOnUse">
<stop stop-color="#FF6CBB"/>
<stop offset="1" stop-color="#8E62FF"/>
</linearGradient>
<linearGradient id="paint54_linear" x1="1250.13" y1="980.948" x2="1537.41" y2="588.563" gradientUnits="userSpaceOnUse">
<stop stop-color="#FF6CBB"/>
<stop offset="1" stop-color="#8E62FF"/>
</linearGradient>
<linearGradient id="paint55_linear" x1="950.199" y1="942.866" x2="950.199" y2="602.394" gradientUnits="userSpaceOnUse">
<stop stop-color="#74C3FF"/>
<stop offset="1" stop-color="#5C79FF"/>
</linearGradient>
<linearGradient id="paint56_linear" x1="817.391" y1="616.926" x2="779.855" y2="746.878" gradientUnits="userSpaceOnUse">
<stop stop-color="#6BE5FF"/>
<stop offset="1" stop-color="#5C79FF"/>
</linearGradient>
<linearGradient id="paint57_linear" x1="766.49" y1="723.76" x2="730.478" y2="884.482" gradientUnits="userSpaceOnUse">
<stop stop-color="#6BE5FF"/>
<stop offset="1" stop-color="#5C79FF"/>
</linearGradient>
</defs>
</svg>
