<svg width="5001" height="884" viewBox="0 0 5001 884" fill="none" xmlns="http://www.w3.org/2000/svg">
<path opacity="0.2" fill-rule="evenodd" clip-rule="evenodd" d="M0 0H5001V868.429C2308.82 940.511 2526.55 736 0 788V0Z" fill="url(#paint0_linear)"/>
<path fill-rule="evenodd" clip-rule="evenodd" d="M0 0H5001V868.823C2308.82 940.938 2781.81 669.182 0 669.182V0Z" fill="url(#paint1_linear)"/>
<mask id="mask0" mask-type="alpha" maskUnits="userSpaceOnUse" x="0" y="0" width="5001" height="881">
<path fill-rule="evenodd" clip-rule="evenodd" d="M0 0H5001V868.823C2308.82 940.938 2781.81 669.182 0 669.182V0Z" fill="white"/>
</mask>
<g mask="url(#mask0)">
<path opacity="0.5" fill-rule="evenodd" clip-rule="evenodd" d="M2887.7 371.6C2889.63 371.6 2891.2 370.033 2891.2 368.1C2891.2 366.167 2889.63 364.6 2887.7 364.6C2885.77 364.6 2884.2 366.167 2884.2 368.1C2884.2 370.033 2885.77 371.6 2887.7 371.6Z" fill="white"/>
<path opacity="0.5" fill-rule="evenodd" clip-rule="evenodd" d="M3097.7 329.6C3099.63 329.6 3101.2 328.033 3101.2 326.1C3101.2 324.167 3099.63 322.6 3097.7 322.6C3095.77 322.6 3094.2 324.167 3094.2 326.1C3094.2 328.033 3095.77 329.6 3097.7 329.6Z" fill="white"/>
<path opacity="0.5" fill-rule="evenodd" clip-rule="evenodd" d="M2989.81 772.982C2991.74 772.982 2993.31 771.415 2993.31 769.482C2993.31 767.549 2991.74 765.982 2989.81 765.982C2987.88 765.982 2986.31 767.549 2986.31 769.482C2986.31 771.415 2987.88 772.982 2989.81 772.982Z" fill="white"/>
<path opacity="0.3" fill-rule="evenodd" clip-rule="evenodd" d="M2663.7 462.6C2665.63 462.6 2667.2 461.033 2667.2 459.1C2667.2 457.167 2665.63 455.6 2663.7 455.6C2661.77 455.6 2660.2 457.167 2660.2 459.1C2660.2 461.033 2661.77 462.6 2663.7 462.6Z" fill="white"/>
<path opacity="0.3" fill-rule="evenodd" clip-rule="evenodd" d="M2537.7 490.6C2539.63 490.6 2541.2 489.033 2541.2 487.1C2541.2 485.167 2539.63 483.6 2537.7 483.6C2535.77 483.6 2534.2 485.167 2534.2 487.1C2534.2 489.033 2535.77 490.6 2537.7 490.6Z" fill="white"/>
<path opacity="0.3" fill-rule="evenodd" clip-rule="evenodd" d="M2257.7 560.6C2259.63 560.6 2261.2 559.033 2261.2 557.1C2261.2 555.167 2259.63 553.6 2257.7 553.6C2255.77 553.6 2254.2 555.167 2254.2 557.1C2254.2 559.033 2255.77 560.6 2257.7 560.6Z" fill="white"/>
<path opacity="0.3" fill-rule="evenodd" clip-rule="evenodd" d="M2334.7 609.6C2336.63 609.6 2338.2 608.033 2338.2 606.1C2338.2 604.167 2336.63 602.6 2334.7 602.6C2332.77 602.6 2331.2 604.167 2331.2 606.1C2331.2 608.033 2332.77 609.6 2334.7 609.6Z" fill="white"/>
<path opacity="0.3" fill-rule="evenodd" clip-rule="evenodd" d="M2236.7 434.6C2238.63 434.6 2240.2 433.033 2240.2 431.1C2240.2 429.167 2238.63 427.6 2236.7 427.6C2234.77 427.6 2233.2 429.167 2233.2 431.1C2233.2 433.033 2234.77 434.6 2236.7 434.6Z" fill="white"/>
<path opacity="0.3" fill-rule="evenodd" clip-rule="evenodd" d="M2236.7 329.6C2238.63 329.6 2240.2 328.033 2240.2 326.1C2240.2 324.167 2238.63 322.6 2236.7 322.6C2234.77 322.6 2233.2 324.167 2233.2 326.1C2233.2 328.033 2234.77 329.6 2236.7 329.6Z" fill="white"/>
<path opacity="0.3" fill-rule="evenodd" clip-rule="evenodd" d="M2397.7 329.6C2399.63 329.6 2401.2 328.033 2401.2 326.1C2401.2 324.167 2399.63 322.6 2397.7 322.6C2395.77 322.6 2394.2 324.167 2394.2 326.1C2394.2 328.033 2395.77 329.6 2397.7 329.6Z" fill="white"/>
<path opacity="0.3" fill-rule="evenodd" clip-rule="evenodd" d="M2558.7 259.6C2560.63 259.6 2562.2 258.033 2562.2 256.1C2562.2 254.167 2560.63 252.6 2558.7 252.6C2556.77 252.6 2555.2 254.167 2555.2 256.1C2555.2 258.033 2556.77 259.6 2558.7 259.6Z" fill="white"/>
<path opacity="0.3" fill-rule="evenodd" clip-rule="evenodd" d="M2810.7 406.6C2812.63 406.6 2814.2 405.033 2814.2 403.1C2814.2 401.167 2812.63 399.6 2810.7 399.6C2808.77 399.6 2807.2 401.167 2807.2 403.1C2807.2 405.033 2808.77 406.6 2810.7 406.6Z" fill="white"/>
<path opacity="0.3" fill-rule="evenodd" clip-rule="evenodd" d="M2754.7 497.6C2756.63 497.6 2758.2 496.033 2758.2 494.1C2758.2 492.167 2756.63 490.6 2754.7 490.6C2752.77 490.6 2751.2 492.167 2751.2 494.1C2751.2 496.033 2752.77 497.6 2754.7 497.6Z" fill="white"/>
<path opacity="0.3" fill-rule="evenodd" clip-rule="evenodd" d="M2964.7 518.6C2966.63 518.6 2968.2 517.033 2968.2 515.1C2968.2 513.167 2966.63 511.6 2964.7 511.6C2962.77 511.6 2961.2 513.167 2961.2 515.1C2961.2 517.033 2962.77 518.6 2964.7 518.6Z" fill="white"/>
<path opacity="0.3" fill-rule="evenodd" clip-rule="evenodd" d="M3006.7 245.6C3008.63 245.6 3010.2 244.033 3010.2 242.1C3010.2 240.167 3008.63 238.6 3006.7 238.6C3004.77 238.6 3003.2 240.167 3003.2 242.1C3003.2 244.033 3004.77 245.6 3006.7 245.6Z" fill="white"/>
<path fill-rule="evenodd" clip-rule="evenodd" d="M2235.62 163.19L2511 381.393C2531.99 398.023 2559.04 404.969 2585.45 400.502L3272.85 284.22C3290 281.318 3301.55 265.061 3298.65 247.907C3295.75 230.754 3279.49 219.201 3262.34 222.103L2574.94 338.385C2566.14 339.874 2557.12 337.558 2550.12 332.015L2274.74 113.812C2261.11 103.008 2241.3 105.303 2230.49 118.938C2219.69 132.574 2221.98 152.386 2235.62 163.19Z" fill="url(#paint2_linear)"/>
<mask id="mask1" mask-type="alpha" maskUnits="userSpaceOnUse" x="2223" y="107" width="1077" height="295">
<path fill-rule="evenodd" clip-rule="evenodd" d="M2235.62 163.19L2511 381.393C2531.99 398.023 2559.04 404.969 2585.45 400.502L3272.85 284.22C3290 281.318 3301.55 265.061 3298.65 247.907C3295.75 230.754 3279.49 219.201 3262.34 222.103L2574.94 338.385C2566.14 339.874 2557.12 337.558 2550.12 332.015L2274.74 113.812C2261.11 103.008 2241.3 105.303 2230.49 118.938C2219.69 132.574 2221.98 152.386 2235.62 163.19Z" fill="white"/>
</mask>
<g mask="url(#mask1)">
<path d="M2564.51 338.21C2564.51 338.21 2533.01 363.41 2550.65 401.84" stroke="#BB3493" stroke-width="1.26" stroke-linecap="round" stroke-linejoin="round"/>
<g style="mix-blend-mode:screen" opacity="0.4">
<path fill-rule="evenodd" clip-rule="evenodd" d="M2239.4 137.36L2514.78 355.563C2535.77 372.193 2562.82 379.139 2589.23 374.672L3276.63 258.39C3293.78 255.488 3305.33 239.231 3302.43 222.077C3299.53 204.924 3283.27 193.371 3266.12 196.272L2578.72 312.555C2569.92 314.044 2560.9 311.728 2553.9 306.185L2278.52 87.9823C2264.89 77.178 2245.08 79.473 2234.27 93.1084C2223.47 106.744 2225.76 126.556 2239.4 137.36Z" fill="url(#paint3_linear)"/>
</g>
<g style="mix-blend-mode:screen" opacity="0.4">
<path fill-rule="evenodd" clip-rule="evenodd" d="M3164.84 282.297C3184.67 279.157 3199.64 269.694 3198.29 261.159C3196.94 252.625 3179.77 248.253 3159.95 251.393C3140.12 254.533 3125.15 263.996 3126.5 272.531C3127.85 281.065 3145.02 285.437 3164.84 282.297Z" fill="url(#paint4_linear)"/>
</g>
<g style="mix-blend-mode:screen" opacity="0.4">
<path fill-rule="evenodd" clip-rule="evenodd" d="M2873.21 329.918C2880.17 329.918 2885.81 324.277 2885.81 317.318C2885.81 310.359 2880.17 304.718 2873.21 304.718C2866.25 304.718 2860.61 310.359 2860.61 317.318C2860.61 324.277 2866.25 329.918 2873.21 329.918Z" fill="url(#paint5_linear)"/>
</g>
<g style="mix-blend-mode:screen" opacity="0.4">
<path fill-rule="evenodd" clip-rule="evenodd" d="M2808.09 346.801C2824.41 343.332 2836.05 332.991 2834.07 323.706C2832.1 314.421 2817.27 309.706 2800.94 313.176C2784.62 316.645 2772.99 326.985 2774.96 336.271C2776.93 345.556 2791.77 350.271 2808.09 346.801Z" fill="url(#paint6_linear)"/>
</g>
<g style="mix-blend-mode:screen" opacity="0.4">
<path fill-rule="evenodd" clip-rule="evenodd" d="M2508.67 326.115C2514.03 319.49 2509.39 306.842 2498.31 297.865C2487.22 288.887 2473.89 286.98 2468.52 293.605C2463.16 300.229 2467.79 312.878 2478.88 321.855C2489.97 330.833 2503.3 332.74 2508.67 326.115Z" fill="url(#paint7_linear)"/>
</g>
</g>
<path fill-rule="evenodd" clip-rule="evenodd" d="M2879.85 376.682C2912.39 376.682 2938.77 350.3 2938.77 317.756C2938.77 285.212 2912.39 258.83 2879.85 258.83C2847.3 258.83 2820.92 285.212 2820.92 317.756C2820.92 350.3 2847.3 376.682 2879.85 376.682ZM2879.85 348.332C2862.96 348.332 2849.27 334.642 2849.27 317.756C2849.27 300.869 2862.96 287.18 2879.85 287.18C2896.73 287.18 2910.42 300.869 2910.42 317.756C2910.42 334.642 2896.73 348.332 2879.85 348.332Z" fill="url(#paint8_linear)"/>
<mask id="mask2" mask-type="alpha" maskUnits="userSpaceOnUse" x="2820" y="258" width="119" height="119">
<path fill-rule="evenodd" clip-rule="evenodd" d="M2879.85 376.682C2912.39 376.682 2938.77 350.3 2938.77 317.756C2938.77 285.212 2912.39 258.83 2879.85 258.83C2847.3 258.83 2820.92 285.212 2820.92 317.756C2820.92 350.3 2847.3 376.682 2879.85 376.682ZM2879.85 348.332C2862.96 348.332 2849.27 334.642 2849.27 317.756C2849.27 300.869 2862.96 287.18 2879.85 287.18C2896.73 287.18 2910.42 300.869 2910.42 317.756C2910.42 334.642 2896.73 348.332 2879.85 348.332Z" fill="white"/>
</mask>
<g mask="url(#mask2)">
<g style="mix-blend-mode:screen" opacity="0.4">
<path fill-rule="evenodd" clip-rule="evenodd" d="M2864.08 365.93C2889.65 365.93 2910.38 345.198 2910.38 319.625C2910.38 294.051 2889.65 273.32 2864.08 273.32C2838.5 273.32 2817.77 294.051 2817.77 319.625C2817.77 345.198 2838.5 365.93 2864.08 365.93Z" fill="#BC1C79"/>
</g>
<mask id="mask3" mask-type="alpha" maskUnits="userSpaceOnUse" x="2817" y="273" width="94" height="93">
<g style="mix-blend-mode:screen">
<path fill-rule="evenodd" clip-rule="evenodd" d="M2864.08 365.93C2889.65 365.93 2910.38 345.198 2910.38 319.625C2910.38 294.051 2889.65 273.32 2864.08 273.32C2838.5 273.32 2817.77 294.051 2817.77 319.625C2817.77 345.198 2838.5 365.93 2864.08 365.93Z" fill="white"/>
<path fill-rule="evenodd" clip-rule="evenodd" d="M2864.08 365.93C2889.65 365.93 2910.38 345.198 2910.38 319.625C2910.38 294.051 2889.65 273.32 2864.08 273.32C2838.5 273.32 2817.77 294.051 2817.77 319.625C2817.77 345.198 2838.5 365.93 2864.08 365.93Z" stroke="white"/>
</g>
</mask>
<g mask="url(#mask3)">
<g style="mix-blend-mode:screen" opacity="0.4">
<path fill-rule="evenodd" clip-rule="evenodd" d="M2835.2 359L2938.8 340.1L2937.4 315.6L2821.2 335.9L2835.2 359Z" fill="url(#paint9_linear)"/>
</g>
<g style="mix-blend-mode:screen" opacity="0.4">
<path fill-rule="evenodd" clip-rule="evenodd" d="M2813.99 336.95L2910.38 320.57L2903.45 282.14L2811.47 298.52L2813.99 336.95Z" fill="url(#paint10_linear)"/>
</g>
<g style="mix-blend-mode:screen" opacity="0.4">
<path fill-rule="evenodd" clip-rule="evenodd" d="M2808.33 346.592C2824.66 343.123 2836.29 332.783 2834.32 323.497C2832.34 314.212 2817.51 309.497 2801.19 312.967C2784.86 316.436 2773.23 326.776 2775.21 336.062C2777.18 345.347 2792.01 350.062 2808.33 346.592Z" fill="url(#paint11_linear)"/>
</g>
</g>
</g>
<g opacity="0.7">
<path fill-rule="evenodd" clip-rule="evenodd" d="M2695.89 408.812C2728.43 408.812 2754.81 382.43 2754.81 349.886C2754.81 317.342 2728.43 290.96 2695.89 290.96C2663.34 290.96 2636.96 317.342 2636.96 349.886C2636.96 382.43 2663.34 408.812 2695.89 408.812ZM2695.89 380.462C2679 380.462 2665.31 366.772 2665.31 349.886C2665.31 332.999 2679 319.31 2695.89 319.31C2712.77 319.31 2726.46 332.999 2726.46 349.886C2726.46 366.772 2712.77 380.462 2695.89 380.462Z" fill="url(#paint12_linear)"/>
<mask id="mask4" mask-type="alpha" maskUnits="userSpaceOnUse" x="2636" y="290" width="119" height="119">
<path fill-rule="evenodd" clip-rule="evenodd" d="M2695.89 408.812C2728.43 408.812 2754.81 382.43 2754.81 349.886C2754.81 317.342 2728.43 290.96 2695.89 290.96C2663.34 290.96 2636.96 317.342 2636.96 349.886C2636.96 382.43 2663.34 408.812 2695.89 408.812ZM2695.89 380.462C2679 380.462 2665.31 366.772 2665.31 349.886C2665.31 332.999 2679 319.31 2695.89 319.31C2712.77 319.31 2726.46 332.999 2726.46 349.886C2726.46 366.772 2712.77 380.462 2695.89 380.462Z" fill="white"/>
</mask>
<g mask="url(#mask4)">
<g style="mix-blend-mode:screen" opacity="0.4">
<path fill-rule="evenodd" clip-rule="evenodd" d="M2680.12 398.06C2705.69 398.06 2726.42 377.329 2726.42 351.755C2726.42 326.181 2705.69 305.45 2680.12 305.45C2654.54 305.45 2633.81 326.181 2633.81 351.755C2633.81 377.329 2654.54 398.06 2680.12 398.06Z" fill="#BC1C79"/>
</g>
<mask id="mask5" mask-type="alpha" maskUnits="userSpaceOnUse" x="2633" y="305" width="94" height="94">
<g style="mix-blend-mode:screen">
<path fill-rule="evenodd" clip-rule="evenodd" d="M2680.12 398.06C2705.69 398.06 2726.42 377.329 2726.42 351.755C2726.42 326.181 2705.69 305.45 2680.12 305.45C2654.54 305.45 2633.81 326.181 2633.81 351.755C2633.81 377.329 2654.54 398.06 2680.12 398.06Z" fill="white"/>
<path fill-rule="evenodd" clip-rule="evenodd" d="M2680.12 398.06C2705.69 398.06 2726.42 377.329 2726.42 351.755C2726.42 326.181 2705.69 305.45 2680.12 305.45C2654.54 305.45 2633.81 326.181 2633.81 351.755C2633.81 377.329 2654.54 398.06 2680.12 398.06Z" stroke="white"/>
</g>
</mask>
<g mask="url(#mask5)">
<g style="mix-blend-mode:screen" opacity="0.4">
<path fill-rule="evenodd" clip-rule="evenodd" d="M2646.2 390.5L2735.1 375.1L2727.4 349.9L2634.3 367.4L2646.2 390.5Z" fill="url(#paint13_linear)"/>
</g>
<g style="mix-blend-mode:screen" opacity="0.4">
<path fill-rule="evenodd" clip-rule="evenodd" d="M2638.85 366.56L2669.09 360.89L2727.68 351.44L2723.9 314.27L2630.66 328.76L2638.85 366.56Z" fill="url(#paint14_linear)"/>
</g>
</g>
</g>
</g>
<path fill-rule="evenodd" clip-rule="evenodd" d="M3059.4 346.442C3091.94 346.442 3118.32 320.06 3118.32 287.516C3118.32 254.972 3091.94 228.59 3059.4 228.59C3026.85 228.59 3000.47 254.972 3000.47 287.516C3000.47 320.06 3026.85 346.442 3059.4 346.442ZM3059.4 318.092C3042.51 318.092 3028.82 304.402 3028.82 287.516C3028.82 270.629 3042.51 256.94 3059.4 256.94C3076.28 256.94 3089.97 270.629 3089.97 287.516C3089.97 304.402 3076.28 318.092 3059.4 318.092Z" fill="url(#paint15_linear)"/>
<mask id="mask6" mask-type="alpha" maskUnits="userSpaceOnUse" x="3000" y="228" width="119" height="119">
<path fill-rule="evenodd" clip-rule="evenodd" d="M3059.4 346.442C3091.94 346.442 3118.32 320.06 3118.32 287.516C3118.32 254.972 3091.94 228.59 3059.4 228.59C3026.85 228.59 3000.47 254.972 3000.47 287.516C3000.47 320.06 3026.85 346.442 3059.4 346.442ZM3059.4 318.092C3042.51 318.092 3028.82 304.402 3028.82 287.516C3028.82 270.629 3042.51 256.94 3059.4 256.94C3076.28 256.94 3089.97 270.629 3089.97 287.516C3089.97 304.402 3076.28 318.092 3059.4 318.092Z" fill="white"/>
</mask>
<g mask="url(#mask6)">
<g style="mix-blend-mode:screen" opacity="0.4">
<path fill-rule="evenodd" clip-rule="evenodd" d="M3043.62 335.69C3069.2 335.69 3089.93 314.959 3089.93 289.385C3089.93 263.811 3069.2 243.08 3043.62 243.08C3018.05 243.08 2997.32 263.811 2997.32 289.385C2997.32 314.959 3018.05 335.69 3043.62 335.69Z" fill="#BC1C79"/>
</g>
<mask id="mask7" mask-type="alpha" maskUnits="userSpaceOnUse" x="2997" y="243" width="93" height="93">
<g style="mix-blend-mode:screen">
<path fill-rule="evenodd" clip-rule="evenodd" d="M3043.62 335.69C3069.2 335.69 3089.93 314.959 3089.93 289.385C3089.93 263.811 3069.2 243.08 3043.62 243.08C3018.05 243.08 2997.32 263.811 2997.32 289.385C2997.32 314.959 3018.05 335.69 3043.62 335.69Z" fill="white"/>
<path fill-rule="evenodd" clip-rule="evenodd" d="M3043.62 335.69C3069.2 335.69 3089.93 314.959 3089.93 289.385C3089.93 263.811 3069.2 243.08 3043.62 243.08C3018.05 243.08 2997.32 263.811 2997.32 289.385C2997.32 314.959 3018.05 335.69 3043.62 335.69Z" stroke="white"/>
</g>
</mask>
<g mask="url(#mask7)">
<g style="mix-blend-mode:screen" opacity="0.4">
<path fill-rule="evenodd" clip-rule="evenodd" d="M3011.6 328.2L3125 309.3L3124.3 284.8L2999 305.8L3011.6 328.2Z" fill="url(#paint16_linear)"/>
</g>
<g style="mix-blend-mode:screen" opacity="0.4">
<path fill-rule="evenodd" clip-rule="evenodd" d="M2994.17 306.71L3125.21 284.03L3118.28 246.86L2989.13 268.28L2994.17 306.71Z" fill="url(#paint17_linear)"/>
</g>
</g>
</g>
<path fill-rule="evenodd" clip-rule="evenodd" d="M3234.4 316.342C3266.94 316.342 3293.32 289.96 3293.32 257.416C3293.32 224.872 3266.94 198.49 3234.4 198.49C3201.85 198.49 3175.47 224.872 3175.47 257.416C3175.47 289.96 3201.85 316.342 3234.4 316.342ZM3234.4 287.992C3217.51 287.992 3203.82 274.302 3203.82 257.416C3203.82 240.529 3217.51 226.84 3234.4 226.84C3251.28 226.84 3264.97 240.529 3264.97 257.416C3264.97 274.302 3251.28 287.992 3234.4 287.992Z" fill="url(#paint18_linear)"/>
<mask id="mask8" mask-type="alpha" maskUnits="userSpaceOnUse" x="3175" y="198" width="119" height="119">
<path fill-rule="evenodd" clip-rule="evenodd" d="M3234.4 316.342C3266.94 316.342 3293.32 289.96 3293.32 257.416C3293.32 224.872 3266.94 198.49 3234.4 198.49C3201.85 198.49 3175.47 224.872 3175.47 257.416C3175.47 289.96 3201.85 316.342 3234.4 316.342ZM3234.4 287.992C3217.51 287.992 3203.82 274.302 3203.82 257.416C3203.82 240.529 3217.51 226.84 3234.4 226.84C3251.28 226.84 3264.97 240.529 3264.97 257.416C3264.97 274.302 3251.28 287.992 3234.4 287.992Z" fill="white"/>
</mask>
<g mask="url(#mask8)">
<g style="mix-blend-mode:screen" opacity="0.4">
<path fill-rule="evenodd" clip-rule="evenodd" d="M3218.62 305.59C3244.2 305.59 3264.93 284.859 3264.93 259.285C3264.93 233.711 3244.2 212.98 3218.62 212.98C3193.05 212.98 3172.32 233.711 3172.32 259.285C3172.32 284.859 3193.05 305.59 3218.62 305.59Z" fill="url(#paint19_linear)"/>
</g>
<mask id="mask9" mask-type="alpha" maskUnits="userSpaceOnUse" x="3172" y="212" width="93" height="94">
<g style="mix-blend-mode:screen">
<path fill-rule="evenodd" clip-rule="evenodd" d="M3218.62 305.59C3244.2 305.59 3264.93 284.859 3264.93 259.285C3264.93 233.711 3244.2 212.98 3218.62 212.98C3193.05 212.98 3172.32 233.711 3172.32 259.285C3172.32 284.859 3193.05 305.59 3218.62 305.59Z" fill="white"/>
<path fill-rule="evenodd" clip-rule="evenodd" d="M3218.62 305.59C3244.2 305.59 3264.93 284.859 3264.93 259.285C3264.93 233.711 3244.2 212.98 3218.62 212.98C3193.05 212.98 3172.32 233.711 3172.32 259.285C3172.32 284.859 3193.05 305.59 3218.62 305.59Z" stroke="white"/>
</g>
</mask>
<g mask="url(#mask9)">
<g style="mix-blend-mode:screen" opacity="0.4">
<path fill-rule="evenodd" clip-rule="evenodd" d="M3169.17 276.61L3300.21 253.93L3293.28 216.76L3164.13 238.18L3169.17 276.61Z" fill="url(#paint20_linear)"/>
</g>
<g style="mix-blend-mode:screen" opacity="0.4">
<path fill-rule="evenodd" clip-rule="evenodd" d="M3164.84 282.297C3184.67 279.157 3199.64 269.694 3198.29 261.159C3196.94 252.625 3179.77 248.253 3159.95 251.393C3140.12 254.533 3125.15 263.996 3126.5 272.531C3127.85 281.065 3145.02 285.437 3164.84 282.297Z" fill="url(#paint21_linear)"/>
</g>
</g>
</g>
<g opacity="0.5">
<path fill-rule="evenodd" clip-rule="evenodd" d="M2434.51 371.888C2412.12 359.805 2412.01 323.603 2434.28 291.03C2456.54 258.457 2492.74 241.847 2515.14 253.93C2537.53 266.014 2537.63 302.215 2515.37 334.789C2493.11 367.362 2456.9 383.972 2434.51 371.888ZM2453.91 343.513C2465.53 349.783 2484.31 341.164 2495.86 324.262C2507.41 307.36 2507.36 288.576 2495.74 282.306C2484.12 276.036 2465.34 284.655 2453.78 301.556C2442.23 318.458 2442.29 337.243 2453.91 343.513Z" fill="url(#paint22_linear)"/>
<mask id="mask10" mask-type="alpha" maskUnits="userSpaceOnUse" x="2417" y="249" width="115" height="127">
<path fill-rule="evenodd" clip-rule="evenodd" d="M2434.51 371.888C2412.12 359.805 2412.01 323.603 2434.28 291.03C2456.54 258.457 2492.74 241.847 2515.14 253.93C2537.53 266.014 2537.63 302.215 2515.37 334.789C2493.11 367.362 2456.9 383.972 2434.51 371.888ZM2453.91 343.513C2465.53 349.783 2484.31 341.164 2495.86 324.262C2507.41 307.36 2507.36 288.576 2495.74 282.306C2484.12 276.036 2465.34 284.655 2453.78 301.556C2442.23 318.458 2442.29 337.243 2453.91 343.513Z" fill="white"/>
</mask>
<g mask="url(#mask10)">
<g style="mix-blend-mode:screen" opacity="0.4">
<path fill-rule="evenodd" clip-rule="evenodd" d="M2455.7 368.983C2438.1 359.488 2438.02 331.04 2455.52 305.443C2473.02 279.845 2501.47 266.791 2519.06 276.285C2536.66 285.78 2536.74 314.228 2519.24 339.825C2501.74 365.423 2473.29 378.477 2455.7 368.983Z" fill="url(#paint23_linear)"/>
</g>
<mask id="mask11" mask-type="alpha" maskUnits="userSpaceOnUse" x="2442" y="273" width="91" height="100">
<g style="mix-blend-mode:screen">
<path fill-rule="evenodd" clip-rule="evenodd" d="M2455.7 368.983C2438.1 359.488 2438.02 331.04 2455.52 305.443C2473.02 279.845 2501.47 266.791 2519.06 276.285C2536.66 285.78 2536.74 314.228 2519.24 339.825C2501.74 365.423 2473.29 378.477 2455.7 368.983Z" fill="white"/>
<path fill-rule="evenodd" clip-rule="evenodd" d="M2455.7 368.983C2438.1 359.488 2438.02 331.04 2455.52 305.443C2473.02 279.845 2501.47 266.791 2519.06 276.285C2536.66 285.78 2536.74 314.228 2519.24 339.825C2501.74 365.423 2473.29 378.477 2455.7 368.983Z" stroke="white"/>
</g>
</mask>
<g mask="url(#mask11)">
<g style="mix-blend-mode:screen" opacity="0.3">
<path fill-rule="evenodd" clip-rule="evenodd" d="M2488.91 363.656L2426.72 321.261L2455.47 307.369L2504.23 345.775L2493.73 364.691L2488.91 363.656Z" fill="url(#paint24_linear)"/>
</g>
<g style="mix-blend-mode:screen" opacity="0.4">
<path fill-rule="evenodd" clip-rule="evenodd" d="M2477.23 302.773C2483.07 294.809 2495.22 292.812 2504.36 298.311C2513.5 303.811 2516.17 314.725 2510.33 322.689C2504.48 330.653 2492.33 332.65 2483.19 327.15C2474.05 321.651 2471.38 310.737 2477.23 302.773Z" fill="url(#paint25_linear)"/>
</g>
<g style="mix-blend-mode:screen" opacity="0.3">
<path fill-rule="evenodd" clip-rule="evenodd" d="M2503.02 345.126L2452.66 308.13L2481.97 278.105L2528.42 312.873L2503.02 345.126Z" fill="url(#paint26_linear)"/>
</g>
</g>
</g>
</g>
<g opacity="0.3">
<path fill-rule="evenodd" clip-rule="evenodd" d="M2293.38 257.858C2270.99 245.775 2270.89 209.573 2293.15 177C2315.41 144.427 2351.61 127.817 2374.01 139.9C2396.4 151.984 2396.51 188.186 2374.24 220.759C2351.98 253.332 2315.78 269.942 2293.38 257.858ZM2312.78 229.483C2324.4 235.753 2343.18 227.134 2354.73 210.232C2366.29 193.33 2366.23 174.546 2354.61 168.276C2342.99 162.006 2324.21 170.625 2312.66 187.526C2301.1 204.428 2301.16 223.213 2312.78 229.483Z" fill="url(#paint27_linear)"/>
<mask id="mask12" mask-type="alpha" maskUnits="userSpaceOnUse" x="2276" y="135" width="115" height="127">
<path fill-rule="evenodd" clip-rule="evenodd" d="M2293.38 257.858C2270.99 245.775 2270.89 209.573 2293.15 177C2315.41 144.427 2351.61 127.817 2374.01 139.9C2396.4 151.984 2396.51 188.186 2374.24 220.759C2351.98 253.332 2315.78 269.942 2293.38 257.858ZM2312.78 229.483C2324.4 235.753 2343.18 227.134 2354.73 210.232C2366.29 193.33 2366.23 174.546 2354.61 168.276C2342.99 162.006 2324.21 170.625 2312.66 187.526C2301.1 204.428 2301.16 223.213 2312.78 229.483Z" fill="white"/>
</mask>
<g mask="url(#mask12)">
<g style="mix-blend-mode:screen" opacity="0.4">
<path fill-rule="evenodd" clip-rule="evenodd" d="M2314.57 254.953C2296.97 245.458 2296.9 217.01 2314.39 191.413C2331.89 165.815 2360.34 152.761 2377.93 162.255C2395.53 171.75 2395.61 200.198 2378.11 225.795C2360.61 251.393 2332.17 264.447 2314.57 254.953Z" fill="url(#paint28_linear)"/>
</g>
<mask id="mask13" mask-type="alpha" maskUnits="userSpaceOnUse" x="2301" y="159" width="91" height="100">
<g style="mix-blend-mode:screen">
<path fill-rule="evenodd" clip-rule="evenodd" d="M2314.57 254.953C2296.97 245.458 2296.9 217.01 2314.39 191.413C2331.89 165.815 2360.34 152.761 2377.93 162.255C2395.53 171.75 2395.61 200.198 2378.11 225.795C2360.61 251.393 2332.17 264.447 2314.57 254.953Z" fill="white"/>
<path fill-rule="evenodd" clip-rule="evenodd" d="M2314.57 254.953C2296.97 245.458 2296.9 217.01 2314.39 191.413C2331.89 165.815 2360.34 152.761 2377.93 162.255C2395.53 171.75 2395.61 200.198 2378.11 225.795C2360.61 251.393 2332.17 264.447 2314.57 254.953Z" stroke="white"/>
</g>
</mask>
<g mask="url(#mask13)">
<g style="mix-blend-mode:screen" opacity="0.3">
<path fill-rule="evenodd" clip-rule="evenodd" d="M2367.28 236.339L2345.4 248.933L2311.8 226.174L2330.67 211.353L2367.28 236.339Z" fill="url(#paint29_linear)"/>
</g>
<g style="mix-blend-mode:screen" opacity="0.3">
<path fill-rule="evenodd" clip-rule="evenodd" d="M2374.49 244.166L2352.84 227.892L2379.8 198.625L2402.08 214.274L2374.49 244.166Z" fill="url(#paint30_linear)"/>
</g>
</g>
</g>
</g>
<path fill-rule="evenodd" clip-rule="evenodd" d="M2702.81 730.982C2704.74 730.982 2706.31 729.415 2706.31 727.482C2706.31 725.549 2704.74 723.982 2702.81 723.982C2700.88 723.982 2699.31 725.549 2699.31 727.482C2699.31 729.415 2700.88 730.982 2702.81 730.982Z" fill="white"/>
<path fill-rule="evenodd" clip-rule="evenodd" d="M2167.38 740.333L3263.79 588.461C3278.92 586.365 3296.54 568.275 3303.16 548.056C3309.78 527.836 3302.88 513.144 3287.75 515.239L2191.35 667.112C2176.22 669.207 2158.59 687.297 2151.97 707.516C2145.36 727.736 2152.26 742.429 2167.38 740.333Z" fill="url(#paint31_linear)"/>
<mask id="mask14" mask-type="alpha" maskUnits="userSpaceOnUse" x="2149" y="515" width="1157" height="226">
<path fill-rule="evenodd" clip-rule="evenodd" d="M2167.38 740.333L3263.79 588.461C3278.92 586.365 3296.54 568.275 3303.16 548.056C3309.78 527.836 3302.88 513.144 3287.75 515.239L2191.35 667.112C2176.22 669.207 2158.59 687.297 2151.97 707.516C2145.36 727.736 2152.26 742.429 2167.38 740.333Z" fill="white"/>
</mask>
<g mask="url(#mask14)">
<g style="mix-blend-mode:screen" opacity="0.4">
<path fill-rule="evenodd" clip-rule="evenodd" d="M2415.2 661.697C2420.16 661.73 2426.42 655.525 2429.18 647.838C2431.94 640.15 2430.16 633.891 2425.2 633.857C2420.24 633.824 2413.98 640.029 2411.22 647.717C2408.46 655.404 2410.24 661.664 2415.2 661.697Z" fill="url(#paint32_linear)"/>
</g>
<g style="mix-blend-mode:screen" opacity="0.4">
<path fill-rule="evenodd" clip-rule="evenodd" d="M2504.43 648.173C2534.52 644.499 2563.11 630.367 2568.29 616.607C2573.48 602.847 2553.29 594.671 2523.2 598.344C2493.12 602.018 2464.52 616.15 2459.34 629.91C2454.16 643.67 2474.35 651.846 2504.43 648.173Z" fill="url(#paint33_linear)"/>
</g>
<g style="mix-blend-mode:screen" opacity="0.4">
<path fill-rule="evenodd" clip-rule="evenodd" d="M2785.46 662.705C2818.07 659.345 2848.9 645.582 2854.32 631.965C2859.74 618.348 2837.7 610.034 2805.09 613.395C2772.48 616.755 2741.65 630.518 2736.23 644.135C2730.81 657.752 2752.85 666.066 2785.46 662.705Z" fill="url(#paint34_linear)"/>
</g>
<g style="mix-blend-mode:screen" opacity="0.4">
<path fill-rule="evenodd" clip-rule="evenodd" d="M2162.56 712.042L3258.96 560.169C3274.09 558.074 3291.72 539.984 3298.34 519.764C3304.95 499.545 3298.05 484.852 3282.93 486.948L2186.52 638.82C2171.39 640.916 2153.77 659.006 2147.15 679.225C2140.53 699.445 2147.43 714.137 2162.56 712.042Z" fill="url(#paint35_linear)"/>
</g>
</g>
<rect width="8.72847" height="91.9008" rx="4.36423" transform="matrix(0.997734 0.0102369 -0.192296 0.844692 2383.9 608.639)" fill="url(#paint36_linear)"/>
<rect width="8.72847" height="91.9008" rx="4.36423" transform="matrix(0.997734 0.0102369 -0.192296 0.844692 2532.87 598.852)" fill="url(#paint37_linear)"/>
<rect width="8.72847" height="91.9008" rx="4.36423" transform="matrix(0.997734 0.0102369 -0.192296 0.844692 2681.85 589.065)" fill="#4832A6"/>
<rect width="8.72847" height="91.9008" rx="4.36423" transform="matrix(0.997734 0.0102369 -0.192296 0.844692 2830.83 579.279)" fill="#4832A6"/>
<path fill-rule="evenodd" clip-rule="evenodd" d="M2910.28 526.633C2932.02 526.633 2949.65 509.008 2949.65 487.266C2949.65 465.525 2932.02 447.9 2910.28 447.9C2888.54 447.9 2870.92 465.525 2870.92 487.266C2870.92 509.008 2888.54 526.633 2910.28 526.633Z" fill="url(#paint38_linear)"/>
<mask id="mask15" mask-type="alpha" maskUnits="userSpaceOnUse" x="2870" y="447" width="80" height="80">
<path fill-rule="evenodd" clip-rule="evenodd" d="M2910.28 526.633C2932.02 526.633 2949.65 509.008 2949.65 487.266C2949.65 465.525 2932.02 447.9 2910.28 447.9C2888.54 447.9 2870.92 465.525 2870.92 487.266C2870.92 509.008 2888.54 526.633 2910.28 526.633Z" fill="white"/>
</mask>
<g mask="url(#mask15)">
<path opacity="0.705473" fill-rule="evenodd" clip-rule="evenodd" d="M2917.9 531.341C2929.76 529.673 2938.56 522.442 2937.54 515.19C2936.52 507.938 2926.07 503.411 2914.2 505.079C2902.34 506.747 2893.54 513.978 2894.56 521.23C2895.58 528.482 2906.03 533.009 2917.9 531.341Z" fill="url(#paint39_linear)"/>
<path d="M2872.79 509.591C2893.9 486.229 2920.46 479.941 2953.81 490.648C2957.49 491.83 2961.43 489.804 2962.61 486.123C2963.8 482.443 2961.77 478.5 2958.09 477.319C2919.65 464.977 2887.32 472.632 2862.4 500.205C2859.81 503.073 2860.03 507.5 2862.9 510.091C2865.77 512.683 2870.19 512.459 2872.79 509.591Z" fill="#583FB3"/>
<path fill-rule="evenodd" clip-rule="evenodd" d="M2880.88 499.35C2884.64 499.35 2887.7 496.294 2887.7 492.525C2887.7 488.756 2884.64 485.7 2880.88 485.7C2877.11 485.7 2874.05 488.756 2874.05 492.525C2874.05 496.294 2877.11 499.35 2880.88 499.35Z" fill="#FFBD60"/>
<path fill-rule="evenodd" clip-rule="evenodd" d="M2909.64 486.725C2913.41 486.725 2916.46 483.67 2916.46 479.9C2916.46 476.131 2913.41 473.075 2909.64 473.075C2905.87 473.075 2902.81 476.131 2902.81 479.9C2902.81 483.67 2905.87 486.725 2909.64 486.725Z" fill="#FFBD60"/>
<path fill-rule="evenodd" clip-rule="evenodd" d="M2939.69 486.725C2943.46 486.725 2946.52 483.67 2946.52 479.9C2946.52 476.131 2943.46 473.075 2939.69 473.075C2935.92 473.075 2932.87 476.131 2932.87 479.9C2932.87 483.67 2935.92 486.725 2939.69 486.725Z" fill="#FFBD60"/>
</g>
<path d="M2916.5 524.49C2921.48 523.611 2925.2 521.046 2924.8 518.76C2924.39 516.475 2920.03 515.335 2915.04 516.214C2910.05 517.093 2906.34 519.659 2906.74 521.944C2907.14 524.23 2911.51 525.37 2916.5 524.49Z" fill="#583FB3"/>
<path d="M2915.04 533.57L2914.34 522.37L2918.54 521.67L2922.04 532.87L2915.04 533.57Z" fill="#583FB3"/>
<path fill-rule="evenodd" clip-rule="evenodd" d="M3008.65 910.55L2940.83 542.363C2939.49 535.102 2932.74 530.127 2925.41 530.997L2910.34 532.785C2902.95 533.662 2897.53 540.174 2898.02 547.605L2921.85 910.55H3008.65Z" fill="url(#paint40_linear)"/>
<mask id="mask16" mask-type="alpha" maskUnits="userSpaceOnUse" x="2897" y="530" width="112" height="381">
<path fill-rule="evenodd" clip-rule="evenodd" d="M3008.65 910.55L2940.83 542.363C2939.49 535.102 2932.74 530.127 2925.41 530.997L2910.34 532.785C2902.95 533.662 2897.53 540.174 2898.02 547.605L2921.85 910.55H3008.65Z" fill="white"/>
</mask>
<g mask="url(#mask16)">
<rect x="2926.14" y="548.648" width="12.6" height="49.7" rx="6.3" transform="rotate(-7.99999 2926.14 548.648)" fill="url(#paint41_linear)"/>
<path fill-rule="evenodd" clip-rule="evenodd" d="M2916.74 572.379C2919.73 572.379 2922.15 569.957 2922.15 566.969C2922.15 563.98 2919.73 561.558 2916.74 561.558C2913.76 561.558 2911.33 563.98 2911.33 566.969C2911.33 569.957 2913.76 572.379 2916.74 572.379Z" fill="#F6F8FB"/>
<path fill-rule="evenodd" clip-rule="evenodd" d="M2919.19 587.877C2921.29 587.877 2922.98 586.182 2922.98 584.09C2922.98 581.998 2921.29 580.302 2919.19 580.302C2917.1 580.302 2915.41 581.998 2915.41 584.09C2915.41 586.182 2917.1 587.877 2919.19 587.877Z" fill="#FF6CBB"/>
<rect x="2941.15" y="645.579" width="12.6" height="49.7" rx="6.3" transform="rotate(-8 2941.15 645.579)" fill="url(#paint42_linear)"/>
<path fill-rule="evenodd" clip-rule="evenodd" d="M2931.76 669.311C2934.74 669.311 2937.17 666.888 2937.17 663.9C2937.17 660.912 2934.74 658.489 2931.76 658.489C2928.77 658.489 2926.35 660.912 2926.35 663.9C2926.35 666.888 2928.77 669.311 2931.76 669.311Z" fill="#F6F8FB"/>
<path fill-rule="evenodd" clip-rule="evenodd" d="M2934.21 684.809C2936.3 684.809 2937.99 683.113 2937.99 681.021C2937.99 678.93 2936.3 677.234 2934.21 677.234C2932.11 677.234 2930.42 678.93 2930.42 681.021C2930.42 683.113 2932.11 684.809 2934.21 684.809Z" fill="#FF6CBB"/>
<rect x="2956.16" y="742.511" width="12.6" height="49.7" rx="6.3" transform="rotate(-7.99999 2956.16 742.511)" fill="url(#paint43_linear)"/>
<path fill-rule="evenodd" clip-rule="evenodd" d="M2946.77 766.242C2949.76 766.242 2952.18 763.82 2952.18 760.831C2952.18 757.843 2949.76 755.421 2946.77 755.421C2943.78 755.421 2941.36 757.843 2941.36 760.831C2941.36 763.82 2943.78 766.242 2946.77 766.242Z" fill="#F6F8FB"/>
<path fill-rule="evenodd" clip-rule="evenodd" d="M2949.22 781.74C2951.31 781.74 2953.01 780.044 2953.01 777.953C2953.01 775.861 2951.31 774.165 2949.22 774.165C2947.13 774.165 2945.43 775.861 2945.43 777.953C2945.43 780.044 2947.13 781.74 2949.22 781.74Z" fill="#FFBD60"/>
<path opacity="0.548875" fill-rule="evenodd" clip-rule="evenodd" d="M2892.85 756.25C2892.85 756.25 2879.55 682.75 2913.15 682.75C2946.75 682.75 2935.55 836.05 2996.45 801.75C3057.35 767.45 3033.55 865.45 3031.45 866.15C3029.35 866.85 2999.95 896.25 2996.45 896.25C2992.95 896.25 2889.35 900.45 2882.35 896.25C2875.35 892.05 2892.85 756.25 2892.85 756.25Z" fill="url(#paint44_linear)"/>
<path opacity="0.548875" fill-rule="evenodd" clip-rule="evenodd" d="M2978 713.9C2978 713.9 2963.3 830.1 2909.4 836.4C2855.5 842.7 3016.5 864.4 3017.9 864.4C3019.3 864.4 3029.1 779 3027.7 770.6C3026.3 762.2 2978 713.9 2978 713.9Z" fill="url(#paint45_linear)"/>
</g>
<path fill-rule="evenodd" clip-rule="evenodd" d="M2820.85 903.845L2813.09 686.446C2812.93 681.927 2809.22 678.346 2804.69 678.346H2724.46C2719.87 678.346 2716.14 682.02 2716.06 686.603L2712.35 903.845H2820.85Z" fill="url(#paint46_linear)"/>
<mask id="mask17" mask-type="alpha" maskUnits="userSpaceOnUse" x="2712" y="678" width="109" height="226">
<path fill-rule="evenodd" clip-rule="evenodd" d="M2820.85 903.845L2813.09 686.446C2812.93 681.927 2809.22 678.346 2804.69 678.346H2724.46C2719.87 678.346 2716.14 682.02 2716.06 686.603L2712.35 903.845H2820.85Z" fill="white"/>
</mask>
<g mask="url(#mask17)">
<path fill-rule="evenodd" clip-rule="evenodd" d="M2710.95 702.146H2828.2V732.946H2710.95V702.146Z" stroke="#FFBD60" stroke-width="1.4" stroke-linejoin="round"/>
<rect x="2711.3" y="709.428" width="120.728" height="16.2352" fill="#F6F8FB"/>
<path fill-rule="evenodd" clip-rule="evenodd" d="M2705 762.346H2822.25V793.146H2705V762.346Z" stroke="#FFBD60" stroke-width="1.4" stroke-linejoin="round"/>
<rect x="2705.35" y="769.628" width="120.728" height="16.2352" fill="#F6F8FB"/>
</g>
<path fill-rule="evenodd" clip-rule="evenodd" d="M2732.02 646.072C2734.21 646.072 2735.99 644.298 2735.99 642.11C2735.99 639.922 2734.21 638.149 2732.02 638.149C2729.84 638.149 2728.06 639.922 2728.06 642.11C2728.06 644.298 2729.84 646.072 2732.02 646.072Z" stroke="#FFBD60" stroke-width="2.1"/>
<path d="M2731.56 678.316L2732.12 646.121" stroke="#FFBD60" stroke-width="2.1"/>
<path d="M2727.86 675.577C2727.86 673.644 2729.43 672.077 2731.36 672.077H2732.76C2734.7 672.077 2736.26 673.644 2736.26 675.577V678.481H2727.86V675.577Z" fill="url(#paint47_linear)"/>
<path d="M2748.47 678.267L2749.03 611.072" stroke="#583FB3" stroke-width="2.1"/>
<path fill-rule="evenodd" clip-rule="evenodd" d="M2744.55 665.641C2744.55 664.481 2745.49 663.541 2746.65 663.541H2750.85C2752.01 663.541 2752.95 664.481 2752.95 665.641V678.346H2744.55V665.641Z" fill="url(#paint48_linear)"/>
<path fill-rule="evenodd" clip-rule="evenodd" d="M2745.6 629.405C2745.6 628.246 2746.54 627.305 2747.7 627.305H2749.8C2750.96 627.305 2751.9 628.246 2751.9 629.405V633.01C2751.9 634.17 2750.96 635.11 2749.8 635.11H2747.7C2746.54 635.11 2745.6 634.17 2745.6 633.01V629.405Z" fill="url(#paint49_linear)"/>
<path fill-rule="evenodd" clip-rule="evenodd" d="M2749.03 612.194C2751.74 612.194 2753.93 610 2753.93 607.294C2753.93 604.587 2751.74 602.394 2749.03 602.394C2746.32 602.394 2744.13 604.587 2744.13 607.294C2744.13 610 2746.32 612.194 2749.03 612.194Z" fill="#FFBD60"/>
<path d="M2797.77 617.545L2800.41 648.359" stroke="#563EB2" stroke-width="4.2"/>
<path fill-rule="evenodd" clip-rule="evenodd" d="M2798.26 623.692C2802.41 623.673 2805.55 620.073 2805.26 615.653C2804.98 611.233 2801.38 607.666 2797.22 607.685C2793.07 607.705 2789.93 611.304 2790.22 615.724C2790.5 620.145 2794.1 623.712 2798.26 623.692Z" fill="#FF6CBB"/>
<path fill-rule="evenodd" clip-rule="evenodd" d="M2782.52 657.305C2787.28 650.032 2795.1 645.338 2803.76 644.567L2851.79 640.287C2857.67 639.763 2863.58 640.735 2868.99 643.113L2885.56 650.407C2891.94 653.21 2896.5 658.987 2897.76 665.833L2941.6 904.388H2770.8L2777.91 671.97C2778.07 666.75 2779.66 661.676 2782.52 657.305V657.305Z" fill="url(#paint50_linear)"/>
<path opacity="0.415341" fill-rule="evenodd" clip-rule="evenodd" d="M2794.95 718.386C2794.95 712.579 2799.53 707.806 2805.34 707.571L2853.94 705.598C2860.08 705.348 2865.2 710.24 2865.24 716.386V716.386C2865.27 722.244 2860.65 727.074 2854.8 727.302L2806.2 729.202C2800.06 729.442 2794.95 724.53 2794.95 718.386V718.386Z" fill="#253554"/>
<path opacity="0.415341" fill-rule="evenodd" clip-rule="evenodd" d="M2792.15 678.486C2792.15 672.679 2796.73 667.906 2802.54 667.67L2851.14 665.698C2857.28 665.448 2862.4 670.34 2862.44 676.485V676.485C2862.47 682.344 2857.85 687.174 2852 687.402L2803.4 689.302C2797.26 689.542 2792.15 684.63 2792.15 678.486V678.486Z" fill="#253554"/>
<path opacity="0.415341" fill-rule="evenodd" clip-rule="evenodd" d="M2857.72 743.3C2863.5 743.3 2868.26 747.842 2868.53 753.616L2870.37 792.781C2870.66 798.948 2865.75 804.115 2859.58 804.147V804.147C2853.75 804.176 2848.94 799.601 2848.68 793.78L2846.91 754.611C2846.63 748.448 2851.55 743.3 2857.72 743.3V743.3Z" fill="#253554"/>
<path opacity="0.415341" fill-rule="evenodd" clip-rule="evenodd" d="M2808.02 745.4C2813.8 745.4 2818.56 749.942 2818.83 755.716L2820.67 794.881C2820.96 801.048 2816.05 806.215 2809.88 806.247V806.247C2804.05 806.276 2799.24 801.701 2798.98 795.88L2797.21 756.711C2796.93 750.548 2801.85 745.4 2808.02 745.4V745.4Z" fill="#253554"/>
<mask id="mask18" mask-type="alpha" maskUnits="userSpaceOnUse" x="2797" y="745" width="24" height="62">
<path fill-rule="evenodd" clip-rule="evenodd" d="M2808.02 745.4C2813.8 745.4 2818.56 749.942 2818.83 755.716L2820.67 794.881C2820.96 801.048 2816.05 806.215 2809.88 806.247V806.247C2804.05 806.276 2799.24 801.701 2798.98 795.88L2797.21 756.711C2796.93 750.548 2801.85 745.4 2808.02 745.4V745.4Z" fill="white"/>
</mask>
<g mask="url(#mask18)">
</g>
<path fill-rule="evenodd" clip-rule="evenodd" d="M2790.48 675.419C2790.83 669.916 2795.28 665.569 2800.79 665.347L2851.34 663.305C2856.56 663.094 2861.15 666.709 2862.18 671.829V671.829C2863.45 678.201 2858.75 684.212 2852.26 684.515L2801.73 686.876C2795.31 687.176 2790.06 681.83 2790.48 675.419V675.419Z" fill="#FFBD60"/>
<mask id="mask19" mask-type="alpha" maskUnits="userSpaceOnUse" x="2790" y="663" width="73" height="24">
<path fill-rule="evenodd" clip-rule="evenodd" d="M2790.48 675.419C2790.83 669.916 2795.28 665.569 2800.79 665.347L2851.34 663.305C2856.56 663.094 2861.15 666.709 2862.18 671.829V671.829C2863.45 678.201 2858.75 684.212 2852.26 684.515L2801.73 686.876C2795.31 687.176 2790.06 681.83 2790.48 675.419V675.419Z" fill="white"/>
</mask>
<g mask="url(#mask19)">
<path d="M2810.89 662.544L2813.21 689.043" stroke="#FF9666" stroke-width="3.5" stroke-linecap="round" stroke-linejoin="round"/>
<path d="M2836.57 660.94L2838.89 687.439" stroke="#FF9666" stroke-width="3.5" stroke-linecap="round" stroke-linejoin="round"/>
</g>
<path fill-rule="evenodd" clip-rule="evenodd" d="M2793.28 714.919C2793.63 709.416 2798.08 705.069 2803.59 704.846L2854.14 702.804C2859.36 702.593 2863.95 706.208 2864.98 711.329V711.329C2866.25 717.7 2861.56 723.711 2855.06 724.014L2804.53 726.376C2798.11 726.676 2792.86 721.329 2793.28 714.919V714.919Z" fill="#FFBD60"/>
<mask id="mask20" mask-type="alpha" maskUnits="userSpaceOnUse" x="2793" y="702" width="73" height="25">
<path fill-rule="evenodd" clip-rule="evenodd" d="M2793.28 714.919C2793.63 709.416 2798.08 705.069 2803.59 704.846L2854.14 702.804C2859.36 702.593 2863.95 706.208 2864.98 711.329V711.329C2866.25 717.7 2861.56 723.711 2855.06 724.014L2804.53 726.376C2798.11 726.676 2792.86 721.329 2793.28 714.919V714.919Z" fill="white"/>
</mask>
<g mask="url(#mask20)">
<path d="M2813.69 702.044L2816.01 728.543" stroke="#FF9666" stroke-width="3.5" stroke-linecap="round" stroke-linejoin="round"/>
<path d="M2839.37 700.439L2841.69 726.938" stroke="#FF9666" stroke-width="3.5" stroke-linecap="round" stroke-linejoin="round"/>
</g>
<path fill-rule="evenodd" clip-rule="evenodd" d="M2804.36 830.12C2805.08 824.399 2810.01 819.887 2815.76 819.669L2864.38 817.827C2869.89 817.618 2874.47 821.463 2875.14 826.854V826.854C2875.95 833.435 2870.69 839.57 2863.97 839.869L2815.34 842.035C2808.64 842.333 2803.52 836.775 2804.36 830.12V830.12Z" fill="#FFBD60"/>
<mask id="mask21" mask-type="alpha" maskUnits="userSpaceOnUse" x="2804" y="817" width="72" height="26">
<path fill-rule="evenodd" clip-rule="evenodd" d="M2804.36 830.12C2805.08 824.399 2810.01 819.887 2815.76 819.669L2864.38 817.827C2869.89 817.618 2874.47 821.463 2875.14 826.854V826.854C2875.95 833.435 2870.69 839.57 2863.97 839.869L2815.34 842.035C2808.64 842.333 2803.52 836.775 2804.36 830.12V830.12Z" fill="white"/>
</mask>
<g mask="url(#mask21)">
<path d="M2826.39 817.118L2824.27 843.642" stroke="#FF9666" stroke-width="3.5" stroke-linecap="round" stroke-linejoin="round"/>
<path d="M2852.11 815.962L2849.98 842.486" stroke="#FF9666" stroke-width="3.5" stroke-linecap="round" stroke-linejoin="round"/>
</g>
<path fill-rule="evenodd" clip-rule="evenodd" d="M2809.48 802.188C2803.7 802.188 2798.94 797.646 2798.67 791.872L2796.83 752.707C2796.54 746.539 2801.45 741.373 2807.62 741.341V741.341C2813.45 741.311 2818.26 745.887 2818.52 751.708L2820.29 790.877C2820.57 797.04 2815.65 802.188 2809.48 802.188V802.188Z" fill="#FFBD60"/>
<mask id="mask22" mask-type="alpha" maskUnits="userSpaceOnUse" x="2796" y="741" width="25" height="62">
<path fill-rule="evenodd" clip-rule="evenodd" d="M2809.48 802.188C2803.7 802.188 2798.94 797.646 2798.67 791.872L2796.83 752.707C2796.54 746.539 2801.45 741.373 2807.62 741.341V741.341C2813.45 741.311 2818.26 745.887 2818.52 751.708L2820.29 790.877C2820.57 797.04 2815.65 802.188 2809.48 802.188V802.188Z" fill="white"/>
</mask>
<g mask="url(#mask22)">
<path d="M2793.6 771.497L2820.85 770.688" stroke="#FF9666" stroke-width="3.5" stroke-linecap="round" stroke-linejoin="round"/>
</g>
<path fill-rule="evenodd" clip-rule="evenodd" d="M2859.53 799.788C2853.75 799.788 2848.99 795.246 2848.72 789.473L2846.88 750.307C2846.59 744.14 2851.5 738.973 2857.67 738.942V738.942C2863.5 738.912 2868.31 743.488 2868.57 749.309L2870.34 788.478C2870.62 794.64 2865.7 799.788 2859.53 799.788V799.788Z" fill="#FFBD60"/>
<mask id="mask23" mask-type="alpha" maskUnits="userSpaceOnUse" x="2846" y="738" width="25" height="62">
<path fill-rule="evenodd" clip-rule="evenodd" d="M2859.53 799.788C2853.75 799.788 2848.99 795.246 2848.72 789.473L2846.88 750.307C2846.59 744.14 2851.5 738.973 2857.67 738.942V738.942C2863.5 738.912 2868.31 743.488 2868.57 749.309L2870.34 788.478C2870.62 794.64 2865.7 799.788 2859.53 799.788V799.788Z" fill="white"/>
</mask>
<g mask="url(#mask23)">
<path d="M2843.65 769.098L2870.9 768.288" stroke="#FF9666" stroke-width="3.5" stroke-linecap="round" stroke-linejoin="round"/>
</g>
<path fill-rule="evenodd" clip-rule="evenodd" d="M3137 333.45L3165 292.85L3194.6 299.681C3198.72 300.632 3201.87 303.959 3202.59 308.125L3300.8 876.65H3221.7L3137 333.45Z" fill="url(#paint51_linear)"/>
<mask id="mask24" mask-type="alpha" maskUnits="userSpaceOnUse" x="3136" y="292" width="165" height="585">
<path fill-rule="evenodd" clip-rule="evenodd" d="M3137 333.45L3165 292.85L3194.6 299.681C3198.72 300.632 3201.87 303.959 3202.59 308.125L3300.8 876.65H3221.7L3137 333.45Z" fill="white"/>
</mask>
<g mask="url(#mask24)">
<path opacity="0.415341" fill-rule="evenodd" clip-rule="evenodd" d="M3221.7 399.95C3221.7 399.95 3225.2 417.45 3194.4 427.25C3163.6 437.05 3018 453.85 3018 453.85L3017.3 479.75C3017.3 479.75 3254.6 453.85 3252.5 453.85C3250.4 453.85 3221.7 399.95 3221.7 399.95Z" fill="#253554"/>
</g>
<path fill-rule="evenodd" clip-rule="evenodd" d="M3038.3 876.65L3019.65 317.956C3019.51 313.639 3022.66 309.917 3026.94 309.349L3159.31 291.783C3163.7 291.202 3167.78 294.115 3168.65 298.448L3285.4 876.65H3038.3Z" fill="url(#paint52_linear)"/>
<rect opacity="0.415341" x="3033.3" y="339.399" width="34.4548" height="107.8" rx="10.5" transform="rotate(-7 3033.3 339.399)" fill="#253554"/>
<rect opacity="0.415341" x="3114.5" y="330.299" width="34.4548" height="107.8" rx="10.5" transform="rotate(-7 3114.5 330.299)" fill="#253554"/>
<path opacity="0.415341" fill-rule="evenodd" clip-rule="evenodd" d="M3075.12 688.664C3074.4 681.113 3079.82 674.361 3087.35 673.436L3093.64 672.664C3101.5 671.699 3108.6 677.442 3109.29 685.332L3123.41 845.752C3124.09 853.47 3118.37 860.272 3110.65 860.929L3105.55 861.363C3097.9 862.014 3091.15 856.386 3090.42 848.746L3075.12 688.664Z" fill="#253554"/>
<path opacity="0.415341" fill-rule="evenodd" clip-rule="evenodd" d="M3173.12 674.664C3172.4 667.113 3177.82 660.361 3185.35 659.436L3191.64 658.664C3199.5 657.699 3206.6 663.442 3207.29 671.332L3221.41 831.752C3222.09 839.47 3216.37 846.272 3208.65 846.929L3203.55 847.363C3195.9 848.014 3189.15 842.386 3188.42 834.746L3173.12 674.664Z" fill="#253554"/>
<path opacity="0.415341" fill-rule="evenodd" clip-rule="evenodd" d="M3180.12 674.664C3179.4 667.113 3184.82 660.361 3192.35 659.436L3198.64 658.664C3206.5 657.699 3213.6 663.442 3214.29 671.332L3228.41 831.752C3229.09 839.47 3223.37 846.272 3215.65 846.929L3210.55 847.363C3202.9 848.014 3196.15 842.386 3195.42 834.746L3180.12 674.664Z" fill="#253554"/>
<mask id="mask25" mask-type="alpha" maskUnits="userSpaceOnUse" x="3174" y="656" width="62" height="194">
<path fill-rule="evenodd" clip-rule="evenodd" d="M3180.12 674.664C3179.4 667.113 3184.82 660.361 3192.35 659.436L3198.64 658.664C3206.5 657.699 3213.6 663.442 3214.29 671.332L3228.41 831.752C3229.09 839.47 3223.37 846.272 3215.65 846.929L3210.55 847.363C3202.9 848.014 3196.15 842.386 3195.42 834.746L3180.12 674.664Z" fill="white"/>
</mask>
<g mask="url(#mask25)">
</g>
<path opacity="0.415341" fill-rule="evenodd" clip-rule="evenodd" d="M3006.8 650.55L3252.5 640.75L3249 612.75L3003.3 627.45L3006.8 650.55Z" fill="#253554"/>
<rect x="3032.21" y="332.451" width="34.4548" height="107.8" rx="10.5" transform="rotate(-7 3032.21 332.451)" fill="#FFBD60"/>
<mask id="mask26" mask-type="alpha" maskUnits="userSpaceOnUse" x="3032" y="328" width="48" height="112">
<rect x="3032.21" y="332.451" width="34.4548" height="107.8" rx="10.5" transform="rotate(-7 3032.21 332.451)" fill="white"/>
</mask>
<g mask="url(#mask26)">
<path d="M3028.44 357.823L3075.46 350.377" stroke="#FF9666" stroke-width="3.5" stroke-linecap="round" stroke-linejoin="round"/>
<path d="M3031.94 387.048L3078.96 379.602" stroke="#FF9666" stroke-width="3.5" stroke-linecap="round" stroke-linejoin="round"/>
<path d="M3035.44 416.273L3082.46 408.827" stroke="#FF9666" stroke-width="3.5" stroke-linecap="round" stroke-linejoin="round"/>
</g>
<path fill-rule="evenodd" clip-rule="evenodd" d="M3162.38 672.676C3161.66 665.125 3167.08 658.373 3174.61 657.448L3180.9 656.676C3188.76 655.711 3195.85 661.454 3196.55 669.344L3210.67 829.764C3211.35 837.482 3205.63 844.284 3197.91 844.941L3192.8 845.375C3185.16 846.026 3178.41 840.398 3177.68 832.758L3162.38 672.676Z" fill="#FFBD60"/>
<mask id="mask27" mask-type="alpha" maskUnits="userSpaceOnUse" x="3156" y="654" width="62" height="194">
<path fill-rule="evenodd" clip-rule="evenodd" d="M3162.38 672.676C3161.66 665.125 3167.08 658.373 3174.61 657.448L3180.9 656.676C3188.76 655.711 3195.85 661.454 3196.55 669.344L3210.67 829.764C3211.35 837.482 3205.63 844.284 3197.91 844.941L3192.8 845.375C3185.16 846.026 3178.41 840.398 3177.68 832.758L3162.38 672.676Z" fill="white"/>
</mask>
<g mask="url(#mask27)">
<path d="M3156.38 704.138L3203.72 699.162" stroke="#FF9666" stroke-width="3.5" stroke-linecap="round" stroke-linejoin="round"/>
<path d="M3156.38 753.488L3203.72 748.512" stroke="#FF9666" stroke-width="3.5" stroke-linecap="round" stroke-linejoin="round"/>
<path d="M3162.33 802.838L3209.67 797.862" stroke="#FF9666" stroke-width="3.5" stroke-linecap="round" stroke-linejoin="round"/>
</g>
<path fill-rule="evenodd" clip-rule="evenodd" d="M3068.51 675.144C3067.78 667.593 3073.21 660.841 3080.74 659.917L3087.02 659.144C3094.89 658.179 3101.98 663.922 3102.68 671.813L3116.8 832.232C3117.48 839.95 3111.76 846.752 3104.04 847.409L3098.93 847.844C3091.28 848.494 3084.54 842.867 3083.81 835.226L3068.51 675.144Z" fill="#FFBD60"/>
<mask id="mask28" mask-type="alpha" maskUnits="userSpaceOnUse" x="3062" y="657" width="62" height="193">
<path fill-rule="evenodd" clip-rule="evenodd" d="M3068.51 675.144C3067.78 667.593 3073.21 660.841 3080.74 659.917L3087.02 659.144C3094.89 658.179 3101.98 663.922 3102.68 671.813L3116.8 832.232C3117.48 839.95 3111.76 846.752 3104.04 847.409L3098.93 847.844C3091.28 848.494 3084.54 842.867 3083.81 835.226L3068.51 675.144Z" fill="white"/>
</mask>
<g mask="url(#mask28)">
<path d="M3062.51 706.606L3109.85 701.631" stroke="#FF9666" stroke-width="3.5" stroke-linecap="round" stroke-linejoin="round"/>
<path d="M3062.51 755.956L3109.85 750.981" stroke="#FF9666" stroke-width="3.5" stroke-linecap="round" stroke-linejoin="round"/>
<path d="M3068.46 805.306L3115.8 800.331" stroke="#FF9666" stroke-width="3.5" stroke-linecap="round" stroke-linejoin="round"/>
</g>
<rect x="3113.41" y="323.351" width="34.4548" height="107.8" rx="10.5" transform="rotate(-7 3113.41 323.351)" fill="#FFBD60"/>
<mask id="mask29" mask-type="alpha" maskUnits="userSpaceOnUse" x="3113" y="319" width="48" height="112">
<rect x="3113.41" y="323.351" width="34.4548" height="107.8" rx="10.5" transform="rotate(-7 3113.41 323.351)" fill="white"/>
</mask>
<g mask="url(#mask29)">
<path d="M3109.64 348.723L3156.66 341.277" stroke="#FF9666" stroke-width="3.5" stroke-linecap="round" stroke-linejoin="round"/>
<path d="M3113.14 377.948L3160.16 370.502" stroke="#FF9666" stroke-width="3.5" stroke-linecap="round" stroke-linejoin="round"/>
<path d="M3116.64 407.173L3163.66 399.727" stroke="#FF9666" stroke-width="3.5" stroke-linecap="round" stroke-linejoin="round"/>
</g>
<path fill-rule="evenodd" clip-rule="evenodd" d="M3228 604.35L3197.9 437.05H3238.17C3241.59 437.05 3244.51 439.521 3245.08 442.894L3271.4 600.15L3228 604.35Z" fill="url(#paint53_linear)"/>
<path fill-rule="evenodd" clip-rule="evenodd" d="M3009.74 465.108C3009.66 461.502 3012.33 458.424 3015.91 457.998L3197.06 436.417C3200.69 435.984 3204.05 438.421 3204.76 442.009L3239.76 618.969C3240.58 623.1 3237.59 627.013 3233.39 627.31L3021.12 642.332C3017.14 642.614 3013.72 639.505 3013.63 635.509L3009.74 465.108Z" fill="url(#paint54_linear)"/>
<rect opacity="0.415341" x="3033.34" y="487.597" width="160.65" height="44.52" rx="16.8" transform="rotate(-5.99999 3033.34 487.597)" fill="#253554"/>
<rect opacity="0.415341" x="3061.34" y="570.197" width="160.65" height="44.52" rx="16.8" transform="rotate(-5.99999 3061.34 570.197)" fill="#253554"/>
<rect width="162.703" height="42.1783" rx="16.8" transform="matrix(1.00919 -0.120734 0.0053517 0.982135 3028.01 483.56)" fill="#E2E7F4"/>
<rect width="141.013" height="36.2519" rx="14" transform="matrix(1.05336 -0.137281 -0.263201 0.930862 3040.72 487.257)" fill="#FFBD60"/>
<mask id="mask30" mask-type="alpha" maskUnits="userSpaceOnUse" x="3034" y="469" width="153" height="51">
<rect width="141.013" height="36.2519" rx="14" transform="matrix(1.05336 -0.137281 -0.263201 0.930862 3040.72 487.257)" fill="white"/>
</mask>
<g mask="url(#mask30)">
<path d="M3068.52 479.865L3064.8 520.635" stroke="#FF9666" stroke-width="3.5" stroke-linecap="round" stroke-linejoin="round"/>
<path d="M3112.08 474.065L3108.36 514.836" stroke="#FF9666" stroke-width="3.5" stroke-linecap="round" stroke-linejoin="round"/>
<path d="M3155.07 468.528L3151.35 509.299" stroke="#FF9666" stroke-width="3.5" stroke-linecap="round" stroke-linejoin="round"/>
<path opacity="0.503664" fill-rule="evenodd" clip-rule="evenodd" d="M3038.25 518.049L3191.68 493.109L3187.07 511.26L3031.84 537.835L3038.25 518.049Z" fill="#FF9666"/>
</g>
<rect width="162.703" height="42.1783" rx="16.8" transform="matrix(1.00919 -0.120734 0.0053516 0.982135 3042.71 566.613)" fill="#E2E7F4"/>
<rect width="141.013" height="36.2519" rx="14" transform="matrix(1.05336 -0.137281 -0.263201 0.930862 3055.42 570.31)" fill="#FFBD60"/>
<mask id="mask31" mask-type="alpha" maskUnits="userSpaceOnUse" x="3049" y="552" width="152" height="51">
<rect width="141.013" height="36.2519" rx="14" transform="matrix(1.05336 -0.137281 -0.263201 0.930862 3055.42 570.31)" fill="white"/>
</mask>
<g mask="url(#mask31)">
<path opacity="0.503664" fill-rule="evenodd" clip-rule="evenodd" d="M3038.25 603.183L3191.36 578.179L3187.05 594.306L3032.16 620.789L3038.25 603.183Z" fill="#FF9666"/>
<path d="M3083.22 562.917L3079.5 603.688" stroke="#FF9666" stroke-width="3.5" stroke-linecap="round" stroke-linejoin="round"/>
<path d="M3126.78 557.118L3123.06 597.889" stroke="#FF9666" stroke-width="3.5" stroke-linecap="round" stroke-linejoin="round"/>
<path d="M3169.77 551.581L3166.05 592.351" stroke="#FF9666" stroke-width="3.5" stroke-linecap="round" stroke-linejoin="round"/>
</g>
<path fill-rule="evenodd" clip-rule="evenodd" d="M2739.3 869.794L2717.44 608.809C2717.13 605.182 2714.1 602.394 2710.46 602.394H2608.92C2605.13 602.394 2602.02 605.418 2601.92 609.212L2595.1 871.894L2739.3 869.794Z" fill="url(#paint55_linear)"/>
<mask id="mask32" mask-type="alpha" maskUnits="userSpaceOnUse" x="2595" y="602" width="145" height="270">
<path fill-rule="evenodd" clip-rule="evenodd" d="M2739.3 869.794L2717.44 608.809C2717.13 605.182 2714.1 602.394 2710.46 602.394H2608.92C2605.13 602.394 2602.02 605.418 2601.92 609.212L2595.1 871.894L2739.3 869.794Z" fill="white"/>
</mask>
<g mask="url(#mask32)">
<path d="M2704.06 621.603C2707.02 621.603 2709.42 619.204 2709.42 616.244C2709.42 613.284 2707.02 610.884 2704.06 610.884C2701.1 610.884 2698.7 613.284 2698.7 616.244C2698.7 619.204 2701.1 621.603 2704.06 621.603Z" fill="#583FB3"/>
<path fill-rule="evenodd" clip-rule="evenodd" d="M2691.03 620.145C2693.19 620.145 2694.93 618.399 2694.93 616.244C2694.93 614.089 2693.19 612.342 2691.03 612.342C2688.88 612.342 2687.13 614.089 2687.13 616.244C2687.13 618.399 2688.88 620.145 2691.03 620.145Z" fill="#FF6CBB"/>
<path d="M2711.43 726.719C2714.39 726.719 2716.79 724.32 2716.79 721.36C2716.79 718.4 2714.39 716 2711.43 716C2708.47 716 2706.07 718.4 2706.07 721.36C2706.07 724.32 2708.47 726.719 2711.43 726.719Z" fill="#583FB3"/>
<path fill-rule="evenodd" clip-rule="evenodd" d="M2698.4 725.261C2700.56 725.261 2702.3 723.514 2702.3 721.36C2702.3 719.205 2700.56 717.458 2698.4 717.458C2696.25 717.458 2694.5 719.205 2694.5 721.36C2694.5 723.514 2696.25 725.261 2698.4 725.261Z" fill="#FF6CBB"/>
<rect x="2586.79" y="647.179" width="146.909" height="59.0366" fill="#E2E7F4"/>
<path fill-rule="evenodd" clip-rule="evenodd" d="M2581.15 761.286L2743.45 761.064V820.101L2581.15 820.323V761.286Z" fill="#E2E7F4"/>
<rect x="2590.9" y="651.497" width="142.709" height="49.8576" fill="url(#paint56_linear)"/>
<mask id="mask33" mask-type="alpha" maskUnits="userSpaceOnUse" x="2590" y="651" width="144" height="51">
<rect x="2590.9" y="651.497" width="142.709" height="49.8576" fill="white"/>
</mask>
<g mask="url(#mask33)">
<path d="M2662.3 643.694V707.394" stroke="#5D7CFF" stroke-width="3.5"/>
</g>
<path fill-rule="evenodd" clip-rule="evenodd" d="M2562.9 765.494H2754.61V815.351H2562.9V765.494Z" fill="url(#paint57_linear)"/>
<mask id="mask34" mask-type="alpha" maskUnits="userSpaceOnUse" x="2562" y="765" width="193" height="51">
<path fill-rule="evenodd" clip-rule="evenodd" d="M2562.9 765.494H2754.61V815.351H2562.9V765.494Z" fill="white"/>
</mask>
<g mask="url(#mask34)">
<path d="M2662.3 760.594V822.894" stroke="#5D7CFF" stroke-width="3.5"/>
</g>
</g>
</g>
<defs>
<linearGradient id="paint0_linear" x1="2283.75" y1="1152.11" x2="2472.71" y2="-27.15" gradientUnits="userSpaceOnUse">
<stop stop-color="#FFC5A4"/>
<stop offset="0.376046" stop-color="#FA6CBE"/>
<stop offset="1" stop-color="#8E62FF"/>
</linearGradient>
<linearGradient id="paint1_linear" x1="1950.4" y1="71.6033" x2="1701.3" y2="1178.84" gradientUnits="userSpaceOnUse">
<stop stop-color="#FF87C7"/>
<stop offset="1" stop-color="#FFBD60"/>
</linearGradient>
<linearGradient id="paint2_linear" x1="2127.94" y1="369.661" x2="3729.49" y2="1113.76" gradientUnits="userSpaceOnUse">
<stop stop-color="#FFA492" stop-opacity="0.01"/>
<stop offset="0.300844" stop-color="#CA3891"/>
<stop offset="1" stop-color="#3E13AF"/>
</linearGradient>
<linearGradient id="paint3_linear" x1="3408.48" y1="588.473" x2="3538.6" y2="-199.308" gradientUnits="userSpaceOnUse">
<stop stop-color="#FFA492"/>
<stop offset="0.216626" stop-color="#CA3891"/>
<stop offset="1" stop-color="#3E13AF"/>
</linearGradient>
<linearGradient id="paint4_linear" x1="3211.32" y1="297.768" x2="3219.34" y2="215.018" gradientUnits="userSpaceOnUse">
<stop stop-color="#FFA492"/>
<stop offset="0.216626" stop-color="#CA3891"/>
<stop offset="1" stop-color="#3E13AF"/>
</linearGradient>
<linearGradient id="paint5_linear" x1="2888.28" y1="348.079" x2="2918.86" y2="297.328" gradientUnits="userSpaceOnUse">
<stop stop-color="#FFA492"/>
<stop offset="0.216626" stop-color="#CA3891"/>
<stop offset="1" stop-color="#3E13AF"/>
</linearGradient>
<linearGradient id="paint6_linear" x1="2848.6" y1="363.518" x2="2859.35" y2="274.903" gradientUnits="userSpaceOnUse">
<stop stop-color="#FFA492"/>
<stop offset="0.216626" stop-color="#CA3891"/>
<stop offset="1" stop-color="#3E13AF"/>
</linearGradient>
<linearGradient id="paint7_linear" x1="2549.22" y1="335.194" x2="2539.19" y2="235.84" gradientUnits="userSpaceOnUse">
<stop stop-color="#FFA492"/>
<stop offset="0.216626" stop-color="#CA3891"/>
<stop offset="1" stop-color="#3E13AF"/>
</linearGradient>
<linearGradient id="paint8_linear" x1="2731.14" y1="250.132" x2="2799.48" y2="410.854" gradientUnits="userSpaceOnUse">
<stop stop-color="#F393AA"/>
<stop offset="1" stop-color="#B81375"/>
</linearGradient>
<linearGradient id="paint9_linear" x1="2950.35" y1="390.278" x2="2975.59" y2="276.76" gradientUnits="userSpaceOnUse">
<stop stop-color="#FFA492"/>
<stop offset="0.216626" stop-color="#CA3891"/>
<stop offset="1" stop-color="#3E13AF"/>
</linearGradient>
<linearGradient id="paint10_linear" x1="2920.09" y1="376.451" x2="2965.28" y2="241.089" gradientUnits="userSpaceOnUse">
<stop stop-color="#FFA492"/>
<stop offset="0.216626" stop-color="#CA3891"/>
<stop offset="1" stop-color="#3E13AF"/>
</linearGradient>
<linearGradient id="paint11_linear" x1="2848.85" y1="363.309" x2="2859.6" y2="274.694" gradientUnits="userSpaceOnUse">
<stop stop-color="#FFA492"/>
<stop offset="0.216626" stop-color="#CA3891"/>
<stop offset="1" stop-color="#3E13AF"/>
</linearGradient>
<linearGradient id="paint12_linear" x1="2547.18" y1="282.262" x2="2615.52" y2="442.984" gradientUnits="userSpaceOnUse">
<stop stop-color="#F393AA"/>
<stop offset="1" stop-color="#B81375"/>
</linearGradient>
<linearGradient id="paint13_linear" x1="2745" y1="419.76" x2="2770.54" y2="314.514" gradientUnits="userSpaceOnUse">
<stop stop-color="#FFA492"/>
<stop offset="0.216626" stop-color="#CA3891"/>
<stop offset="1" stop-color="#3E13AF"/>
</linearGradient>
<linearGradient id="paint14_linear" x1="2737.21" y1="404.244" x2="2779.37" y2="274.403" gradientUnits="userSpaceOnUse">
<stop stop-color="#FFA492"/>
<stop offset="0.216626" stop-color="#CA3891"/>
<stop offset="1" stop-color="#3E13AF"/>
</linearGradient>
<linearGradient id="paint15_linear" x1="2910.69" y1="219.892" x2="2979.03" y2="380.614" gradientUnits="userSpaceOnUse">
<stop stop-color="#F393AA"/>
<stop offset="1" stop-color="#B81375"/>
</linearGradient>
<linearGradient id="paint16_linear" x1="3137.37" y1="359.478" x2="3161.07" y2="245.267" gradientUnits="userSpaceOnUse">
<stop stop-color="#FFA492"/>
<stop offset="0.216626" stop-color="#CA3891"/>
<stop offset="1" stop-color="#3E13AF"/>
</linearGradient>
<linearGradient id="paint17_linear" x1="3138.57" y1="349.843" x2="3179.25" y2="196.338" gradientUnits="userSpaceOnUse">
<stop stop-color="#FFA492"/>
<stop offset="0.216626" stop-color="#CA3891"/>
<stop offset="1" stop-color="#3E13AF"/>
</linearGradient>
<linearGradient id="paint18_linear" x1="3085.69" y1="189.792" x2="3154.03" y2="350.514" gradientUnits="userSpaceOnUse">
<stop stop-color="#F393AA"/>
<stop offset="1" stop-color="#B81375"/>
</linearGradient>
<linearGradient id="paint19_linear" x1="3274.02" y1="372.332" x2="3386.39" y2="185.821" gradientUnits="userSpaceOnUse">
<stop stop-color="#FFA492"/>
<stop offset="0.216626" stop-color="#CA3891"/>
<stop offset="1" stop-color="#3E13AF"/>
</linearGradient>
<linearGradient id="paint20_linear" x1="3313.57" y1="319.743" x2="3354.25" y2="166.238" gradientUnits="userSpaceOnUse">
<stop stop-color="#FFA492"/>
<stop offset="0.216626" stop-color="#CA3891"/>
<stop offset="1" stop-color="#3E13AF"/>
</linearGradient>
<linearGradient id="paint21_linear" x1="3211.32" y1="297.768" x2="3219.34" y2="215.018" gradientUnits="userSpaceOnUse">
<stop stop-color="#FFA492"/>
<stop offset="0.216626" stop-color="#CA3891"/>
<stop offset="1" stop-color="#3E13AF"/>
</linearGradient>
<linearGradient id="paint22_linear" x1="2902.74" y1="295.111" x2="2710.92" y2="595.101" gradientUnits="userSpaceOnUse">
<stop stop-color="#F393AA"/>
<stop offset="1" stop-color="#B81375"/>
</linearGradient>
<linearGradient id="paint23_linear" x1="2371.92" y1="415.22" x2="2327.99" y2="206.666" gradientUnits="userSpaceOnUse">
<stop stop-color="#FFA492"/>
<stop offset="0.216626" stop-color="#CA3891"/>
<stop offset="1" stop-color="#3E13AF"/>
</linearGradient>
<linearGradient id="paint24_linear" x1="2560.67" y1="361.483" x2="2365.81" y2="476.146" gradientUnits="userSpaceOnUse">
<stop stop-color="#FFA492"/>
<stop offset="0.216626" stop-color="#CA3891"/>
<stop offset="1" stop-color="#3E13AF"/>
</linearGradient>
<linearGradient id="paint25_linear" x1="2466.03" y1="271.168" x2="2558.45" y2="273.938" gradientUnits="userSpaceOnUse">
<stop stop-color="#FFA492"/>
<stop offset="0.216626" stop-color="#CA3891"/>
<stop offset="1" stop-color="#3E13AF"/>
</linearGradient>
<linearGradient id="paint26_linear" x1="2516.78" y1="393.701" x2="2596.96" y2="202.424" gradientUnits="userSpaceOnUse">
<stop stop-color="#FFA492"/>
<stop offset="0.216626" stop-color="#CA3891"/>
<stop offset="1" stop-color="#3E13AF"/>
</linearGradient>
<linearGradient id="paint27_linear" x1="2761.61" y1="181.081" x2="2569.79" y2="481.071" gradientUnits="userSpaceOnUse">
<stop stop-color="#F393AA"/>
<stop offset="1" stop-color="#B81375"/>
</linearGradient>
<linearGradient id="paint28_linear" x1="2230.79" y1="301.19" x2="2186.86" y2="92.6358" gradientUnits="userSpaceOnUse">
<stop stop-color="#FFA492"/>
<stop offset="0.216626" stop-color="#CA3891"/>
<stop offset="1" stop-color="#3E13AF"/>
</linearGradient>
<linearGradient id="paint29_linear" x1="2408.18" y1="239.199" x2="2288.66" y2="333.656" gradientUnits="userSpaceOnUse">
<stop stop-color="#FFA492"/>
<stop offset="0.216626" stop-color="#CA3891"/>
<stop offset="1" stop-color="#3E13AF"/>
</linearGradient>
<linearGradient id="paint30_linear" x1="2392.89" y1="272.644" x2="2445.72" y2="154.806" gradientUnits="userSpaceOnUse">
<stop stop-color="#FFA492"/>
<stop offset="0.216626" stop-color="#CA3891"/>
<stop offset="1" stop-color="#3E13AF"/>
</linearGradient>
<linearGradient id="paint31_linear" x1="2052.14" y1="714.684" x2="3035.05" y2="1702.11" gradientUnits="userSpaceOnUse">
<stop stop-color="#FFA492" stop-opacity="0.01"/>
<stop offset="0.300844" stop-color="#CA3891"/>
<stop offset="1" stop-color="#3E13AF"/>
</linearGradient>
<linearGradient id="paint32_linear" x1="2418.74" y1="681.833" x2="2473.06" y2="643.44" gradientUnits="userSpaceOnUse">
<stop stop-color="#FFA492"/>
<stop offset="0.216626" stop-color="#CA3891"/>
<stop offset="1" stop-color="#3E13AF"/>
</linearGradient>
<linearGradient id="paint33_linear" x1="2556.08" y1="676.126" x2="2580.3" y2="534.676" gradientUnits="userSpaceOnUse">
<stop stop-color="#FFA492"/>
<stop offset="0.216626" stop-color="#CA3891"/>
<stop offset="1" stop-color="#3E13AF"/>
</linearGradient>
<linearGradient id="paint34_linear" x1="2841.96" y1="690.962" x2="2865.13" y2="550.543" gradientUnits="userSpaceOnUse">
<stop stop-color="#FFA492"/>
<stop offset="0.216626" stop-color="#CA3891"/>
<stop offset="1" stop-color="#3E13AF"/>
</linearGradient>
<linearGradient id="paint35_linear" x1="3258.07" y1="884.873" x2="3350.59" y2="227.925" gradientUnits="userSpaceOnUse">
<stop stop-color="#FFA492"/>
<stop offset="0.216626" stop-color="#CA3891"/>
<stop offset="1" stop-color="#3E13AF"/>
</linearGradient>
<linearGradient id="paint36_linear" x1="0" y1="0" x2="0" y2="91.9008" gradientUnits="userSpaceOnUse">
<stop stop-color="#F393AA"/>
<stop offset="1" stop-color="#D44399"/>
</linearGradient>
<linearGradient id="paint37_linear" x1="0" y1="0" x2="0" y2="91.9008" gradientUnits="userSpaceOnUse">
<stop stop-color="#F393AA"/>
<stop offset="1" stop-color="#D44399"/>
</linearGradient>
<linearGradient id="paint38_linear" x1="2995.85" y1="663.297" x2="3144.74" y2="391.056" gradientUnits="userSpaceOnUse">
<stop stop-color="#FFA492"/>
<stop offset="0.43169" stop-color="#CA3891"/>
<stop offset="1" stop-color="#3E13AF"/>
</linearGradient>
<linearGradient id="paint39_linear" x1="2969.94" y1="561.659" x2="2986.94" y2="461.04" gradientUnits="userSpaceOnUse">
<stop stop-color="#FFA492"/>
<stop offset="0.359822" stop-color="#CA3891"/>
<stop offset="1" stop-color="#3E13AF"/>
</linearGradient>
<linearGradient id="paint40_linear" x1="3086.13" y1="1309.52" x2="3696.65" y2="964.927" gradientUnits="userSpaceOnUse">
<stop stop-color="#FFA492"/>
<stop offset="0.43169" stop-color="#CA3891"/>
<stop offset="1" stop-color="#3E13AF"/>
</linearGradient>
<linearGradient id="paint41_linear" x1="2934.9" y1="658.389" x2="2968.84" y2="651.06" gradientUnits="userSpaceOnUse">
<stop stop-color="#74C3FF"/>
<stop offset="1" stop-color="#5C79FF"/>
</linearGradient>
<linearGradient id="paint42_linear" x1="2949.91" y1="755.321" x2="2983.85" y2="747.991" gradientUnits="userSpaceOnUse">
<stop stop-color="#74C3FF"/>
<stop offset="1" stop-color="#5C79FF"/>
</linearGradient>
<linearGradient id="paint43_linear" x1="2964.93" y1="852.252" x2="2998.86" y2="844.922" gradientUnits="userSpaceOnUse">
<stop stop-color="#74C3FF"/>
<stop offset="1" stop-color="#5C79FF"/>
</linearGradient>
<linearGradient id="paint44_linear" x1="3147.16" y1="1123.58" x2="3527.48" y2="587.282" gradientUnits="userSpaceOnUse">
<stop stop-color="#FFA492"/>
<stop offset="0.43169" stop-color="#CA3891"/>
<stop offset="1" stop-color="#3E13AF"/>
</linearGradient>
<linearGradient id="paint45_linear" x1="3034.33" y1="1016.34" x2="3254.88" y2="714.456" gradientUnits="userSpaceOnUse">
<stop stop-color="#FFA492"/>
<stop offset="0.397722" stop-color="#CA3891"/>
<stop offset="1" stop-color="#3E13AF"/>
</linearGradient>
<linearGradient id="paint46_linear" x1="2896.24" y1="1139.92" x2="3317.04" y2="749.324" gradientUnits="userSpaceOnUse">
<stop stop-color="#FFA492"/>
<stop offset="0.43169" stop-color="#CA3891"/>
<stop offset="1" stop-color="#3E13AF"/>
</linearGradient>
<linearGradient id="paint47_linear" x1="2750.69" y1="701.81" x2="2759.58" y2="665.574" gradientUnits="userSpaceOnUse">
<stop stop-color="#FFA492"/>
<stop offset="0.536699" stop-color="#CA3891"/>
<stop offset="1" stop-color="#3E13AF"/>
</linearGradient>
<linearGradient id="paint48_linear" x1="2760.2" y1="724.533" x2="2801.99" y2="674.683" gradientUnits="userSpaceOnUse">
<stop stop-color="#FFA492"/>
<stop offset="0.43169" stop-color="#CA3891"/>
<stop offset="1" stop-color="#3E13AF"/>
</linearGradient>
<linearGradient id="paint49_linear" x1="2750.35" y1="645.037" x2="2761.61" y2="632.597" gradientUnits="userSpaceOnUse">
<stop stop-color="#FF6CBB"/>
<stop offset="1" stop-color="#8E62FF"/>
</linearGradient>
<linearGradient id="paint50_linear" x1="2899.54" y1="1241.32" x2="3280.79" y2="905.046" gradientUnits="userSpaceOnUse">
<stop stop-color="#FF6CBB"/>
<stop offset="1" stop-color="#8E62FF"/>
</linearGradient>
<linearGradient id="paint51_linear" x1="3273.63" y1="1261.18" x2="3678.72" y2="1079.1" gradientUnits="userSpaceOnUse">
<stop stop-color="#FF6CBB"/>
<stop offset="1" stop-color="#8E62FF"/>
</linearGradient>
<linearGradient id="paint52_linear" x1="3219.9" y1="1621.87" x2="3981.71" y2="1148.72" gradientUnits="userSpaceOnUse">
<stop stop-color="#FF6CBB"/>
<stop offset="1" stop-color="#8E62FF"/>
</linearGradient>
<linearGradient id="paint53_linear" x1="3241.75" y1="692.414" x2="3330.09" y2="529.36" gradientUnits="userSpaceOnUse">
<stop stop-color="#FF6CBB"/>
<stop offset="1" stop-color="#8E62FF"/>
</linearGradient>
<linearGradient id="paint54_linear" x1="3031.13" y1="980.948" x2="3318.41" y2="588.563" gradientUnits="userSpaceOnUse">
<stop stop-color="#FF6CBB"/>
<stop offset="1" stop-color="#8E62FF"/>
</linearGradient>
<linearGradient id="paint55_linear" x1="2731.2" y1="942.866" x2="2731.2" y2="602.394" gradientUnits="userSpaceOnUse">
<stop stop-color="#74C3FF"/>
<stop offset="1" stop-color="#5C79FF"/>
</linearGradient>
<linearGradient id="paint56_linear" x1="2598.39" y1="616.926" x2="2560.85" y2="746.878" gradientUnits="userSpaceOnUse">
<stop stop-color="#6BE5FF"/>
<stop offset="1" stop-color="#5C79FF"/>
</linearGradient>
<linearGradient id="paint57_linear" x1="2547.49" y1="723.76" x2="2511.48" y2="884.482" gradientUnits="userSpaceOnUse">
<stop stop-color="#6BE5FF"/>
<stop offset="1" stop-color="#5C79FF"/>
</linearGradient>
</defs>
</svg>
