<svg width="5000" height="957" viewBox="0 0 5000 957" fill="none" xmlns="http://www.w3.org/2000/svg">
<path opacity="0.2" fill-rule="evenodd" clip-rule="evenodd" d="M0 0H5000V868.429C2308.36 940.511 2526.04 736 0 788V0Z" fill="url(#paint0_linear)"/>
<path fill-rule="evenodd" clip-rule="evenodd" d="M0 0H5000V868.823C2308.36 940.938 2781.25 669.182 0 669.182V0Z" fill="url(#paint1_linear)"/>
<mask id="mask0" mask-type="alpha" maskUnits="userSpaceOnUse" x="0" y="0" width="5000" height="881">
<path fill-rule="evenodd" clip-rule="evenodd" d="M0 0H5000V868.823C2308.36 940.938 2781.25 669.182 0 669.182V0Z" fill="white"/>
</mask>
<g mask="url(#mask0)">
<path opacity="0.5" fill-rule="evenodd" clip-rule="evenodd" d="M2886.7 371.6C2888.63 371.6 2890.2 370.033 2890.2 368.1C2890.2 366.167 2888.63 364.6 2886.7 364.6C2884.77 364.6 2883.2 366.167 2883.2 368.1C2883.2 370.033 2884.77 371.6 2886.7 371.6Z" fill="white"/>
<path opacity="0.5" fill-rule="evenodd" clip-rule="evenodd" d="M3096.7 329.6C3098.63 329.6 3100.2 328.033 3100.2 326.1C3100.2 324.167 3098.63 322.6 3096.7 322.6C3094.77 322.6 3093.2 324.167 3093.2 326.1C3093.2 328.033 3094.77 329.6 3096.7 329.6Z" fill="white"/>
<path opacity="0.5" fill-rule="evenodd" clip-rule="evenodd" d="M2988.81 772.982C2990.74 772.982 2992.31 771.415 2992.31 769.482C2992.31 767.549 2990.74 765.982 2988.81 765.982C2986.88 765.982 2985.31 767.549 2985.31 769.482C2985.31 771.415 2986.88 772.982 2988.81 772.982Z" fill="white"/>
<path opacity="0.3" fill-rule="evenodd" clip-rule="evenodd" d="M2662.7 462.6C2664.63 462.6 2666.2 461.033 2666.2 459.1C2666.2 457.167 2664.63 455.6 2662.7 455.6C2660.77 455.6 2659.2 457.167 2659.2 459.1C2659.2 461.033 2660.77 462.6 2662.7 462.6Z" fill="white"/>
<path opacity="0.3" fill-rule="evenodd" clip-rule="evenodd" d="M2536.7 490.6C2538.63 490.6 2540.2 489.033 2540.2 487.1C2540.2 485.167 2538.63 483.6 2536.7 483.6C2534.77 483.6 2533.2 485.167 2533.2 487.1C2533.2 489.033 2534.77 490.6 2536.7 490.6Z" fill="white"/>
<path opacity="0.3" fill-rule="evenodd" clip-rule="evenodd" d="M2256.7 560.6C2258.63 560.6 2260.2 559.033 2260.2 557.1C2260.2 555.167 2258.63 553.6 2256.7 553.6C2254.77 553.6 2253.2 555.167 2253.2 557.1C2253.2 559.033 2254.77 560.6 2256.7 560.6Z" fill="white"/>
<path opacity="0.3" fill-rule="evenodd" clip-rule="evenodd" d="M2333.7 609.6C2335.63 609.6 2337.2 608.033 2337.2 606.1C2337.2 604.167 2335.63 602.6 2333.7 602.6C2331.77 602.6 2330.2 604.167 2330.2 606.1C2330.2 608.033 2331.77 609.6 2333.7 609.6Z" fill="white"/>
<path opacity="0.3" fill-rule="evenodd" clip-rule="evenodd" d="M2235.7 434.6C2237.63 434.6 2239.2 433.033 2239.2 431.1C2239.2 429.167 2237.63 427.6 2235.7 427.6C2233.77 427.6 2232.2 429.167 2232.2 431.1C2232.2 433.033 2233.77 434.6 2235.7 434.6Z" fill="white"/>
<path opacity="0.3" fill-rule="evenodd" clip-rule="evenodd" d="M2235.7 329.6C2237.63 329.6 2239.2 328.033 2239.2 326.1C2239.2 324.167 2237.63 322.6 2235.7 322.6C2233.77 322.6 2232.2 324.167 2232.2 326.1C2232.2 328.033 2233.77 329.6 2235.7 329.6Z" fill="white"/>
<path opacity="0.3" fill-rule="evenodd" clip-rule="evenodd" d="M2396.7 329.6C2398.63 329.6 2400.2 328.033 2400.2 326.1C2400.2 324.167 2398.63 322.6 2396.7 322.6C2394.77 322.6 2393.2 324.167 2393.2 326.1C2393.2 328.033 2394.77 329.6 2396.7 329.6Z" fill="white"/>
<path opacity="0.3" fill-rule="evenodd" clip-rule="evenodd" d="M2557.7 259.6C2559.63 259.6 2561.2 258.033 2561.2 256.1C2561.2 254.167 2559.63 252.6 2557.7 252.6C2555.77 252.6 2554.2 254.167 2554.2 256.1C2554.2 258.033 2555.77 259.6 2557.7 259.6Z" fill="white"/>
<path opacity="0.3" fill-rule="evenodd" clip-rule="evenodd" d="M2809.7 406.6C2811.63 406.6 2813.2 405.033 2813.2 403.1C2813.2 401.167 2811.63 399.6 2809.7 399.6C2807.77 399.6 2806.2 401.167 2806.2 403.1C2806.2 405.033 2807.77 406.6 2809.7 406.6Z" fill="white"/>
<path opacity="0.3" fill-rule="evenodd" clip-rule="evenodd" d="M2753.7 497.6C2755.63 497.6 2757.2 496.033 2757.2 494.1C2757.2 492.167 2755.63 490.6 2753.7 490.6C2751.77 490.6 2750.2 492.167 2750.2 494.1C2750.2 496.033 2751.77 497.6 2753.7 497.6Z" fill="white"/>
<path opacity="0.3" fill-rule="evenodd" clip-rule="evenodd" d="M2963.7 518.6C2965.63 518.6 2967.2 517.033 2967.2 515.1C2967.2 513.167 2965.63 511.6 2963.7 511.6C2961.77 511.6 2960.2 513.167 2960.2 515.1C2960.2 517.033 2961.77 518.6 2963.7 518.6Z" fill="white"/>
<path opacity="0.3" fill-rule="evenodd" clip-rule="evenodd" d="M3005.7 245.6C3007.63 245.6 3009.2 244.033 3009.2 242.1C3009.2 240.167 3007.63 238.6 3005.7 238.6C3003.77 238.6 3002.2 240.167 3002.2 242.1C3002.2 244.033 3003.77 245.6 3005.7 245.6Z" fill="white"/>
<path fill-rule="evenodd" clip-rule="evenodd" d="M2234.62 163.19L2510 381.393C2530.99 398.023 2558.04 404.969 2584.45 400.502L3271.85 284.22C3289 281.318 3300.55 265.061 3297.65 247.907C3294.75 230.754 3278.49 219.201 3261.34 222.103L2573.94 338.385C2565.14 339.874 2556.12 337.558 2549.12 332.015L2273.74 113.812C2260.11 103.008 2240.3 105.303 2229.49 118.938C2218.69 132.574 2220.98 152.386 2234.62 163.19Z" fill="url(#paint2_linear)"/>
<mask id="mask1" mask-type="alpha" maskUnits="userSpaceOnUse" x="2222" y="107" width="1077" height="295">
<path fill-rule="evenodd" clip-rule="evenodd" d="M2234.62 163.19L2510 381.393C2530.99 398.023 2558.04 404.969 2584.45 400.502L3271.85 284.22C3289 281.318 3300.55 265.061 3297.65 247.907C3294.75 230.754 3278.49 219.201 3261.34 222.103L2573.94 338.385C2565.14 339.874 2556.12 337.558 2549.12 332.015L2273.74 113.812C2260.11 103.008 2240.3 105.303 2229.49 118.938C2218.69 132.574 2220.98 152.386 2234.62 163.19Z" fill="white"/>
</mask>
<g mask="url(#mask1)">
<path d="M2563.51 338.21C2563.51 338.21 2532.01 363.41 2549.65 401.84" stroke="#BB3493" stroke-width="1.26" stroke-linecap="round" stroke-linejoin="round"/>
<g style="mix-blend-mode:screen" opacity="0.4">
<path fill-rule="evenodd" clip-rule="evenodd" d="M2238.4 137.36L2513.78 355.563C2534.77 372.193 2561.82 379.139 2588.23 374.672L3275.63 258.39C3292.78 255.488 3304.33 239.231 3301.43 222.077C3298.53 204.924 3282.27 193.371 3265.12 196.272L2577.72 312.555C2568.92 314.044 2559.9 311.728 2552.9 306.185L2277.52 87.9823C2263.89 77.178 2244.08 79.473 2233.27 93.1084C2222.47 106.744 2224.76 126.556 2238.4 137.36Z" fill="url(#paint3_linear)"/>
</g>
<g style="mix-blend-mode:screen" opacity="0.4">
<path fill-rule="evenodd" clip-rule="evenodd" d="M3163.84 282.297C3183.67 279.157 3198.64 269.694 3197.29 261.159C3195.94 252.625 3178.77 248.253 3158.95 251.393C3139.12 254.533 3124.15 263.996 3125.5 272.531C3126.85 281.065 3144.02 285.437 3163.84 282.297Z" fill="url(#paint4_linear)"/>
</g>
<g style="mix-blend-mode:screen" opacity="0.4">
<path fill-rule="evenodd" clip-rule="evenodd" d="M2872.21 329.918C2879.17 329.918 2884.81 324.277 2884.81 317.318C2884.81 310.359 2879.17 304.718 2872.21 304.718C2865.25 304.718 2859.61 310.359 2859.61 317.318C2859.61 324.277 2865.25 329.918 2872.21 329.918Z" fill="url(#paint5_linear)"/>
</g>
<g style="mix-blend-mode:screen" opacity="0.4">
<path fill-rule="evenodd" clip-rule="evenodd" d="M2807.09 346.801C2823.41 343.332 2835.05 332.991 2833.07 323.706C2831.1 314.421 2816.27 309.706 2799.94 313.176C2783.62 316.645 2771.99 326.985 2773.96 336.271C2775.93 345.556 2790.77 350.271 2807.09 346.801Z" fill="url(#paint6_linear)"/>
</g>
<g style="mix-blend-mode:screen" opacity="0.4">
<path fill-rule="evenodd" clip-rule="evenodd" d="M2507.67 326.115C2513.03 319.49 2508.39 306.842 2497.31 297.865C2486.22 288.887 2472.89 286.98 2467.52 293.605C2462.16 300.229 2466.79 312.878 2477.88 321.855C2488.97 330.833 2502.3 332.74 2507.67 326.115Z" fill="url(#paint7_linear)"/>
</g>
</g>
<path fill-rule="evenodd" clip-rule="evenodd" d="M2878.85 376.682C2911.39 376.682 2937.77 350.3 2937.77 317.756C2937.77 285.212 2911.39 258.83 2878.85 258.83C2846.3 258.83 2819.92 285.212 2819.92 317.756C2819.92 350.3 2846.3 376.682 2878.85 376.682ZM2878.85 348.332C2861.96 348.332 2848.27 334.642 2848.27 317.756C2848.27 300.869 2861.96 287.18 2878.85 287.18C2895.73 287.18 2909.42 300.869 2909.42 317.756C2909.42 334.642 2895.73 348.332 2878.85 348.332Z" fill="url(#paint8_linear)"/>
<mask id="mask2" mask-type="alpha" maskUnits="userSpaceOnUse" x="2819" y="258" width="119" height="119">
<path fill-rule="evenodd" clip-rule="evenodd" d="M2878.85 376.682C2911.39 376.682 2937.77 350.3 2937.77 317.756C2937.77 285.212 2911.39 258.83 2878.85 258.83C2846.3 258.83 2819.92 285.212 2819.92 317.756C2819.92 350.3 2846.3 376.682 2878.85 376.682ZM2878.85 348.332C2861.96 348.332 2848.27 334.642 2848.27 317.756C2848.27 300.869 2861.96 287.18 2878.85 287.18C2895.73 287.18 2909.42 300.869 2909.42 317.756C2909.42 334.642 2895.73 348.332 2878.85 348.332Z" fill="white"/>
</mask>
<g mask="url(#mask2)">
<g style="mix-blend-mode:screen" opacity="0.4">
<path fill-rule="evenodd" clip-rule="evenodd" d="M2863.07 365.93C2888.65 365.93 2909.38 345.199 2909.38 319.625C2909.38 294.051 2888.65 273.32 2863.07 273.32C2837.5 273.32 2816.77 294.051 2816.77 319.625C2816.77 345.199 2837.5 365.93 2863.07 365.93Z" fill="#BC1C79"/>
</g>
<mask id="mask3" mask-type="alpha" maskUnits="userSpaceOnUse" x="2816" y="273" width="94" height="93">
<g style="mix-blend-mode:screen">
<path fill-rule="evenodd" clip-rule="evenodd" d="M2863.07 365.93C2888.65 365.93 2909.38 345.199 2909.38 319.625C2909.38 294.051 2888.65 273.32 2863.07 273.32C2837.5 273.32 2816.77 294.051 2816.77 319.625C2816.77 345.199 2837.5 365.93 2863.07 365.93Z" fill="white"/>
<path fill-rule="evenodd" clip-rule="evenodd" d="M2863.07 365.93C2888.65 365.93 2909.38 345.199 2909.38 319.625C2909.38 294.051 2888.65 273.32 2863.07 273.32C2837.5 273.32 2816.77 294.051 2816.77 319.625C2816.77 345.199 2837.5 365.93 2863.07 365.93Z" stroke="white"/>
</g>
</mask>
<g mask="url(#mask3)">
<g style="mix-blend-mode:screen" opacity="0.4">
<path fill-rule="evenodd" clip-rule="evenodd" d="M2834.2 359L2937.8 340.1L2936.4 315.6L2820.2 335.9L2834.2 359Z" fill="url(#paint9_linear)"/>
</g>
<g style="mix-blend-mode:screen" opacity="0.4">
<path fill-rule="evenodd" clip-rule="evenodd" d="M2812.99 336.95L2909.38 320.57L2902.45 282.14L2810.47 298.52L2812.99 336.95Z" fill="url(#paint10_linear)"/>
</g>
<g style="mix-blend-mode:screen" opacity="0.4">
<path fill-rule="evenodd" clip-rule="evenodd" d="M2807.33 346.592C2823.66 343.123 2835.29 332.783 2833.32 323.497C2831.34 314.212 2816.51 309.497 2800.19 312.967C2783.86 316.436 2772.23 326.776 2774.21 336.062C2776.18 345.347 2791.01 350.062 2807.33 346.592Z" fill="url(#paint11_linear)"/>
</g>
</g>
</g>
<g opacity="0.7">
<path fill-rule="evenodd" clip-rule="evenodd" d="M2694.89 408.812C2727.43 408.812 2753.81 382.43 2753.81 349.886C2753.81 317.342 2727.43 290.96 2694.89 290.96C2662.34 290.96 2635.96 317.342 2635.96 349.886C2635.96 382.43 2662.34 408.812 2694.89 408.812ZM2694.89 380.462C2678 380.462 2664.31 366.772 2664.31 349.886C2664.31 332.999 2678 319.31 2694.89 319.31C2711.77 319.31 2725.46 332.999 2725.46 349.886C2725.46 366.772 2711.77 380.462 2694.89 380.462Z" fill="url(#paint12_linear)"/>
<mask id="mask4" mask-type="alpha" maskUnits="userSpaceOnUse" x="2635" y="290" width="119" height="119">
<path fill-rule="evenodd" clip-rule="evenodd" d="M2694.89 408.812C2727.43 408.812 2753.81 382.43 2753.81 349.886C2753.81 317.342 2727.43 290.96 2694.89 290.96C2662.34 290.96 2635.96 317.342 2635.96 349.886C2635.96 382.43 2662.34 408.812 2694.89 408.812ZM2694.89 380.462C2678 380.462 2664.31 366.772 2664.31 349.886C2664.31 332.999 2678 319.31 2694.89 319.31C2711.77 319.31 2725.46 332.999 2725.46 349.886C2725.46 366.772 2711.77 380.462 2694.89 380.462Z" fill="white"/>
</mask>
<g mask="url(#mask4)">
<g style="mix-blend-mode:screen" opacity="0.4">
<path fill-rule="evenodd" clip-rule="evenodd" d="M2679.12 398.06C2704.69 398.06 2725.42 377.329 2725.42 351.755C2725.42 326.181 2704.69 305.45 2679.12 305.45C2653.54 305.45 2632.81 326.181 2632.81 351.755C2632.81 377.329 2653.54 398.06 2679.12 398.06Z" fill="#BC1C79"/>
</g>
<mask id="mask5" mask-type="alpha" maskUnits="userSpaceOnUse" x="2632" y="305" width="94" height="94">
<g style="mix-blend-mode:screen">
<path fill-rule="evenodd" clip-rule="evenodd" d="M2679.12 398.06C2704.69 398.06 2725.42 377.329 2725.42 351.755C2725.42 326.181 2704.69 305.45 2679.12 305.45C2653.54 305.45 2632.81 326.181 2632.81 351.755C2632.81 377.329 2653.54 398.06 2679.12 398.06Z" fill="white"/>
<path fill-rule="evenodd" clip-rule="evenodd" d="M2679.12 398.06C2704.69 398.06 2725.42 377.329 2725.42 351.755C2725.42 326.181 2704.69 305.45 2679.12 305.45C2653.54 305.45 2632.81 326.181 2632.81 351.755C2632.81 377.329 2653.54 398.06 2679.12 398.06Z" stroke="white"/>
</g>
</mask>
<g mask="url(#mask5)">
<g style="mix-blend-mode:screen" opacity="0.4">
<path fill-rule="evenodd" clip-rule="evenodd" d="M2645.2 390.5L2734.1 375.1L2726.4 349.9L2633.3 367.4L2645.2 390.5Z" fill="url(#paint13_linear)"/>
</g>
<g style="mix-blend-mode:screen" opacity="0.4">
<path fill-rule="evenodd" clip-rule="evenodd" d="M2637.85 366.56L2668.09 360.89L2726.68 351.44L2722.9 314.27L2629.66 328.76L2637.85 366.56Z" fill="url(#paint14_linear)"/>
</g>
</g>
</g>
</g>
<path fill-rule="evenodd" clip-rule="evenodd" d="M3058.4 346.442C3090.94 346.442 3117.32 320.06 3117.32 287.516C3117.32 254.972 3090.94 228.59 3058.4 228.59C3025.85 228.59 2999.47 254.972 2999.47 287.516C2999.47 320.06 3025.85 346.442 3058.4 346.442ZM3058.4 318.092C3041.51 318.092 3027.82 304.402 3027.82 287.516C3027.82 270.629 3041.51 256.94 3058.4 256.94C3075.28 256.94 3088.97 270.629 3088.97 287.516C3088.97 304.402 3075.28 318.092 3058.4 318.092Z" fill="url(#paint15_linear)"/>
<mask id="mask6" mask-type="alpha" maskUnits="userSpaceOnUse" x="2999" y="228" width="119" height="119">
<path fill-rule="evenodd" clip-rule="evenodd" d="M3058.4 346.442C3090.94 346.442 3117.32 320.06 3117.32 287.516C3117.32 254.972 3090.94 228.59 3058.4 228.59C3025.85 228.59 2999.47 254.972 2999.47 287.516C2999.47 320.06 3025.85 346.442 3058.4 346.442ZM3058.4 318.092C3041.51 318.092 3027.82 304.402 3027.82 287.516C3027.82 270.629 3041.51 256.94 3058.4 256.94C3075.28 256.94 3088.97 270.629 3088.97 287.516C3088.97 304.402 3075.28 318.092 3058.4 318.092Z" fill="white"/>
</mask>
<g mask="url(#mask6)">
<g style="mix-blend-mode:screen" opacity="0.4">
<path fill-rule="evenodd" clip-rule="evenodd" d="M3042.62 335.69C3068.2 335.69 3088.93 314.959 3088.93 289.385C3088.93 263.811 3068.2 243.08 3042.62 243.08C3017.05 243.08 2996.32 263.811 2996.32 289.385C2996.32 314.959 3017.05 335.69 3042.62 335.69Z" fill="#BC1C79"/>
</g>
<mask id="mask7" mask-type="alpha" maskUnits="userSpaceOnUse" x="2996" y="243" width="93" height="93">
<g style="mix-blend-mode:screen">
<path fill-rule="evenodd" clip-rule="evenodd" d="M3042.62 335.69C3068.2 335.69 3088.93 314.959 3088.93 289.385C3088.93 263.811 3068.2 243.08 3042.62 243.08C3017.05 243.08 2996.32 263.811 2996.32 289.385C2996.32 314.959 3017.05 335.69 3042.62 335.69Z" fill="white"/>
<path fill-rule="evenodd" clip-rule="evenodd" d="M3042.62 335.69C3068.2 335.69 3088.93 314.959 3088.93 289.385C3088.93 263.811 3068.2 243.08 3042.62 243.08C3017.05 243.08 2996.32 263.811 2996.32 289.385C2996.32 314.959 3017.05 335.69 3042.62 335.69Z" stroke="white"/>
</g>
</mask>
<g mask="url(#mask7)">
<g style="mix-blend-mode:screen" opacity="0.4">
<path fill-rule="evenodd" clip-rule="evenodd" d="M3010.6 328.2L3124 309.3L3123.3 284.8L2998 305.8L3010.6 328.2Z" fill="url(#paint16_linear)"/>
</g>
<g style="mix-blend-mode:screen" opacity="0.4">
<path fill-rule="evenodd" clip-rule="evenodd" d="M2993.17 306.71L3124.21 284.03L3117.28 246.86L2988.13 268.28L2993.17 306.71Z" fill="url(#paint17_linear)"/>
</g>
</g>
</g>
<path fill-rule="evenodd" clip-rule="evenodd" d="M3233.4 316.342C3265.94 316.342 3292.32 289.96 3292.32 257.416C3292.32 224.872 3265.94 198.49 3233.4 198.49C3200.85 198.49 3174.47 224.872 3174.47 257.416C3174.47 289.96 3200.85 316.342 3233.4 316.342ZM3233.4 287.992C3216.51 287.992 3202.82 274.302 3202.82 257.416C3202.82 240.529 3216.51 226.84 3233.4 226.84C3250.28 226.84 3263.97 240.529 3263.97 257.416C3263.97 274.302 3250.28 287.992 3233.4 287.992Z" fill="url(#paint18_linear)"/>
<mask id="mask8" mask-type="alpha" maskUnits="userSpaceOnUse" x="3174" y="198" width="119" height="119">
<path fill-rule="evenodd" clip-rule="evenodd" d="M3233.4 316.342C3265.94 316.342 3292.32 289.96 3292.32 257.416C3292.32 224.872 3265.94 198.49 3233.4 198.49C3200.85 198.49 3174.47 224.872 3174.47 257.416C3174.47 289.96 3200.85 316.342 3233.4 316.342ZM3233.4 287.992C3216.51 287.992 3202.82 274.302 3202.82 257.416C3202.82 240.529 3216.51 226.84 3233.4 226.84C3250.28 226.84 3263.97 240.529 3263.97 257.416C3263.97 274.302 3250.28 287.992 3233.4 287.992Z" fill="white"/>
</mask>
<g mask="url(#mask8)">
<g style="mix-blend-mode:screen" opacity="0.4">
<path fill-rule="evenodd" clip-rule="evenodd" d="M3217.62 305.59C3243.2 305.59 3263.93 284.859 3263.93 259.285C3263.93 233.711 3243.2 212.98 3217.62 212.98C3192.05 212.98 3171.32 233.711 3171.32 259.285C3171.32 284.859 3192.05 305.59 3217.62 305.59Z" fill="url(#paint19_linear)"/>
</g>
<mask id="mask9" mask-type="alpha" maskUnits="userSpaceOnUse" x="3171" y="212" width="93" height="94">
<g style="mix-blend-mode:screen">
<path fill-rule="evenodd" clip-rule="evenodd" d="M3217.62 305.59C3243.2 305.59 3263.93 284.859 3263.93 259.285C3263.93 233.711 3243.2 212.98 3217.62 212.98C3192.05 212.98 3171.32 233.711 3171.32 259.285C3171.32 284.859 3192.05 305.59 3217.62 305.59Z" fill="white"/>
<path fill-rule="evenodd" clip-rule="evenodd" d="M3217.62 305.59C3243.2 305.59 3263.93 284.859 3263.93 259.285C3263.93 233.711 3243.2 212.98 3217.62 212.98C3192.05 212.98 3171.32 233.711 3171.32 259.285C3171.32 284.859 3192.05 305.59 3217.62 305.59Z" stroke="white"/>
</g>
</mask>
<g mask="url(#mask9)">
<g style="mix-blend-mode:screen" opacity="0.4">
<path fill-rule="evenodd" clip-rule="evenodd" d="M3168.17 276.61L3299.21 253.93L3292.28 216.76L3163.13 238.18L3168.17 276.61Z" fill="url(#paint20_linear)"/>
</g>
<g style="mix-blend-mode:screen" opacity="0.4">
<path fill-rule="evenodd" clip-rule="evenodd" d="M3163.84 282.297C3183.67 279.157 3198.64 269.694 3197.29 261.159C3195.94 252.625 3178.77 248.253 3158.95 251.393C3139.12 254.533 3124.15 263.996 3125.5 272.531C3126.85 281.065 3144.02 285.437 3163.84 282.297Z" fill="url(#paint21_linear)"/>
</g>
</g>
</g>
<g opacity="0.5">
<path fill-rule="evenodd" clip-rule="evenodd" d="M2433.51 371.888C2411.12 359.804 2411.01 323.603 2433.28 291.03C2455.54 258.457 2491.74 241.847 2514.14 253.931C2536.53 266.015 2536.63 302.216 2514.37 334.789C2492.11 367.362 2455.91 383.972 2433.51 371.888ZM2452.91 343.513C2464.53 349.783 2483.31 341.164 2494.86 324.263C2506.41 307.361 2506.36 288.576 2494.74 282.306C2483.12 276.036 2464.34 284.655 2452.78 301.556C2441.23 318.458 2441.29 337.242 2452.91 343.513Z" fill="url(#paint22_linear)"/>
<mask id="mask10" mask-type="alpha" maskUnits="userSpaceOnUse" x="2416" y="249" width="115" height="127">
<path fill-rule="evenodd" clip-rule="evenodd" d="M2433.51 371.888C2411.12 359.804 2411.01 323.603 2433.28 291.03C2455.54 258.457 2491.74 241.847 2514.14 253.931C2536.53 266.015 2536.63 302.216 2514.37 334.789C2492.11 367.362 2455.91 383.972 2433.51 371.888ZM2452.91 343.513C2464.53 349.783 2483.31 341.164 2494.86 324.263C2506.41 307.361 2506.36 288.576 2494.74 282.306C2483.12 276.036 2464.34 284.655 2452.78 301.556C2441.23 318.458 2441.29 337.242 2452.91 343.513Z" fill="white"/>
</mask>
<g mask="url(#mask10)">
<g style="mix-blend-mode:screen" opacity="0.4">
<path fill-rule="evenodd" clip-rule="evenodd" d="M2454.7 368.982C2437.1 359.488 2437.02 331.04 2454.52 305.442C2472.02 279.845 2500.46 266.791 2518.06 276.286C2535.66 285.781 2535.74 314.228 2518.24 339.826C2500.74 365.423 2472.29 378.477 2454.7 368.982Z" fill="url(#paint23_linear)"/>
</g>
<mask id="mask11" mask-type="alpha" maskUnits="userSpaceOnUse" x="2441" y="273" width="91" height="100">
<g style="mix-blend-mode:screen">
<path fill-rule="evenodd" clip-rule="evenodd" d="M2454.7 368.982C2437.1 359.488 2437.02 331.04 2454.52 305.442C2472.02 279.845 2500.46 266.791 2518.06 276.286C2535.66 285.781 2535.74 314.228 2518.24 339.826C2500.74 365.423 2472.29 378.477 2454.7 368.982Z" fill="white"/>
<path fill-rule="evenodd" clip-rule="evenodd" d="M2454.7 368.982C2437.1 359.488 2437.02 331.04 2454.52 305.442C2472.02 279.845 2500.46 266.791 2518.06 276.286C2535.66 285.781 2535.74 314.228 2518.24 339.826C2500.74 365.423 2472.29 378.477 2454.7 368.982Z" stroke="white"/>
</g>
</mask>
<g mask="url(#mask11)">
<g style="mix-blend-mode:screen" opacity="0.3">
<path fill-rule="evenodd" clip-rule="evenodd" d="M2487.91 363.657L2425.72 321.261L2454.46 307.368L2503.23 345.776L2492.73 364.692L2487.91 363.657Z" fill="url(#paint24_linear)"/>
</g>
<g style="mix-blend-mode:screen" opacity="0.4">
<path fill-rule="evenodd" clip-rule="evenodd" d="M2476.22 302.773C2482.07 294.809 2494.22 292.812 2503.36 298.312C2512.5 303.811 2515.17 314.725 2509.33 322.689C2503.48 330.653 2491.33 332.65 2482.19 327.15C2473.05 321.651 2470.38 310.736 2476.22 302.773Z" fill="url(#paint25_linear)"/>
</g>
<g style="mix-blend-mode:screen" opacity="0.3">
<path fill-rule="evenodd" clip-rule="evenodd" d="M2502.02 345.127L2451.66 308.13L2480.97 278.104L2527.42 312.874L2502.02 345.127Z" fill="url(#paint26_linear)"/>
</g>
</g>
</g>
</g>
<g opacity="0.3">
<path fill-rule="evenodd" clip-rule="evenodd" d="M2292.38 257.858C2269.99 245.774 2269.89 209.573 2292.15 177C2314.41 144.427 2350.61 127.817 2373.01 139.901C2395.4 151.985 2395.51 188.186 2373.24 220.759C2350.98 253.332 2314.78 269.942 2292.38 257.858ZM2311.78 229.483C2323.4 235.753 2342.18 227.134 2353.73 210.232C2365.29 193.331 2365.23 174.546 2353.61 168.276C2341.99 162.006 2323.21 170.625 2311.66 187.526C2300.1 204.428 2300.16 223.212 2311.78 229.483Z" fill="url(#paint27_linear)"/>
<mask id="mask12" mask-type="alpha" maskUnits="userSpaceOnUse" x="2275" y="135" width="115" height="127">
<path fill-rule="evenodd" clip-rule="evenodd" d="M2292.38 257.858C2269.99 245.774 2269.89 209.573 2292.15 177C2314.41 144.427 2350.61 127.817 2373.01 139.901C2395.4 151.985 2395.51 188.186 2373.24 220.759C2350.98 253.332 2314.78 269.942 2292.38 257.858ZM2311.78 229.483C2323.4 235.753 2342.18 227.134 2353.73 210.232C2365.29 193.331 2365.23 174.546 2353.61 168.276C2341.99 162.006 2323.21 170.625 2311.66 187.526C2300.1 204.428 2300.16 223.212 2311.78 229.483Z" fill="white"/>
</mask>
<g mask="url(#mask12)">
<g style="mix-blend-mode:screen" opacity="0.4">
<path fill-rule="evenodd" clip-rule="evenodd" d="M2313.57 254.952C2295.98 245.458 2295.9 217.01 2313.39 191.412C2330.89 165.815 2359.34 152.761 2376.93 162.256C2394.53 171.751 2394.61 200.198 2377.11 225.796C2359.61 251.393 2331.17 264.447 2313.57 254.952Z" fill="url(#paint28_linear)"/>
</g>
<mask id="mask13" mask-type="alpha" maskUnits="userSpaceOnUse" x="2300" y="159" width="91" height="100">
<g style="mix-blend-mode:screen">
<path fill-rule="evenodd" clip-rule="evenodd" d="M2313.57 254.952C2295.98 245.458 2295.9 217.01 2313.39 191.412C2330.89 165.815 2359.34 152.761 2376.93 162.256C2394.53 171.751 2394.61 200.198 2377.11 225.796C2359.61 251.393 2331.17 264.447 2313.57 254.952Z" fill="white"/>
<path fill-rule="evenodd" clip-rule="evenodd" d="M2313.57 254.952C2295.98 245.458 2295.9 217.01 2313.39 191.412C2330.89 165.815 2359.34 152.761 2376.93 162.256C2394.53 171.751 2394.61 200.198 2377.11 225.796C2359.61 251.393 2331.17 264.447 2313.57 254.952Z" stroke="white"/>
</g>
</mask>
<g mask="url(#mask13)">
<g style="mix-blend-mode:screen" opacity="0.3">
<path fill-rule="evenodd" clip-rule="evenodd" d="M2366.28 236.339L2344.4 248.934L2310.8 226.173L2329.67 211.353L2366.28 236.339Z" fill="url(#paint29_linear)"/>
</g>
<g style="mix-blend-mode:screen" opacity="0.3">
<path fill-rule="evenodd" clip-rule="evenodd" d="M2373.49 244.166L2351.84 227.892L2378.8 198.624L2401.08 214.274L2373.49 244.166Z" fill="url(#paint30_linear)"/>
</g>
</g>
</g>
</g>
<path fill-rule="evenodd" clip-rule="evenodd" d="M2701.81 730.982C2703.74 730.982 2705.31 729.415 2705.31 727.482C2705.31 725.549 2703.74 723.982 2701.81 723.982C2699.88 723.982 2698.31 725.549 2698.31 727.482C2698.31 729.415 2699.88 730.982 2701.81 730.982Z" fill="white"/>
<path fill-rule="evenodd" clip-rule="evenodd" d="M2166.38 740.331L3262.8 588.462C3277.92 586.367 3295.55 568.277 3302.16 548.058C3308.78 527.838 3301.88 513.146 3286.75 515.241L2190.34 667.11C2175.21 669.206 2157.58 687.295 2150.97 707.515C2144.36 727.734 2151.26 742.426 2166.38 740.331Z" fill="url(#paint31_linear)"/>
<mask id="mask14" mask-type="alpha" maskUnits="userSpaceOnUse" x="2148" y="515" width="1157" height="226">
<path fill-rule="evenodd" clip-rule="evenodd" d="M2166.38 740.331L3262.8 588.462C3277.92 586.367 3295.55 568.277 3302.16 548.058C3308.78 527.838 3301.88 513.146 3286.75 515.241L2190.34 667.11C2175.21 669.206 2157.58 687.295 2150.97 707.515C2144.36 727.734 2151.26 742.426 2166.38 740.331Z" fill="white"/>
</mask>
<g mask="url(#mask14)">
<g style="mix-blend-mode:screen" opacity="0.4">
<path fill-rule="evenodd" clip-rule="evenodd" d="M2414.2 661.697C2419.16 661.73 2425.42 655.525 2428.18 647.838C2430.94 640.15 2429.16 633.891 2424.2 633.857C2419.24 633.824 2412.98 640.029 2410.22 647.717C2407.46 655.404 2409.24 661.664 2414.2 661.697Z" fill="url(#paint32_linear)"/>
</g>
<g style="mix-blend-mode:screen" opacity="0.4">
<path fill-rule="evenodd" clip-rule="evenodd" d="M2503.43 648.173C2533.52 644.499 2562.11 630.367 2567.3 616.607C2572.48 602.847 2552.29 594.671 2522.2 598.344C2492.11 602.018 2463.52 616.15 2458.34 629.91C2453.16 643.67 2473.35 651.846 2503.43 648.173Z" fill="url(#paint33_linear)"/>
</g>
<g style="mix-blend-mode:screen" opacity="0.4">
<path fill-rule="evenodd" clip-rule="evenodd" d="M2784.46 662.705C2817.08 659.345 2847.9 645.582 2853.32 631.965C2858.74 618.348 2836.7 610.034 2804.09 613.395C2771.48 616.755 2740.65 630.518 2735.23 644.135C2729.81 657.752 2751.85 666.066 2784.46 662.705Z" fill="url(#paint34_linear)"/>
</g>
<g style="mix-blend-mode:screen" opacity="0.4">
<path fill-rule="evenodd" clip-rule="evenodd" d="M2161.56 712.04L3257.97 560.171C3273.1 558.075 3290.72 539.986 3297.34 519.766C3303.95 499.547 3297.05 484.854 3281.92 486.95L2185.51 638.819C2170.38 640.914 2152.76 659.004 2146.14 679.223C2139.53 699.443 2146.43 714.135 2161.56 712.04Z" fill="url(#paint35_linear)"/>
</g>
</g>
<rect width="8.73016" height="91.8893" rx="4.36508" transform="matrix(0.997735 0.0102384 -0.192302 0.844798 2382.9 608.639)" fill="url(#paint36_linear)"/>
<rect width="8.73016" height="91.8893" rx="4.36508" transform="matrix(0.997735 0.0102384 -0.192302 0.844798 2531.87 598.852)" fill="url(#paint37_linear)"/>
<rect width="8.73016" height="91.8893" rx="4.36508" transform="matrix(0.997735 0.0102384 -0.192302 0.844798 2680.85 589.066)" fill="#4832A6"/>
<rect width="8.73016" height="91.8893" rx="4.36508" transform="matrix(0.997735 0.0102384 -0.192302 0.844798 2829.83 579.279)" fill="#4832A6"/>
<path fill-rule="evenodd" clip-rule="evenodd" d="M2909.28 526.633C2931.02 526.633 2948.65 509.008 2948.65 487.266C2948.65 465.525 2931.02 447.9 2909.28 447.9C2887.54 447.9 2869.92 465.525 2869.92 487.266C2869.92 509.008 2887.54 526.633 2909.28 526.633Z" fill="url(#paint38_linear)"/>
<mask id="mask15" mask-type="alpha" maskUnits="userSpaceOnUse" x="2869" y="447" width="80" height="80">
<path fill-rule="evenodd" clip-rule="evenodd" d="M2909.28 526.633C2931.02 526.633 2948.65 509.008 2948.65 487.266C2948.65 465.525 2931.02 447.9 2909.28 447.9C2887.54 447.9 2869.92 465.525 2869.92 487.266C2869.92 509.008 2887.54 526.633 2909.28 526.633Z" fill="white"/>
</mask>
<g mask="url(#mask15)">
<path opacity="0.705473" fill-rule="evenodd" clip-rule="evenodd" d="M2916.9 531.341C2928.76 529.673 2937.56 522.442 2936.54 515.19C2935.52 507.938 2925.07 503.411 2913.2 505.079C2901.34 506.747 2892.54 513.978 2893.56 521.23C2894.58 528.482 2905.03 533.009 2916.9 531.341Z" fill="url(#paint39_linear)"/>
<path d="M2871.79 509.591C2892.9 486.229 2919.46 479.941 2952.81 490.648C2956.49 491.83 2960.43 489.804 2961.61 486.123C2962.8 482.443 2960.77 478.5 2957.09 477.319C2918.65 464.977 2886.31 472.632 2861.4 500.205C2858.81 503.073 2859.03 507.5 2861.9 510.091C2864.77 512.683 2869.19 512.459 2871.79 509.591Z" fill="#583FB3"/>
<path fill-rule="evenodd" clip-rule="evenodd" d="M2879.87 499.35C2883.64 499.35 2886.7 496.294 2886.7 492.525C2886.7 488.756 2883.64 485.7 2879.87 485.7C2876.11 485.7 2873.05 488.756 2873.05 492.525C2873.05 496.294 2876.11 499.35 2879.87 499.35Z" fill="#FFBD60"/>
<path fill-rule="evenodd" clip-rule="evenodd" d="M2908.64 486.725C2912.41 486.725 2915.46 483.67 2915.46 479.9C2915.46 476.131 2912.41 473.075 2908.64 473.075C2904.87 473.075 2901.81 476.131 2901.81 479.9C2901.81 483.67 2904.87 486.725 2908.64 486.725Z" fill="#FFBD60"/>
<path fill-rule="evenodd" clip-rule="evenodd" d="M2938.69 486.725C2942.46 486.725 2945.52 483.67 2945.52 479.9C2945.52 476.131 2942.46 473.075 2938.69 473.075C2934.92 473.075 2931.87 476.131 2931.87 479.9C2931.87 483.67 2934.92 486.725 2938.69 486.725Z" fill="#FFBD60"/>
</g>
<path d="M2915.5 524.49C2920.48 523.611 2924.2 521.046 2923.8 518.76C2923.39 516.475 2919.03 515.335 2914.04 516.214C2909.05 517.093 2905.34 519.659 2905.74 521.944C2906.14 524.23 2910.51 525.37 2915.5 524.49Z" fill="#583FB3"/>
<path d="M2914.04 533.57L2913.34 522.37L2917.54 521.67L2921.04 532.87L2914.04 533.57Z" fill="#583FB3"/>
<path fill-rule="evenodd" clip-rule="evenodd" d="M3007.65 910.55L2939.83 542.363C2938.49 535.102 2931.74 530.127 2924.41 530.997L2909.34 532.785C2901.95 533.662 2896.53 540.174 2897.02 547.605L2920.85 910.55H3007.65Z" fill="url(#paint40_linear)"/>
<mask id="mask16" mask-type="alpha" maskUnits="userSpaceOnUse" x="2896" y="530" width="112" height="381">
<path fill-rule="evenodd" clip-rule="evenodd" d="M3007.65 910.55L2939.83 542.363C2938.49 535.102 2931.74 530.127 2924.41 530.997L2909.34 532.785C2901.95 533.662 2896.53 540.174 2897.02 547.605L2920.85 910.55H3007.65Z" fill="white"/>
</mask>
<g mask="url(#mask16)">
<rect x="2925.14" y="548.648" width="12.6" height="49.7" rx="6.3" transform="rotate(-7.99999 2925.14 548.648)" fill="url(#paint41_linear)"/>
<path fill-rule="evenodd" clip-rule="evenodd" d="M2915.74 572.379C2918.73 572.379 2921.15 569.957 2921.15 566.969C2921.15 563.98 2918.73 561.558 2915.74 561.558C2912.76 561.558 2910.33 563.98 2910.33 566.969C2910.33 569.957 2912.76 572.379 2915.74 572.379Z" fill="#F6F8FB"/>
<path fill-rule="evenodd" clip-rule="evenodd" d="M2918.19 587.877C2920.29 587.877 2921.98 586.182 2921.98 584.09C2921.98 581.998 2920.29 580.302 2918.19 580.302C2916.1 580.302 2914.41 581.998 2914.41 584.09C2914.41 586.182 2916.1 587.877 2918.19 587.877Z" fill="#FF6CBB"/>
<rect x="2940.15" y="645.579" width="12.6" height="49.7" rx="6.3" transform="rotate(-8 2940.15 645.579)" fill="url(#paint42_linear)"/>
<path fill-rule="evenodd" clip-rule="evenodd" d="M2930.76 669.311C2933.74 669.311 2936.17 666.888 2936.17 663.9C2936.17 660.912 2933.74 658.489 2930.76 658.489C2927.77 658.489 2925.35 660.912 2925.35 663.9C2925.35 666.888 2927.77 669.311 2930.76 669.311Z" fill="#F6F8FB"/>
<path fill-rule="evenodd" clip-rule="evenodd" d="M2933.21 684.809C2935.3 684.809 2936.99 683.113 2936.99 681.021C2936.99 678.93 2935.3 677.234 2933.21 677.234C2931.11 677.234 2929.42 678.93 2929.42 681.021C2929.42 683.113 2931.11 684.809 2933.21 684.809Z" fill="#FF6CBB"/>
<rect x="2955.16" y="742.511" width="12.6" height="49.7" rx="6.3" transform="rotate(-7.99999 2955.16 742.511)" fill="url(#paint43_linear)"/>
<path fill-rule="evenodd" clip-rule="evenodd" d="M2945.77 766.242C2948.76 766.242 2951.18 763.82 2951.18 760.831C2951.18 757.843 2948.76 755.421 2945.77 755.421C2942.78 755.421 2940.36 757.843 2940.36 760.831C2940.36 763.82 2942.78 766.242 2945.77 766.242Z" fill="#F6F8FB"/>
<path fill-rule="evenodd" clip-rule="evenodd" d="M2948.22 781.74C2950.31 781.74 2952.01 780.044 2952.01 777.953C2952.01 775.861 2950.31 774.165 2948.22 774.165C2946.13 774.165 2944.43 775.861 2944.43 777.953C2944.43 780.044 2946.13 781.74 2948.22 781.74Z" fill="#FFBD60"/>
<path opacity="0.548875" fill-rule="evenodd" clip-rule="evenodd" d="M2891.85 756.25C2891.85 756.25 2878.55 682.75 2912.15 682.75C2945.75 682.75 2934.55 836.05 2995.45 801.75C3056.35 767.45 3032.55 865.45 3030.45 866.15C3028.35 866.85 2998.95 896.25 2995.45 896.25C2991.95 896.25 2888.35 900.45 2881.35 896.25C2874.35 892.05 2891.85 756.25 2891.85 756.25Z" fill="url(#paint44_linear)"/>
<path opacity="0.548875" fill-rule="evenodd" clip-rule="evenodd" d="M2977 713.9C2977 713.9 2962.3 830.1 2908.4 836.4C2854.5 842.7 3015.5 864.4 3016.9 864.4C3018.3 864.4 3028.1 779 3026.7 770.6C3025.3 762.2 2977 713.9 2977 713.9Z" fill="url(#paint45_linear)"/>
</g>
<path fill-rule="evenodd" clip-rule="evenodd" d="M2819.85 903.845L2812.09 686.446C2811.93 681.927 2808.22 678.346 2803.69 678.346H2723.46C2718.87 678.346 2715.14 682.02 2715.06 686.603L2711.35 903.845H2819.85Z" fill="url(#paint46_linear)"/>
<mask id="mask17" mask-type="alpha" maskUnits="userSpaceOnUse" x="2711" y="678" width="109" height="226">
<path fill-rule="evenodd" clip-rule="evenodd" d="M2819.85 903.845L2812.09 686.446C2811.93 681.927 2808.22 678.346 2803.69 678.346H2723.46C2718.87 678.346 2715.14 682.02 2715.06 686.603L2711.35 903.845H2819.85Z" fill="white"/>
</mask>
<g mask="url(#mask17)">
<path fill-rule="evenodd" clip-rule="evenodd" d="M2709.95 702.146H2827.2V732.946H2709.95V702.146Z" stroke="#FFBD60" stroke-width="1.4" stroke-linejoin="round"/>
<rect x="2710.3" y="709.428" width="120.728" height="16.2352" fill="#F6F8FB"/>
<path fill-rule="evenodd" clip-rule="evenodd" d="M2704 762.346H2821.25V793.146H2704V762.346Z" stroke="#FFBD60" stroke-width="1.4" stroke-linejoin="round"/>
<rect x="2704.35" y="769.628" width="120.728" height="16.2352" fill="#F6F8FB"/>
</g>
<path fill-rule="evenodd" clip-rule="evenodd" d="M2731.02 646.072C2733.21 646.072 2734.99 644.298 2734.99 642.11C2734.99 639.922 2733.21 638.149 2731.02 638.149C2728.84 638.149 2727.06 639.922 2727.06 642.11C2727.06 644.298 2728.84 646.072 2731.02 646.072Z" stroke="#FFBD60" stroke-width="2.1"/>
<path d="M2730.56 678.316L2731.12 646.121" stroke="#FFBD60" stroke-width="2.1"/>
<path d="M2726.86 675.577C2726.86 673.644 2728.43 672.077 2730.36 672.077H2731.76C2733.7 672.077 2735.26 673.644 2735.26 675.577V678.481H2726.86V675.577Z" fill="url(#paint47_linear)"/>
<path d="M2747.47 678.267L2748.03 611.072" stroke="#583FB3" stroke-width="2.1"/>
<path fill-rule="evenodd" clip-rule="evenodd" d="M2743.55 665.641C2743.55 664.481 2744.49 663.541 2745.65 663.541H2749.85C2751.01 663.541 2751.95 664.481 2751.95 665.641V678.346H2743.55V665.641Z" fill="url(#paint48_linear)"/>
<path fill-rule="evenodd" clip-rule="evenodd" d="M2744.6 629.405C2744.6 628.246 2745.54 627.305 2746.7 627.305H2748.8C2749.96 627.305 2750.9 628.246 2750.9 629.405V633.01C2750.9 634.17 2749.96 635.11 2748.8 635.11H2746.7C2745.54 635.11 2744.6 634.17 2744.6 633.01V629.405Z" fill="url(#paint49_linear)"/>
<path fill-rule="evenodd" clip-rule="evenodd" d="M2748.03 612.194C2750.74 612.194 2752.93 610 2752.93 607.294C2752.93 604.587 2750.74 602.394 2748.03 602.394C2745.32 602.394 2743.13 604.587 2743.13 607.294C2743.13 610 2745.32 612.194 2748.03 612.194Z" fill="#FFBD60"/>
<path d="M2796.77 617.545L2799.41 648.359" stroke="#563EB2" stroke-width="4.2"/>
<path fill-rule="evenodd" clip-rule="evenodd" d="M2797.26 623.692C2801.41 623.673 2804.55 620.073 2804.26 615.653C2803.98 611.233 2800.38 607.666 2796.22 607.685C2792.07 607.705 2788.93 611.304 2789.22 615.725C2789.5 620.145 2793.1 623.712 2797.26 623.692Z" fill="#FF6CBB"/>
<path fill-rule="evenodd" clip-rule="evenodd" d="M2781.52 657.305C2786.28 650.032 2794.1 645.338 2802.76 644.567L2850.79 640.287C2856.67 639.763 2862.58 640.735 2867.99 643.113L2884.56 650.407C2890.94 653.21 2895.5 658.987 2896.76 665.833L2940.6 904.388H2769.8L2776.91 671.97C2777.07 666.75 2778.66 661.676 2781.52 657.305V657.305Z" fill="url(#paint50_linear)"/>
<path opacity="0.415341" fill-rule="evenodd" clip-rule="evenodd" d="M2793.95 718.386C2793.95 712.579 2798.53 707.806 2804.34 707.571L2852.94 705.598C2859.08 705.348 2864.2 710.24 2864.24 716.386V716.386C2864.27 722.244 2859.65 727.074 2853.8 727.302L2805.2 729.202C2799.06 729.442 2793.95 724.53 2793.95 718.386V718.386Z" fill="#253554"/>
<path opacity="0.415341" fill-rule="evenodd" clip-rule="evenodd" d="M2791.15 678.486C2791.15 672.679 2795.73 667.906 2801.54 667.67L2850.14 665.698C2856.28 665.448 2861.4 670.34 2861.44 676.485V676.485C2861.47 682.344 2856.85 687.174 2851 687.402L2802.4 689.302C2796.26 689.542 2791.15 684.63 2791.15 678.486V678.486Z" fill="#253554"/>
<path opacity="0.415341" fill-rule="evenodd" clip-rule="evenodd" d="M2856.72 743.3C2862.5 743.3 2867.26 747.842 2867.53 753.616L2869.37 792.781C2869.66 798.948 2864.75 804.115 2858.58 804.147V804.147C2852.75 804.176 2847.94 799.601 2847.68 793.78L2845.91 754.611C2845.63 748.448 2850.55 743.3 2856.72 743.3V743.3Z" fill="#253554"/>
<path opacity="0.415341" fill-rule="evenodd" clip-rule="evenodd" d="M2807.02 745.4C2812.8 745.4 2817.56 749.942 2817.83 755.716L2819.67 794.881C2819.96 801.048 2815.05 806.215 2808.88 806.247V806.247C2803.05 806.276 2798.24 801.701 2797.98 795.88L2796.21 756.711C2795.93 750.548 2800.85 745.4 2807.02 745.4V745.4Z" fill="#253554"/>
<mask id="mask18" mask-type="alpha" maskUnits="userSpaceOnUse" x="2796" y="745" width="24" height="62">
<path fill-rule="evenodd" clip-rule="evenodd" d="M2807.02 745.4C2812.8 745.4 2817.56 749.942 2817.83 755.716L2819.67 794.881C2819.96 801.048 2815.05 806.215 2808.88 806.247V806.247C2803.05 806.276 2798.24 801.701 2797.98 795.88L2796.21 756.711C2795.93 750.548 2800.85 745.4 2807.02 745.4V745.4Z" fill="white"/>
</mask>
<g mask="url(#mask18)">
</g>
<path fill-rule="evenodd" clip-rule="evenodd" d="M2789.48 675.419C2789.83 669.916 2794.28 665.569 2799.79 665.347L2850.34 663.305C2855.56 663.094 2860.15 666.709 2861.18 671.829V671.829C2862.45 678.201 2857.75 684.212 2851.26 684.515L2800.73 686.876C2794.31 687.176 2789.06 681.83 2789.48 675.419V675.419Z" fill="#FFBD60"/>
<mask id="mask19" mask-type="alpha" maskUnits="userSpaceOnUse" x="2789" y="663" width="73" height="24">
<path fill-rule="evenodd" clip-rule="evenodd" d="M2789.48 675.419C2789.83 669.916 2794.28 665.569 2799.79 665.347L2850.34 663.305C2855.56 663.094 2860.15 666.709 2861.18 671.829V671.829C2862.45 678.201 2857.75 684.212 2851.26 684.515L2800.73 686.876C2794.31 687.176 2789.06 681.83 2789.48 675.419V675.419Z" fill="white"/>
</mask>
<g mask="url(#mask19)">
<path d="M2809.89 662.544L2812.21 689.043" stroke="#FF9666" stroke-width="3.5" stroke-linecap="round" stroke-linejoin="round"/>
<path d="M2835.57 660.94L2837.89 687.439" stroke="#FF9666" stroke-width="3.5" stroke-linecap="round" stroke-linejoin="round"/>
</g>
<path fill-rule="evenodd" clip-rule="evenodd" d="M2792.28 714.919C2792.63 709.416 2797.08 705.069 2802.59 704.846L2853.14 702.804C2858.36 702.593 2862.95 706.208 2863.98 711.329V711.329C2865.25 717.7 2860.55 723.711 2854.06 724.014L2803.53 726.376C2797.11 726.676 2791.86 721.329 2792.28 714.919V714.919Z" fill="#FFBD60"/>
<mask id="mask20" mask-type="alpha" maskUnits="userSpaceOnUse" x="2792" y="702" width="73" height="25">
<path fill-rule="evenodd" clip-rule="evenodd" d="M2792.28 714.919C2792.63 709.416 2797.08 705.069 2802.59 704.846L2853.14 702.804C2858.36 702.593 2862.95 706.208 2863.98 711.329V711.329C2865.25 717.7 2860.55 723.711 2854.06 724.014L2803.53 726.376C2797.11 726.676 2791.86 721.329 2792.28 714.919V714.919Z" fill="white"/>
</mask>
<g mask="url(#mask20)">
<path d="M2812.69 702.044L2815.01 728.543" stroke="#FF9666" stroke-width="3.5" stroke-linecap="round" stroke-linejoin="round"/>
<path d="M2838.37 700.439L2840.69 726.938" stroke="#FF9666" stroke-width="3.5" stroke-linecap="round" stroke-linejoin="round"/>
</g>
<path fill-rule="evenodd" clip-rule="evenodd" d="M2803.36 830.12C2804.08 824.399 2809.01 819.887 2814.76 819.669L2863.38 817.827C2868.89 817.618 2873.47 821.463 2874.14 826.854V826.854C2874.95 833.435 2869.69 839.57 2862.97 839.869L2814.34 842.035C2807.64 842.333 2802.52 836.775 2803.36 830.12V830.12Z" fill="#FFBD60"/>
<mask id="mask21" mask-type="alpha" maskUnits="userSpaceOnUse" x="2803" y="817" width="72" height="26">
<path fill-rule="evenodd" clip-rule="evenodd" d="M2803.36 830.12C2804.08 824.399 2809.01 819.887 2814.76 819.669L2863.38 817.827C2868.89 817.618 2873.47 821.463 2874.14 826.854V826.854C2874.95 833.435 2869.69 839.57 2862.97 839.869L2814.34 842.035C2807.64 842.333 2802.52 836.775 2803.36 830.12V830.12Z" fill="white"/>
</mask>
<g mask="url(#mask21)">
<path d="M2825.39 817.118L2823.27 843.642" stroke="#FF9666" stroke-width="3.5" stroke-linecap="round" stroke-linejoin="round"/>
<path d="M2851.11 815.962L2848.98 842.486" stroke="#FF9666" stroke-width="3.5" stroke-linecap="round" stroke-linejoin="round"/>
</g>
<path fill-rule="evenodd" clip-rule="evenodd" d="M2808.48 802.188C2802.7 802.188 2797.94 797.646 2797.67 791.872L2795.83 752.707C2795.54 746.539 2800.45 741.373 2806.62 741.341V741.341C2812.45 741.311 2817.26 745.887 2817.52 751.708L2819.29 790.877C2819.57 797.04 2814.65 802.188 2808.48 802.188V802.188Z" fill="#FFBD60"/>
<mask id="mask22" mask-type="alpha" maskUnits="userSpaceOnUse" x="2795" y="741" width="25" height="62">
<path fill-rule="evenodd" clip-rule="evenodd" d="M2808.48 802.188C2802.7 802.188 2797.94 797.646 2797.67 791.872L2795.83 752.707C2795.54 746.539 2800.45 741.373 2806.62 741.341V741.341C2812.45 741.311 2817.26 745.887 2817.52 751.708L2819.29 790.877C2819.57 797.04 2814.65 802.188 2808.48 802.188V802.188Z" fill="white"/>
</mask>
<g mask="url(#mask22)">
<path d="M2792.6 771.497L2819.85 770.688" stroke="#FF9666" stroke-width="3.5" stroke-linecap="round" stroke-linejoin="round"/>
</g>
<path fill-rule="evenodd" clip-rule="evenodd" d="M2858.53 799.788C2852.75 799.788 2847.99 795.246 2847.72 789.473L2845.88 750.307C2845.59 744.14 2850.5 738.973 2856.67 738.942V738.942C2862.5 738.912 2867.31 743.488 2867.57 749.309L2869.34 788.478C2869.62 794.64 2864.7 799.788 2858.53 799.788V799.788Z" fill="#FFBD60"/>
<mask id="mask23" mask-type="alpha" maskUnits="userSpaceOnUse" x="2845" y="738" width="25" height="62">
<path fill-rule="evenodd" clip-rule="evenodd" d="M2858.53 799.788C2852.75 799.788 2847.99 795.246 2847.72 789.473L2845.88 750.307C2845.59 744.14 2850.5 738.973 2856.67 738.942V738.942C2862.5 738.912 2867.31 743.488 2867.57 749.309L2869.34 788.478C2869.62 794.64 2864.7 799.788 2858.53 799.788V799.788Z" fill="white"/>
</mask>
<g mask="url(#mask23)">
<path d="M2842.65 769.098L2869.9 768.288" stroke="#FF9666" stroke-width="3.5" stroke-linecap="round" stroke-linejoin="round"/>
</g>
<path fill-rule="evenodd" clip-rule="evenodd" d="M3136 333.45L3164 292.85L3193.6 299.681C3197.72 300.632 3200.87 303.959 3201.59 308.125L3299.8 876.65H3220.7L3136 333.45Z" fill="url(#paint51_linear)"/>
<mask id="mask24" mask-type="alpha" maskUnits="userSpaceOnUse" x="3135" y="292" width="165" height="585">
<path fill-rule="evenodd" clip-rule="evenodd" d="M3136 333.45L3164 292.85L3193.6 299.681C3197.72 300.632 3200.87 303.959 3201.59 308.125L3299.8 876.65H3220.7L3136 333.45Z" fill="white"/>
</mask>
<g mask="url(#mask24)">
<path opacity="0.415341" fill-rule="evenodd" clip-rule="evenodd" d="M3220.7 399.95C3220.7 399.95 3224.2 417.45 3193.4 427.25C3162.6 437.05 3017 453.85 3017 453.85L3016.3 479.75C3016.3 479.75 3253.6 453.85 3251.5 453.85C3249.4 453.85 3220.7 399.95 3220.7 399.95Z" fill="#253554"/>
</g>
<path fill-rule="evenodd" clip-rule="evenodd" d="M3037.3 876.65L3018.65 317.956C3018.51 313.639 3021.66 309.917 3025.94 309.349L3158.31 291.783C3162.7 291.202 3166.78 294.115 3167.65 298.448L3284.4 876.65H3037.3Z" fill="url(#paint52_linear)"/>
<rect opacity="0.415341" x="3032.3" y="339.399" width="34.4548" height="107.8" rx="10.5" transform="rotate(-7 3032.3 339.399)" fill="#253554"/>
<rect opacity="0.415341" x="3113.5" y="330.299" width="34.4548" height="107.8" rx="10.5" transform="rotate(-7 3113.5 330.299)" fill="#253554"/>
<path opacity="0.415341" fill-rule="evenodd" clip-rule="evenodd" d="M3074.12 688.664C3073.4 681.113 3078.82 674.361 3086.35 673.436L3092.64 672.664C3100.5 671.699 3107.6 677.442 3108.29 685.332L3122.41 845.752C3123.09 853.47 3117.37 860.272 3109.65 860.929L3104.55 861.363C3096.9 862.014 3090.15 856.386 3089.42 848.746L3074.12 688.664Z" fill="#253554"/>
<path opacity="0.415341" fill-rule="evenodd" clip-rule="evenodd" d="M3172.12 674.664C3171.4 667.113 3176.82 660.361 3184.35 659.436L3190.64 658.664C3198.5 657.699 3205.6 663.442 3206.29 671.332L3220.41 831.752C3221.09 839.47 3215.37 846.272 3207.65 846.929L3202.55 847.363C3194.9 848.014 3188.15 842.386 3187.42 834.746L3172.12 674.664Z" fill="#253554"/>
<path opacity="0.415341" fill-rule="evenodd" clip-rule="evenodd" d="M3179.12 674.664C3178.4 667.113 3183.82 660.361 3191.35 659.436L3197.64 658.664C3205.5 657.699 3212.6 663.442 3213.29 671.332L3227.41 831.752C3228.09 839.47 3222.37 846.272 3214.65 846.929L3209.55 847.363C3201.9 848.014 3195.15 842.386 3194.42 834.746L3179.12 674.664Z" fill="#253554"/>
<mask id="mask25" mask-type="alpha" maskUnits="userSpaceOnUse" x="3173" y="656" width="62" height="194">
<path fill-rule="evenodd" clip-rule="evenodd" d="M3179.12 674.664C3178.4 667.113 3183.82 660.361 3191.35 659.436L3197.64 658.664C3205.5 657.699 3212.6 663.442 3213.29 671.332L3227.41 831.752C3228.09 839.47 3222.37 846.272 3214.65 846.929L3209.55 847.363C3201.9 848.014 3195.15 842.386 3194.42 834.746L3179.12 674.664Z" fill="white"/>
</mask>
<g mask="url(#mask25)">
</g>
<path opacity="0.415341" fill-rule="evenodd" clip-rule="evenodd" d="M3005.8 650.55L3251.5 640.75L3248 612.75L3002.3 627.45L3005.8 650.55Z" fill="#253554"/>
<rect x="3031.21" y="332.451" width="34.4548" height="107.8" rx="10.5" transform="rotate(-7 3031.21 332.451)" fill="#FFBD60"/>
<mask id="mask26" mask-type="alpha" maskUnits="userSpaceOnUse" x="3031" y="328" width="48" height="112">
<rect x="3031.21" y="332.451" width="34.4548" height="107.8" rx="10.5" transform="rotate(-7 3031.21 332.451)" fill="white"/>
</mask>
<g mask="url(#mask26)">
<path d="M3027.44 357.823L3074.46 350.377" stroke="#FF9666" stroke-width="3.5" stroke-linecap="round" stroke-linejoin="round"/>
<path d="M3030.94 387.048L3077.96 379.602" stroke="#FF9666" stroke-width="3.5" stroke-linecap="round" stroke-linejoin="round"/>
<path d="M3034.44 416.273L3081.46 408.827" stroke="#FF9666" stroke-width="3.5" stroke-linecap="round" stroke-linejoin="round"/>
</g>
<path fill-rule="evenodd" clip-rule="evenodd" d="M3161.38 672.676C3160.66 665.125 3166.08 658.373 3173.61 657.448L3179.9 656.676C3187.76 655.711 3194.85 661.454 3195.55 669.344L3209.67 829.764C3210.35 837.482 3204.63 844.284 3196.91 844.941L3191.8 845.375C3184.16 846.026 3177.41 840.398 3176.68 832.758L3161.38 672.676Z" fill="#FFBD60"/>
<mask id="mask27" mask-type="alpha" maskUnits="userSpaceOnUse" x="3155" y="654" width="62" height="194">
<path fill-rule="evenodd" clip-rule="evenodd" d="M3161.38 672.676C3160.66 665.125 3166.08 658.373 3173.61 657.448L3179.9 656.676C3187.76 655.711 3194.85 661.454 3195.55 669.344L3209.67 829.764C3210.35 837.482 3204.63 844.284 3196.91 844.941L3191.8 845.375C3184.16 846.026 3177.41 840.398 3176.68 832.758L3161.38 672.676Z" fill="white"/>
</mask>
<g mask="url(#mask27)">
<path d="M3155.38 704.138L3202.72 699.162" stroke="#FF9666" stroke-width="3.5" stroke-linecap="round" stroke-linejoin="round"/>
<path d="M3155.38 753.488L3202.72 748.512" stroke="#FF9666" stroke-width="3.5" stroke-linecap="round" stroke-linejoin="round"/>
<path d="M3161.33 802.838L3208.67 797.862" stroke="#FF9666" stroke-width="3.5" stroke-linecap="round" stroke-linejoin="round"/>
</g>
<path fill-rule="evenodd" clip-rule="evenodd" d="M3067.51 675.144C3066.78 667.593 3072.21 660.841 3079.74 659.917L3086.02 659.144C3093.89 658.179 3100.98 663.922 3101.68 671.813L3115.8 832.232C3116.47 839.95 3110.76 846.752 3103.04 847.409L3097.93 847.844C3090.28 848.494 3083.54 842.867 3082.81 835.226L3067.51 675.144Z" fill="#FFBD60"/>
<mask id="mask28" mask-type="alpha" maskUnits="userSpaceOnUse" x="3061" y="657" width="62" height="193">
<path fill-rule="evenodd" clip-rule="evenodd" d="M3067.51 675.144C3066.78 667.593 3072.21 660.841 3079.74 659.917L3086.02 659.144C3093.89 658.179 3100.98 663.922 3101.68 671.813L3115.8 832.232C3116.47 839.95 3110.76 846.752 3103.04 847.409L3097.93 847.844C3090.28 848.494 3083.54 842.867 3082.81 835.226L3067.51 675.144Z" fill="white"/>
</mask>
<g mask="url(#mask28)">
<path d="M3061.51 706.606L3108.85 701.631" stroke="#FF9666" stroke-width="3.5" stroke-linecap="round" stroke-linejoin="round"/>
<path d="M3061.51 755.956L3108.85 750.981" stroke="#FF9666" stroke-width="3.5" stroke-linecap="round" stroke-linejoin="round"/>
<path d="M3067.46 805.306L3114.8 800.331" stroke="#FF9666" stroke-width="3.5" stroke-linecap="round" stroke-linejoin="round"/>
</g>
<rect x="3112.41" y="323.351" width="34.4548" height="107.8" rx="10.5" transform="rotate(-7 3112.41 323.351)" fill="#FFBD60"/>
<mask id="mask29" mask-type="alpha" maskUnits="userSpaceOnUse" x="3112" y="319" width="48" height="112">
<rect x="3112.41" y="323.351" width="34.4548" height="107.8" rx="10.5" transform="rotate(-7 3112.41 323.351)" fill="white"/>
</mask>
<g mask="url(#mask29)">
<path d="M3108.64 348.723L3155.66 341.277" stroke="#FF9666" stroke-width="3.5" stroke-linecap="round" stroke-linejoin="round"/>
<path d="M3112.14 377.948L3159.16 370.502" stroke="#FF9666" stroke-width="3.5" stroke-linecap="round" stroke-linejoin="round"/>
<path d="M3115.64 407.173L3162.66 399.727" stroke="#FF9666" stroke-width="3.5" stroke-linecap="round" stroke-linejoin="round"/>
</g>
<path fill-rule="evenodd" clip-rule="evenodd" d="M3227 604.35L3196.9 437.05H3237.17C3240.59 437.05 3243.51 439.521 3244.08 442.894L3270.4 600.15L3227 604.35Z" fill="url(#paint53_linear)"/>
<path fill-rule="evenodd" clip-rule="evenodd" d="M3008.74 465.108C3008.66 461.502 3011.33 458.424 3014.91 457.998L3196.06 436.417C3199.69 435.984 3203.05 438.421 3203.76 442.009L3238.76 618.969C3239.58 623.1 3236.59 627.013 3232.39 627.31L3020.12 642.332C3016.14 642.614 3012.72 639.505 3012.63 635.509L3008.74 465.108Z" fill="url(#paint54_linear)"/>
<rect opacity="0.415341" x="3032.34" y="487.597" width="160.65" height="44.52" rx="16.8" transform="rotate(-5.99999 3032.34 487.597)" fill="#253554"/>
<rect opacity="0.415341" x="3060.34" y="570.197" width="160.65" height="44.52" rx="16.8" transform="rotate(-5.99999 3060.34 570.197)" fill="#253554"/>
<rect width="162.702" height="42.1783" rx="16.8" transform="matrix(1.00918 -0.120734 0.00537972 0.982139 3027.01 483.56)" fill="#E2E7F4"/>
<rect width="141.02" height="36.2502" rx="14" transform="matrix(1.05334 -0.137273 -0.263097 0.930908 3039.72 487.257)" fill="#FFBD60"/>
<mask id="mask30" mask-type="alpha" maskUnits="userSpaceOnUse" x="3033" y="469" width="153" height="51">
<rect width="141.02" height="36.2502" rx="14" transform="matrix(1.05334 -0.137273 -0.263097 0.930908 3039.72 487.257)" fill="white"/>
</mask>
<g mask="url(#mask30)">
<path d="M3067.52 479.865L3063.8 520.635" stroke="#FF9666" stroke-width="3.5" stroke-linecap="round" stroke-linejoin="round"/>
<path d="M3111.08 474.065L3107.36 514.836" stroke="#FF9666" stroke-width="3.5" stroke-linecap="round" stroke-linejoin="round"/>
<path d="M3154.07 468.528L3150.35 509.299" stroke="#FF9666" stroke-width="3.5" stroke-linecap="round" stroke-linejoin="round"/>
<path opacity="0.503664" fill-rule="evenodd" clip-rule="evenodd" d="M3037.25 518.049L3190.68 493.109L3186.07 511.26L3030.84 537.835L3037.25 518.049Z" fill="#FF9666"/>
</g>
<rect width="162.703" height="42.1783" rx="16.8" transform="matrix(1.00918 -0.120734 0.00537951 0.982139 3041.71 566.613)" fill="#E2E7F4"/>
<rect width="141.02" height="36.2502" rx="14" transform="matrix(1.05334 -0.137273 -0.263097 0.930908 3054.42 570.31)" fill="#FFBD60"/>
<mask id="mask31" mask-type="alpha" maskUnits="userSpaceOnUse" x="3048" y="552" width="152" height="51">
<rect width="141.02" height="36.2502" rx="14" transform="matrix(1.05334 -0.137273 -0.263097 0.930908 3054.42 570.31)" fill="white"/>
</mask>
<g mask="url(#mask31)">
<path opacity="0.503664" fill-rule="evenodd" clip-rule="evenodd" d="M3037.25 603.183L3190.36 578.179L3186.05 594.306L3031.16 620.789L3037.25 603.183Z" fill="#FF9666"/>
<path d="M3082.22 562.917L3078.5 603.688" stroke="#FF9666" stroke-width="3.5" stroke-linecap="round" stroke-linejoin="round"/>
<path d="M3125.78 557.118L3122.06 597.889" stroke="#FF9666" stroke-width="3.5" stroke-linecap="round" stroke-linejoin="round"/>
<path d="M3168.77 551.581L3165.05 592.351" stroke="#FF9666" stroke-width="3.5" stroke-linecap="round" stroke-linejoin="round"/>
</g>
<path fill-rule="evenodd" clip-rule="evenodd" d="M2738.3 869.794L2716.44 608.809C2716.13 605.182 2713.1 602.394 2709.46 602.394H2607.92C2604.13 602.394 2601.02 605.418 2600.92 609.212L2594.1 871.894L2738.3 869.794Z" fill="url(#paint55_linear)"/>
<mask id="mask32" mask-type="alpha" maskUnits="userSpaceOnUse" x="2594" y="602" width="145" height="270">
<path fill-rule="evenodd" clip-rule="evenodd" d="M2738.3 869.794L2716.44 608.809C2716.13 605.182 2713.1 602.394 2709.46 602.394H2607.92C2604.13 602.394 2601.02 605.418 2600.92 609.212L2594.1 871.894L2738.3 869.794Z" fill="white"/>
</mask>
<g mask="url(#mask32)">
<path d="M2703.06 621.603C2706.02 621.603 2708.42 619.204 2708.42 616.244C2708.42 613.284 2706.02 610.884 2703.06 610.884C2700.1 610.884 2697.7 613.284 2697.7 616.244C2697.7 619.204 2700.1 621.603 2703.06 621.603Z" fill="#583FB3"/>
<path fill-rule="evenodd" clip-rule="evenodd" d="M2690.03 620.145C2692.19 620.145 2693.93 618.399 2693.93 616.244C2693.93 614.089 2692.19 612.342 2690.03 612.342C2687.88 612.342 2686.13 614.089 2686.13 616.244C2686.13 618.399 2687.88 620.145 2690.03 620.145Z" fill="#FF6CBB"/>
<path d="M2710.43 726.719C2713.39 726.719 2715.79 724.32 2715.79 721.36C2715.79 718.4 2713.39 716 2710.43 716C2707.47 716 2705.07 718.4 2705.07 721.36C2705.07 724.32 2707.47 726.719 2710.43 726.719Z" fill="#583FB3"/>
<path fill-rule="evenodd" clip-rule="evenodd" d="M2697.4 725.261C2699.56 725.261 2701.3 723.514 2701.3 721.36C2701.3 719.205 2699.56 717.458 2697.4 717.458C2695.25 717.458 2693.5 719.205 2693.5 721.36C2693.5 723.514 2695.25 725.261 2697.4 725.261Z" fill="#FF6CBB"/>
<rect x="2585.79" y="647.179" width="146.909" height="59.0366" fill="#E2E7F4"/>
<path fill-rule="evenodd" clip-rule="evenodd" d="M2580.15 761.286L2742.45 761.064V820.101L2580.15 820.323V761.286Z" fill="#E2E7F4"/>
<rect x="2589.9" y="651.497" width="142.709" height="49.8576" fill="url(#paint56_linear)"/>
<mask id="mask33" mask-type="alpha" maskUnits="userSpaceOnUse" x="2589" y="651" width="144" height="51">
<rect x="2589.9" y="651.497" width="142.709" height="49.8576" fill="white"/>
</mask>
<g mask="url(#mask33)">
<path d="M2661.3 643.694V707.394" stroke="#5D7CFF" stroke-width="3.5"/>
</g>
<path fill-rule="evenodd" clip-rule="evenodd" d="M2561.9 765.494H2753.61V815.351H2561.9V765.494Z" fill="url(#paint57_linear)"/>
<mask id="mask34" mask-type="alpha" maskUnits="userSpaceOnUse" x="2561" y="765" width="193" height="51">
<path fill-rule="evenodd" clip-rule="evenodd" d="M2561.9 765.494H2753.61V815.351H2561.9V765.494Z" fill="white"/>
</mask>
<g mask="url(#mask34)">
<path d="M2661.3 760.594V822.894" stroke="#5D7CFF" stroke-width="3.5"/>
</g>
</g>
</g>
<path opacity="0.1" fill-rule="evenodd" clip-rule="evenodd" d="M3068.61 930.723C3143.72 930.723 3204.62 924.231 3204.62 916.223C3204.62 908.215 3143.72 901.723 3068.61 901.723C2993.49 901.723 2932.6 908.215 2932.6 916.223C2932.6 924.231 2993.49 930.723 3068.61 930.723Z" fill="#495180"/>
<path d="M3023.73 709.995L3004.89 753.729C3001.24 762.21 2999.06 771.096 2998.44 780.007L2994.76 833.47" stroke="url(#paint58_linear)" stroke-width="24.9984" stroke-linecap="round" stroke-linejoin="round"/>
<path d="M3021.83 708.706L3014.27 736.673" stroke="#81A6FF" stroke-width="41.1264" stroke-linecap="round" stroke-linejoin="round"/>
<path fill-rule="evenodd" clip-rule="evenodd" d="M3019.67 784.946C3015.87 779.214 2969.27 779.795 2963.97 785.24C2953.06 796.429 2950.6 920.959 2956.33 921.48C2979.46 923.585 3026.17 930.078 3036.34 917.507C3040.71 912.101 3034.52 897.689 3035.94 895.277C3044.25 881.166 3027.06 796.11 3019.67 784.946Z" fill="url(#paint59_linear)"/>
<mask id="mask35" mask-type="alpha" maskUnits="userSpaceOnUse" x="2953" y="780" width="86" height="146">
<path fill-rule="evenodd" clip-rule="evenodd" d="M3019.67 784.946C3015.87 779.214 2969.27 779.795 2963.97 785.24C2953.06 796.429 2950.6 920.959 2956.33 921.48C2979.46 923.585 3026.17 930.078 3036.34 917.507C3040.71 912.101 3034.52 897.689 3035.94 895.277C3044.25 881.166 3027.06 796.11 3019.67 784.946Z" fill="white"/>
</mask>
<g mask="url(#mask35)">
<path opacity="0.2" fill-rule="evenodd" clip-rule="evenodd" d="M3017.97 780.589C3017.97 780.589 3045.55 882.442 2997.37 947.576L3034.12 967.746L3084.44 913.555L3047.94 783.379L3017.97 780.589Z" fill="white"/>
<path opacity="0.5" fill-rule="evenodd" clip-rule="evenodd" d="M3041.31 892.172C3041.31 892.172 2991.58 914.045 2949.43 906.164L2966.03 954.191L3068.37 922.825L3041.31 892.172Z" fill="#4832A6"/>
</g>
<rect width="58.4294" height="54.18" rx="23.1336" transform="matrix(0.65606 0.754709 -0.75471 0.656058 3148.02 733.992)" fill="#4832A6"/>
<path d="M3136.77 590.131C3136.77 590.131 3157.43 627.723 3163.73 680.223" stroke="url(#paint60_linear)" stroke-width="31.248" stroke-linecap="round" stroke-linejoin="round"/>
<path fill-rule="evenodd" clip-rule="evenodd" d="M3185.74 641.261C3179.02 627.024 3147.29 632.734 3130.9 660.096C3130.9 660.096 3107.98 755.614 3113.32 761.808C3118.65 768.002 3167.42 775.278 3183.29 761.631C3199.15 747.983 3192.46 655.499 3185.74 641.261Z" fill="url(#paint61_linear)"/>
<mask id="mask36" mask-type="alpha" maskUnits="userSpaceOnUse" x="3112" y="633" width="82" height="137">
<path fill-rule="evenodd" clip-rule="evenodd" d="M3185.74 641.261C3179.02 627.024 3147.29 632.734 3130.9 660.096C3130.9 660.096 3107.98 755.614 3113.32 761.808C3118.65 768.002 3167.42 775.278 3183.29 761.631C3199.15 747.983 3192.46 655.499 3185.74 641.261Z" fill="white"/>
</mask>
<g mask="url(#mask36)">
<path opacity="0.1" fill-rule="evenodd" clip-rule="evenodd" d="M3164.66 616.09C3164.66 616.09 3181.59 709.957 3127.37 777.86L3213.65 775.83L3213.06 649.717L3164.66 616.09Z" fill="#273199"/>
</g>
<path d="M3114.03 702.996L3095.19 746.729C3091.54 755.21 3089.36 764.096 3088.74 773.007L3085.06 826.47" stroke="url(#paint62_linear)" stroke-width="24.9984" stroke-linecap="round" stroke-linejoin="round"/>
<path d="M3112.13 701.706L3104.57 729.673" stroke="#81A6FF" stroke-width="41.1264" stroke-linecap="round" stroke-linejoin="round"/>
<path fill-rule="evenodd" clip-rule="evenodd" d="M3109.97 777.946C3106.17 772.214 3059.57 772.795 3054.27 778.24C3043.36 789.429 3040.9 913.959 3046.63 914.48C3069.76 916.585 3116.47 923.078 3126.64 910.507C3131.01 905.101 3124.82 890.689 3126.24 888.277C3134.55 874.166 3117.36 789.11 3109.97 777.946Z" fill="url(#paint63_linear)"/>
<mask id="mask37" mask-type="alpha" maskUnits="userSpaceOnUse" x="3043" y="773" width="86" height="146">
<path fill-rule="evenodd" clip-rule="evenodd" d="M3109.97 777.946C3106.17 772.214 3059.57 772.795 3054.27 778.24C3043.36 789.429 3040.9 913.959 3046.63 914.48C3069.76 916.585 3116.47 923.078 3126.64 910.507C3131.01 905.101 3124.82 890.689 3126.24 888.277C3134.55 874.166 3117.36 789.11 3109.97 777.946Z" fill="white"/>
</mask>
<g mask="url(#mask37)">
<path opacity="0.2" fill-rule="evenodd" clip-rule="evenodd" d="M3108.27 773.589C3108.27 773.589 3135.85 875.442 3087.67 940.576L3124.42 960.746L3174.74 906.555L3138.24 776.379L3108.27 773.589Z" fill="white"/>
<path opacity="0.5" fill-rule="evenodd" clip-rule="evenodd" d="M3131.61 885.172C3131.61 885.172 3081.88 907.045 3039.73 899.164L3056.33 947.191L3158.67 915.825L3131.61 885.172Z" fill="#4832A6"/>
</g>
<path fill-rule="evenodd" clip-rule="evenodd" d="M3094.2 496.98C3099.1 496.436 3102.87 492.636 3103.17 487.942L3106.47 436.484L3102.75 435.119L3083.4 483.783C3080.67 490.63 3086.57 497.829 3094.2 496.98V496.98Z" fill="#43A4E0"/>
<path fill-rule="evenodd" clip-rule="evenodd" d="M3102.44 438.464C3106.36 439.931 3110.8 437.862 3112.37 433.843C3113.94 429.824 3112.04 425.378 3108.12 423.911C3104.21 422.445 3099.76 424.514 3098.19 428.532C3096.62 432.551 3098.52 436.998 3102.44 438.464Z" fill="#58BBF8"/>
<path fill-rule="evenodd" clip-rule="evenodd" d="M2958.02 499.847C2960.78 477.513 2981.05 461.61 3003.95 463.804L3072.27 470.348C3095.18 472.542 3112.56 492.052 3111.66 514.565L3110.26 549.984C3109.32 573.834 3088.32 591.764 3064.05 589.44L2992.79 582.614C2968.53 580.29 2950.75 558.645 2953.67 534.985L2958.02 499.847Z" fill="url(#paint64_linear)"/>
<mask id="mask38" mask-type="alpha" maskUnits="userSpaceOnUse" x="2953" y="463" width="159" height="127">
<path fill-rule="evenodd" clip-rule="evenodd" d="M2958.02 499.847C2960.78 477.513 2981.05 461.61 3003.95 463.804L3072.27 470.348C3095.18 472.542 3112.56 492.052 3111.66 514.565L3110.26 549.984C3109.32 573.834 3088.32 591.764 3064.05 589.44L2992.79 582.614C2968.53 580.29 2950.75 558.645 2953.67 534.985L2958.02 499.847Z" fill="white"/>
</mask>
<g mask="url(#mask38)">
<path opacity="0.2" fill-rule="evenodd" clip-rule="evenodd" d="M3016.11 459.039C3014.24 450.968 3020.42 443.404 3028.82 443.465L3064.91 443.723C3071.46 443.77 3077.06 448.524 3078.07 454.886L3082.62 483.414C3083.93 491.696 3077.04 498.872 3068.55 498.058L3033.79 494.725C3028.04 494.174 3023.26 490.029 3021.98 484.492L3016.11 459.039Z" fill="#525DD0"/>
<path opacity="0.5" fill-rule="evenodd" clip-rule="evenodd" d="M3031.27 487.664C3032.75 487.804 3034.04 486.737 3034.16 485.281C3034.28 483.824 3033.18 482.53 3031.7 482.389C3030.22 482.249 3028.93 483.316 3028.81 484.772C3028.69 486.229 3029.79 487.523 3031.27 487.664Z" fill="white"/>
<path opacity="0.5" fill-rule="evenodd" clip-rule="evenodd" d="M3073.64 492.117C3075.11 492.257 3076.41 491.191 3076.53 489.734C3076.65 488.278 3075.55 486.983 3074.07 486.843C3072.59 486.702 3071.3 487.769 3071.18 489.225C3071.06 490.682 3072.16 491.976 3073.64 492.117Z" fill="white"/>
<path opacity="0.33" fill-rule="evenodd" clip-rule="evenodd" d="M3115.48 565.152C3115.48 565.152 3074.72 556.521 3038.72 561.338C3002.72 566.154 2969.68 588.931 2969.68 588.931C2969.68 588.931 3020.73 603.894 3023.9 603.866C3027.07 603.838 3062.44 599.027 3068.77 598.971C3075.11 598.914 3115.48 565.152 3115.48 565.152Z" fill="#273199"/>
</g>
<path fill-rule="evenodd" clip-rule="evenodd" d="M2969.23 521.694C2973.07 522.149 2976.45 519.512 2976.76 515.804C2977.08 512.096 2974.22 508.722 2970.37 508.266C2966.52 507.811 2963.15 510.448 2962.83 514.156C2962.51 517.864 2965.38 521.239 2969.23 521.694Z" fill="white"/>
<path d="M2943.29 548.673C2944.65 540.134 2952.83 534.543 2961.56 536.185L2989.87 541.508C2998.61 543.15 3004.59 551.404 3003.24 559.943L3001.45 571.214C2999.46 583.718 2987.49 591.905 2974.7 589.5L2969.55 588.531C2952.08 585.247 2940.11 568.739 2942.82 551.661L2943.29 548.673Z" fill="url(#paint65_linear)"/>
<path fill-rule="evenodd" clip-rule="evenodd" d="M2993.71 479.58C2998.6 479.036 3002.37 475.235 3002.67 470.542L3005.97 419.084L3002.25 417.719L2982.9 466.382C2980.18 473.23 2986.07 480.429 2993.71 479.58V479.58Z" fill="#6A5FEB"/>
<path fill-rule="evenodd" clip-rule="evenodd" d="M3001.94 421.064C3005.86 422.531 3010.31 420.462 3011.88 416.443C3013.45 412.424 3011.54 407.977 3007.63 406.511C3003.71 405.044 2999.26 407.113 2997.69 411.132C2996.13 415.151 2998.03 419.598 3001.94 421.064Z" fill="#58BBF8"/>
<path fill-rule="evenodd" clip-rule="evenodd" d="M2950.23 588.831C2963.47 569.229 3136.18 561.855 3150.06 580.3C3163.93 598.744 3145.08 703.602 3125.38 719.164C3105.67 734.726 3000.76 742.502 2978.55 722.098C2956.34 701.693 2936.99 608.433 2950.23 588.831Z" fill="url(#paint66_linear)"/>
<mask id="mask39" mask-type="alpha" maskUnits="userSpaceOnUse" x="2945" y="569" width="210" height="166">
<path fill-rule="evenodd" clip-rule="evenodd" d="M2950.23 588.831C2963.47 569.229 3136.18 561.855 3150.06 580.3C3163.93 598.744 3145.08 703.602 3125.38 719.164C3105.67 734.726 3000.76 742.502 2978.55 722.098C2956.34 701.693 2936.99 608.433 2950.23 588.831Z" fill="white"/>
</mask>
<g mask="url(#mask39)">
<path opacity="0.33" fill-rule="evenodd" clip-rule="evenodd" d="M2966.68 600.915C2966.68 600.915 2978.51 591.883 2994.76 616.771C3011.01 641.66 3025.82 715.642 3057.34 721.403C3088.86 727.163 3141.12 712.852 3146.1 704.822C3151.07 696.793 3152.3 724.455 3138.31 732.158C3124.32 739.862 3065.85 754.438 3041.86 757.594C3017.88 760.75 2984.93 754.34 2973.8 743.445C2962.67 732.55 2948.39 696.208 2942.04 674.45C2935.69 652.692 2934.96 622.166 2939.1 612.041C2943.24 601.916 2966.68 600.915 2966.68 600.915Z" fill="#273199"/>
<path opacity="0.3" d="M3161.81 633.092L3127.07 642.051C3120.79 643.671 3116.98 649.915 3118.37 656.306L3132.73 722.087" stroke="#CDEEFF" stroke-width="2.17728"/>
<path opacity="0.5" fill-rule="evenodd" clip-rule="evenodd" d="M3131.7 658.225C3133.91 658.131 3135.57 656.213 3135.42 653.942C3135.26 651.671 3133.34 649.907 3131.13 650.001C3128.93 650.096 3127.26 652.014 3127.42 654.285C3127.58 656.556 3129.5 658.32 3131.7 658.225Z" fill="#BBE9FF"/>
<path opacity="0.3" d="M3116.27 575.374L3117.86 598.423C3118.51 607.707 3112 615.788 3102.81 617.125L3010.7 630.522C3000.79 631.964 2994.15 641.185 2995.88 651.099L3009.86 731.14" stroke="#CDEEFF" stroke-width="2.17728"/>
<path opacity="0.5" fill-rule="evenodd" clip-rule="evenodd" d="M3007.81 649.446C3010.02 649.352 3011.68 647.434 3011.52 645.163C3011.37 642.892 3009.45 641.128 3007.24 641.222C3005.03 641.317 3003.37 643.235 3003.53 645.506C3003.68 647.777 3005.6 649.541 3007.81 649.446Z" fill="#BBE9FF"/>
<path opacity="0.5" fill-rule="evenodd" clip-rule="evenodd" d="M3107.23 607.182C3109.43 607.087 3111.1 605.17 3110.94 602.899C3110.78 600.628 3108.86 598.863 3106.66 598.958C3104.45 599.052 3102.79 600.97 3102.94 603.241C3103.1 605.512 3105.02 607.276 3107.23 607.182Z" fill="#BBE9FF"/>
</g>
<rect width="58.4294" height="54.18" rx="23.1336" transform="matrix(0.65606 0.754709 -0.75471 0.656058 2973.02 741.692)" fill="#4832A6"/>
<path d="M2961.77 597.831C2961.77 597.831 2982.43 635.423 2988.73 687.923" stroke="url(#paint67_linear)" stroke-width="31.248" stroke-linecap="round" stroke-linejoin="round"/>
<path fill-rule="evenodd" clip-rule="evenodd" d="M3010.74 648.961C3004.02 634.724 2972.29 640.434 2955.9 667.796C2955.9 667.796 2932.98 763.314 2938.32 769.508C2943.65 775.702 2992.42 782.978 3008.29 769.331C3024.15 755.683 3017.46 663.199 3010.74 648.961Z" fill="url(#paint68_linear)"/>
<mask id="mask40" mask-type="alpha" maskUnits="userSpaceOnUse" x="2937" y="641" width="82" height="137">
<path fill-rule="evenodd" clip-rule="evenodd" d="M3010.74 648.961C3004.02 634.724 2972.29 640.434 2955.9 667.796C2955.9 667.796 2932.98 763.314 2938.32 769.508C2943.65 775.702 2992.42 782.978 3008.29 769.331C3024.15 755.683 3017.46 663.199 3010.74 648.961Z" fill="white"/>
</mask>
<g mask="url(#mask40)">
<path opacity="0.1" fill-rule="evenodd" clip-rule="evenodd" d="M2989.66 623.79C2989.66 623.79 3006.59 717.657 2952.37 785.56L3038.65 783.53L3038.06 657.417L2989.66 623.79Z" fill="#273199"/>
</g>
<defs>
<linearGradient id="paint0_linear" x1="2283.3" y1="1152.11" x2="2472.29" y2="-27.1382" gradientUnits="userSpaceOnUse">
<stop stop-color="#FFC5A4"/>
<stop offset="0.376046" stop-color="#FA6CBE"/>
<stop offset="1" stop-color="#8E62FF"/>
</linearGradient>
<linearGradient id="paint1_linear" x1="1950.01" y1="71.6033" x2="1700.86" y2="1178.82" gradientUnits="userSpaceOnUse">
<stop stop-color="#FF87C7"/>
<stop offset="1" stop-color="#FFBD60"/>
</linearGradient>
<linearGradient id="paint2_linear" x1="2126.94" y1="369.661" x2="3728.49" y2="1113.76" gradientUnits="userSpaceOnUse">
<stop stop-color="#FFA492" stop-opacity="0.01"/>
<stop offset="0.300844" stop-color="#CA3891"/>
<stop offset="1" stop-color="#3E13AF"/>
</linearGradient>
<linearGradient id="paint3_linear" x1="3407.48" y1="588.473" x2="3537.6" y2="-199.308" gradientUnits="userSpaceOnUse">
<stop stop-color="#FFA492"/>
<stop offset="0.216626" stop-color="#CA3891"/>
<stop offset="1" stop-color="#3E13AF"/>
</linearGradient>
<linearGradient id="paint4_linear" x1="3210.32" y1="297.768" x2="3218.34" y2="215.018" gradientUnits="userSpaceOnUse">
<stop stop-color="#FFA492"/>
<stop offset="0.216626" stop-color="#CA3891"/>
<stop offset="1" stop-color="#3E13AF"/>
</linearGradient>
<linearGradient id="paint5_linear" x1="2887.28" y1="348.079" x2="2917.86" y2="297.328" gradientUnits="userSpaceOnUse">
<stop stop-color="#FFA492"/>
<stop offset="0.216626" stop-color="#CA3891"/>
<stop offset="1" stop-color="#3E13AF"/>
</linearGradient>
<linearGradient id="paint6_linear" x1="2847.6" y1="363.518" x2="2858.35" y2="274.903" gradientUnits="userSpaceOnUse">
<stop stop-color="#FFA492"/>
<stop offset="0.216626" stop-color="#CA3891"/>
<stop offset="1" stop-color="#3E13AF"/>
</linearGradient>
<linearGradient id="paint7_linear" x1="2548.22" y1="335.194" x2="2538.19" y2="235.84" gradientUnits="userSpaceOnUse">
<stop stop-color="#FFA492"/>
<stop offset="0.216626" stop-color="#CA3891"/>
<stop offset="1" stop-color="#3E13AF"/>
</linearGradient>
<linearGradient id="paint8_linear" x1="2730.14" y1="250.132" x2="2798.48" y2="410.854" gradientUnits="userSpaceOnUse">
<stop stop-color="#F393AA"/>
<stop offset="1" stop-color="#B81375"/>
</linearGradient>
<linearGradient id="paint9_linear" x1="2949.35" y1="390.278" x2="2974.59" y2="276.76" gradientUnits="userSpaceOnUse">
<stop stop-color="#FFA492"/>
<stop offset="0.216626" stop-color="#CA3891"/>
<stop offset="1" stop-color="#3E13AF"/>
</linearGradient>
<linearGradient id="paint10_linear" x1="2919.09" y1="376.451" x2="2964.28" y2="241.089" gradientUnits="userSpaceOnUse">
<stop stop-color="#FFA492"/>
<stop offset="0.216626" stop-color="#CA3891"/>
<stop offset="1" stop-color="#3E13AF"/>
</linearGradient>
<linearGradient id="paint11_linear" x1="2847.85" y1="363.309" x2="2858.6" y2="274.694" gradientUnits="userSpaceOnUse">
<stop stop-color="#FFA492"/>
<stop offset="0.216626" stop-color="#CA3891"/>
<stop offset="1" stop-color="#3E13AF"/>
</linearGradient>
<linearGradient id="paint12_linear" x1="2546.18" y1="282.262" x2="2614.52" y2="442.984" gradientUnits="userSpaceOnUse">
<stop stop-color="#F393AA"/>
<stop offset="1" stop-color="#B81375"/>
</linearGradient>
<linearGradient id="paint13_linear" x1="2744" y1="419.76" x2="2769.54" y2="314.514" gradientUnits="userSpaceOnUse">
<stop stop-color="#FFA492"/>
<stop offset="0.216626" stop-color="#CA3891"/>
<stop offset="1" stop-color="#3E13AF"/>
</linearGradient>
<linearGradient id="paint14_linear" x1="2736.21" y1="404.244" x2="2778.37" y2="274.403" gradientUnits="userSpaceOnUse">
<stop stop-color="#FFA492"/>
<stop offset="0.216626" stop-color="#CA3891"/>
<stop offset="1" stop-color="#3E13AF"/>
</linearGradient>
<linearGradient id="paint15_linear" x1="2909.69" y1="219.892" x2="2978.03" y2="380.614" gradientUnits="userSpaceOnUse">
<stop stop-color="#F393AA"/>
<stop offset="1" stop-color="#B81375"/>
</linearGradient>
<linearGradient id="paint16_linear" x1="3136.37" y1="359.478" x2="3160.07" y2="245.267" gradientUnits="userSpaceOnUse">
<stop stop-color="#FFA492"/>
<stop offset="0.216626" stop-color="#CA3891"/>
<stop offset="1" stop-color="#3E13AF"/>
</linearGradient>
<linearGradient id="paint17_linear" x1="3137.57" y1="349.843" x2="3178.25" y2="196.338" gradientUnits="userSpaceOnUse">
<stop stop-color="#FFA492"/>
<stop offset="0.216626" stop-color="#CA3891"/>
<stop offset="1" stop-color="#3E13AF"/>
</linearGradient>
<linearGradient id="paint18_linear" x1="3084.69" y1="189.792" x2="3153.03" y2="350.514" gradientUnits="userSpaceOnUse">
<stop stop-color="#F393AA"/>
<stop offset="1" stop-color="#B81375"/>
</linearGradient>
<linearGradient id="paint19_linear" x1="3273.02" y1="372.332" x2="3385.39" y2="185.821" gradientUnits="userSpaceOnUse">
<stop stop-color="#FFA492"/>
<stop offset="0.216626" stop-color="#CA3891"/>
<stop offset="1" stop-color="#3E13AF"/>
</linearGradient>
<linearGradient id="paint20_linear" x1="3312.57" y1="319.743" x2="3353.25" y2="166.238" gradientUnits="userSpaceOnUse">
<stop stop-color="#FFA492"/>
<stop offset="0.216626" stop-color="#CA3891"/>
<stop offset="1" stop-color="#3E13AF"/>
</linearGradient>
<linearGradient id="paint21_linear" x1="3210.32" y1="297.768" x2="3218.34" y2="215.018" gradientUnits="userSpaceOnUse">
<stop stop-color="#FFA492"/>
<stop offset="0.216626" stop-color="#CA3891"/>
<stop offset="1" stop-color="#3E13AF"/>
</linearGradient>
<linearGradient id="paint22_linear" x1="2901.65" y1="295.111" x2="2709.81" y2="595.067" gradientUnits="userSpaceOnUse">
<stop stop-color="#F393AA"/>
<stop offset="1" stop-color="#B81375"/>
</linearGradient>
<linearGradient id="paint23_linear" x1="2370.92" y1="415.219" x2="2326.99" y2="206.663" gradientUnits="userSpaceOnUse">
<stop stop-color="#FFA492"/>
<stop offset="0.216626" stop-color="#CA3891"/>
<stop offset="1" stop-color="#3E13AF"/>
</linearGradient>
<linearGradient id="paint24_linear" x1="2559.67" y1="361.484" x2="2364.82" y2="476.149" gradientUnits="userSpaceOnUse">
<stop stop-color="#FFA492"/>
<stop offset="0.216626" stop-color="#CA3891"/>
<stop offset="1" stop-color="#3E13AF"/>
</linearGradient>
<linearGradient id="paint25_linear" x1="2465.03" y1="271.168" x2="2557.45" y2="273.937" gradientUnits="userSpaceOnUse">
<stop stop-color="#FFA492"/>
<stop offset="0.216626" stop-color="#CA3891"/>
<stop offset="1" stop-color="#3E13AF"/>
</linearGradient>
<linearGradient id="paint26_linear" x1="2515.78" y1="393.702" x2="2595.96" y2="202.425" gradientUnits="userSpaceOnUse">
<stop stop-color="#FFA492"/>
<stop offset="0.216626" stop-color="#CA3891"/>
<stop offset="1" stop-color="#3E13AF"/>
</linearGradient>
<linearGradient id="paint27_linear" x1="2760.53" y1="181.081" x2="2568.69" y2="481.037" gradientUnits="userSpaceOnUse">
<stop stop-color="#F393AA"/>
<stop offset="1" stop-color="#B81375"/>
</linearGradient>
<linearGradient id="paint28_linear" x1="2229.79" y1="301.189" x2="2185.86" y2="92.6331" gradientUnits="userSpaceOnUse">
<stop stop-color="#FFA492"/>
<stop offset="0.216626" stop-color="#CA3891"/>
<stop offset="1" stop-color="#3E13AF"/>
</linearGradient>
<linearGradient id="paint29_linear" x1="2407.18" y1="239.199" x2="2287.66" y2="333.658" gradientUnits="userSpaceOnUse">
<stop stop-color="#FFA492"/>
<stop offset="0.216626" stop-color="#CA3891"/>
<stop offset="1" stop-color="#3E13AF"/>
</linearGradient>
<linearGradient id="paint30_linear" x1="2391.89" y1="272.645" x2="2444.72" y2="154.807" gradientUnits="userSpaceOnUse">
<stop stop-color="#FFA492"/>
<stop offset="0.216626" stop-color="#CA3891"/>
<stop offset="1" stop-color="#3E13AF"/>
</linearGradient>
<linearGradient id="paint31_linear" x1="2051.14" y1="714.682" x2="3034.15" y2="1702.13" gradientUnits="userSpaceOnUse">
<stop stop-color="#FFA492" stop-opacity="0.01"/>
<stop offset="0.300844" stop-color="#CA3891"/>
<stop offset="1" stop-color="#3E13AF"/>
</linearGradient>
<linearGradient id="paint32_linear" x1="2417.75" y1="681.833" x2="2472.06" y2="643.432" gradientUnits="userSpaceOnUse">
<stop stop-color="#FFA492"/>
<stop offset="0.216626" stop-color="#CA3891"/>
<stop offset="1" stop-color="#3E13AF"/>
</linearGradient>
<linearGradient id="paint33_linear" x1="2555.09" y1="676.126" x2="2579.3" y2="534.679" gradientUnits="userSpaceOnUse">
<stop stop-color="#FFA492"/>
<stop offset="0.216626" stop-color="#CA3891"/>
<stop offset="1" stop-color="#3E13AF"/>
</linearGradient>
<linearGradient id="paint34_linear" x1="2840.97" y1="690.963" x2="2864.14" y2="550.545" gradientUnits="userSpaceOnUse">
<stop stop-color="#FFA492"/>
<stop offset="0.216626" stop-color="#CA3891"/>
<stop offset="1" stop-color="#3E13AF"/>
</linearGradient>
<linearGradient id="paint35_linear" x1="3257.11" y1="884.871" x2="3349.64" y2="227.94" gradientUnits="userSpaceOnUse">
<stop stop-color="#FFA492"/>
<stop offset="0.216626" stop-color="#CA3891"/>
<stop offset="1" stop-color="#3E13AF"/>
</linearGradient>
<linearGradient id="paint36_linear" x1="0" y1="0" x2="0" y2="91.8893" gradientUnits="userSpaceOnUse">
<stop stop-color="#F393AA"/>
<stop offset="1" stop-color="#D44399"/>
</linearGradient>
<linearGradient id="paint37_linear" x1="0" y1="0" x2="0" y2="91.8893" gradientUnits="userSpaceOnUse">
<stop stop-color="#F393AA"/>
<stop offset="1" stop-color="#D44399"/>
</linearGradient>
<linearGradient id="paint38_linear" x1="2994.85" y1="663.297" x2="3143.74" y2="391.056" gradientUnits="userSpaceOnUse">
<stop stop-color="#FFA492"/>
<stop offset="0.43169" stop-color="#CA3891"/>
<stop offset="1" stop-color="#3E13AF"/>
</linearGradient>
<linearGradient id="paint39_linear" x1="2968.94" y1="561.659" x2="2985.94" y2="461.04" gradientUnits="userSpaceOnUse">
<stop stop-color="#FFA492"/>
<stop offset="0.359822" stop-color="#CA3891"/>
<stop offset="1" stop-color="#3E13AF"/>
</linearGradient>
<linearGradient id="paint40_linear" x1="3085.13" y1="1309.52" x2="3695.65" y2="964.927" gradientUnits="userSpaceOnUse">
<stop stop-color="#FFA492"/>
<stop offset="0.43169" stop-color="#CA3891"/>
<stop offset="1" stop-color="#3E13AF"/>
</linearGradient>
<linearGradient id="paint41_linear" x1="2933.9" y1="658.389" x2="2967.84" y2="651.06" gradientUnits="userSpaceOnUse">
<stop stop-color="#74C3FF"/>
<stop offset="1" stop-color="#5C79FF"/>
</linearGradient>
<linearGradient id="paint42_linear" x1="2948.91" y1="755.321" x2="2982.85" y2="747.991" gradientUnits="userSpaceOnUse">
<stop stop-color="#74C3FF"/>
<stop offset="1" stop-color="#5C79FF"/>
</linearGradient>
<linearGradient id="paint43_linear" x1="2963.93" y1="852.252" x2="2997.86" y2="844.922" gradientUnits="userSpaceOnUse">
<stop stop-color="#74C3FF"/>
<stop offset="1" stop-color="#5C79FF"/>
</linearGradient>
<linearGradient id="paint44_linear" x1="3146.16" y1="1123.58" x2="3526.48" y2="587.282" gradientUnits="userSpaceOnUse">
<stop stop-color="#FFA492"/>
<stop offset="0.43169" stop-color="#CA3891"/>
<stop offset="1" stop-color="#3E13AF"/>
</linearGradient>
<linearGradient id="paint45_linear" x1="3033.33" y1="1016.34" x2="3253.88" y2="714.456" gradientUnits="userSpaceOnUse">
<stop stop-color="#FFA492"/>
<stop offset="0.397722" stop-color="#CA3891"/>
<stop offset="1" stop-color="#3E13AF"/>
</linearGradient>
<linearGradient id="paint46_linear" x1="2895.24" y1="1139.92" x2="3316.04" y2="749.324" gradientUnits="userSpaceOnUse">
<stop stop-color="#FFA492"/>
<stop offset="0.43169" stop-color="#CA3891"/>
<stop offset="1" stop-color="#3E13AF"/>
</linearGradient>
<linearGradient id="paint47_linear" x1="2749.69" y1="701.81" x2="2758.58" y2="665.574" gradientUnits="userSpaceOnUse">
<stop stop-color="#FFA492"/>
<stop offset="0.536699" stop-color="#CA3891"/>
<stop offset="1" stop-color="#3E13AF"/>
</linearGradient>
<linearGradient id="paint48_linear" x1="2759.2" y1="724.533" x2="2800.99" y2="674.683" gradientUnits="userSpaceOnUse">
<stop stop-color="#FFA492"/>
<stop offset="0.43169" stop-color="#CA3891"/>
<stop offset="1" stop-color="#3E13AF"/>
</linearGradient>
<linearGradient id="paint49_linear" x1="2749.35" y1="645.037" x2="2760.61" y2="632.597" gradientUnits="userSpaceOnUse">
<stop stop-color="#FF6CBB"/>
<stop offset="1" stop-color="#8E62FF"/>
</linearGradient>
<linearGradient id="paint50_linear" x1="2898.54" y1="1241.32" x2="3279.79" y2="905.046" gradientUnits="userSpaceOnUse">
<stop stop-color="#FF6CBB"/>
<stop offset="1" stop-color="#8E62FF"/>
</linearGradient>
<linearGradient id="paint51_linear" x1="3272.63" y1="1261.18" x2="3677.72" y2="1079.1" gradientUnits="userSpaceOnUse">
<stop stop-color="#FF6CBB"/>
<stop offset="1" stop-color="#8E62FF"/>
</linearGradient>
<linearGradient id="paint52_linear" x1="3218.9" y1="1621.87" x2="3980.71" y2="1148.72" gradientUnits="userSpaceOnUse">
<stop stop-color="#FF6CBB"/>
<stop offset="1" stop-color="#8E62FF"/>
</linearGradient>
<linearGradient id="paint53_linear" x1="3240.75" y1="692.414" x2="3329.09" y2="529.36" gradientUnits="userSpaceOnUse">
<stop stop-color="#FF6CBB"/>
<stop offset="1" stop-color="#8E62FF"/>
</linearGradient>
<linearGradient id="paint54_linear" x1="3030.13" y1="980.948" x2="3317.41" y2="588.563" gradientUnits="userSpaceOnUse">
<stop stop-color="#FF6CBB"/>
<stop offset="1" stop-color="#8E62FF"/>
</linearGradient>
<linearGradient id="paint55_linear" x1="2730.2" y1="942.866" x2="2730.2" y2="602.394" gradientUnits="userSpaceOnUse">
<stop stop-color="#74C3FF"/>
<stop offset="1" stop-color="#5C79FF"/>
</linearGradient>
<linearGradient id="paint56_linear" x1="2597.39" y1="616.926" x2="2559.85" y2="746.878" gradientUnits="userSpaceOnUse">
<stop stop-color="#6BE5FF"/>
<stop offset="1" stop-color="#5C79FF"/>
</linearGradient>
<linearGradient id="paint57_linear" x1="2546.49" y1="723.76" x2="2510.48" y2="884.482" gradientUnits="userSpaceOnUse">
<stop stop-color="#6BE5FF"/>
<stop offset="1" stop-color="#5C79FF"/>
</linearGradient>
<linearGradient id="paint58_linear" x1="3058.93" y1="739.808" x2="3031.64" y2="702.845" gradientUnits="userSpaceOnUse">
<stop stop-color="#7C5ED1"/>
<stop offset="1" stop-color="#4630A4"/>
</linearGradient>
<linearGradient id="paint59_linear" x1="2952.11" y1="779.785" x2="3051.86" y2="797.381" gradientUnits="userSpaceOnUse">
<stop stop-color="#5CBCFF"/>
<stop offset="1" stop-color="#8C5DFF"/>
</linearGradient>
<linearGradient id="paint60_linear" x1="3156.82" y1="728.452" x2="3230.9" y2="662.49" gradientUnits="userSpaceOnUse">
<stop stop-color="#7C5ED1"/>
<stop offset="1" stop-color="#4630A4"/>
</linearGradient>
<linearGradient id="paint61_linear" x1="3102.79" y1="631.8" x2="3164.87" y2="648.148" gradientUnits="userSpaceOnUse">
<stop stop-color="#8ACFFF"/>
<stop offset="1" stop-color="#7775FF"/>
</linearGradient>
<linearGradient id="paint62_linear" x1="3149.23" y1="732.808" x2="3121.94" y2="695.845" gradientUnits="userSpaceOnUse">
<stop stop-color="#7C5ED1"/>
<stop offset="1" stop-color="#4630A4"/>
</linearGradient>
<linearGradient id="paint63_linear" x1="3042.41" y1="772.785" x2="3142.16" y2="790.381" gradientUnits="userSpaceOnUse">
<stop stop-color="#5CBCFF"/>
<stop offset="1" stop-color="#8C5DFF"/>
</linearGradient>
<linearGradient id="paint64_linear" x1="3049.74" y1="461.388" x2="2965.32" y2="539.344" gradientUnits="userSpaceOnUse">
<stop stop-color="#5CBCFF"/>
<stop offset="1" stop-color="#8C5DFF"/>
</linearGradient>
<linearGradient id="paint65_linear" x1="2962.26" y1="515.524" x2="2923.2" y2="564.66" gradientUnits="userSpaceOnUse">
<stop stop-color="#8ACFFF"/>
<stop offset="1" stop-color="#7775FF"/>
</linearGradient>
<linearGradient id="paint66_linear" x1="3061.52" y1="560.5" x2="2962.14" y2="676.762" gradientUnits="userSpaceOnUse">
<stop stop-color="#5CBCFF"/>
<stop offset="1" stop-color="#8C5DFF"/>
</linearGradient>
<linearGradient id="paint67_linear" x1="2981.82" y1="736.152" x2="3055.9" y2="670.19" gradientUnits="userSpaceOnUse">
<stop stop-color="#7C5ED1"/>
<stop offset="1" stop-color="#4630A4"/>
</linearGradient>
<linearGradient id="paint68_linear" x1="2927.79" y1="639.5" x2="2989.87" y2="655.848" gradientUnits="userSpaceOnUse">
<stop stop-color="#8ACFFF"/>
<stop offset="1" stop-color="#7775FF"/>
</linearGradient>
</defs>
</svg>
